<?xml version="1.0" encoding="UTF-8"?><svg id="Layer_2" xmlns="http://www.w3.org/2000/svg" xmlns:xlink="http://www.w3.org/1999/xlink" viewBox="0 0 253.45 214.8"><defs><style>.cls-1{fill:url(#linear-gradient);}.cls-2{clip-path:url(#clippath);}.cls-3{fill:#fff;}.cls-4{clip-rule:evenodd;fill:none;}.cls-5{clip-path:url(#clippath-1);}.cls-6{clip-path:url(#clippath-2);}.cls-7{fill:url(#linear-gradient-2);}.cls-8{fill:#6d6f71;fill-rule:evenodd;}</style><clipPath id="clippath"><path class="cls-4" d="M111.61,97.51c-1.33-.9-2.66-1.8-3.99-2.7-1.66,1.8-3.32,3.6-4.97,5.4-.25-1.51-.5-3.01-.76-4.52,2.01-3.9,7.62-2.45,9.72,1.81m.46-4.42h0c.11-11.28-4.38-20.77-13.02-28.67,9.6,6.96,16.25,18.49,18.8,36.37l-1.63-.51c-.97-3.07-2.28-5.6-4.16-7.19Zm6.84,8.04c-1.6-16.14-11.79-40.94-31.7-41.11-13.15,.71-22.08,11.2-16.67,26.19,3,7.15,9.92,11.35,20.54,13.26-11.02,.97-18.29-3.89-22.84-14.01-4.56-13.18,1.39-24.33,15.42-27.02,8.45-.69,16.13,2.07,22.82,9.33,7.31,7.78,11.34,19.25,12.89,33.5l-.46-.15Zm-21.59-5.09c.23-3.87,4.77-7.12,10.55-4.74h0c-6.29-.86-8.71,1.8-8.2,7.1-.78-.79-1.56-1.58-2.35-2.37Zm13.64-4.13c-3.52-2.52-10.6-5-14.75,2.89-3.02-6.1-1.74-11.91,3.69-13.11,3.92-1.2,7.37,1.63,10.58,6.47l.1-.12,.38,3.86Zm-16.57-9.74c-9.15-.24-7.13,12.93,.47,14.89-2.91-4.34-3.82-9.13-.47-14.89Zm6.46-2.1c-4.91-2.29-9.09-2.15-12.63,.08-4.66,4.08-4.41,8.84-2.37,13.83,1.3,2.62,3.62,4.57,6.61,4.76-5.67-3.31-6.94-8.32-6.05-13.61,1.38-5.9,8.76-5.75,14.45-5.07Zm2.92-1.32h0c-1.87-8.6-5.09-16.17-18.55-15.94-9.82,1.88-13.21,9.1-11.43,20.62,2.12,6.91,7.1,10.33,12.2,13.61l.18,.17c-5.75-1.79-11.44-4.96-14.63-11.16-4.12-14.11,1.8-23.6,15.68-25.06,11.93-.07,22.26,14.52,23.2,25.39-1.52-2.19-3.56-4.16-6.28-5.87-.12-.59-.24-1.18-.37-1.76Zm-12.27-.96c.16-.08,.32-.16,.48-.24,4.81-1.76,8.03-.66,10.7,1.44,.03,.24,.06,.47,.09,.71-4.12-1.81-7.92-2.61-11.27-1.91Zm-8.01,16.45c-1.32-3.4-1.72-6.83,.56-10.32h0c-1.02,4.26-.42,8.18,1.7,11.78l.02,.04-.11-.09c-.73-.46-1.46-.93-2.17-1.41Zm-9.03-18.92c1.73,5.22,5.36,6.81,9.79,6.84-2.41,2.37-3.44,5.82-2.09,11.13-3.29-2.46-6.1-5.46-7.48-10.08-.4-2.8-.51-5.47-.22-7.89Zm28.05,2.58c-2.76-2.17-6.29-2.96-11.08-1.46,1.65-7.13-2.21-11.69-8.07-12.03l-1.78,.25c1.14-.48,2.43-.83,3.88-1.02,10.05-.33,15.53,5.53,17.05,14.26Zm-19.52-11.45c-3.53,0-6.38,2.87-6.38,6.42s2.86,6.42,6.38,6.42,6.38-2.88,6.38-6.42-2.86-6.42-6.38-6.42Zm0-.69c-3.9,0-7.07,3.18-7.07,7.11s3.16,7.11,7.07,7.11,7.07-3.18,7.07-7.11-3.16-7.11-7.07-7.11Zm.06-.55c-4.32,0-7.81,3.52-7.81,7.86s3.5,7.86,7.81,7.86,7.81-3.52,7.81-7.86-3.5-7.86-7.81-7.86Zm28.4,56.35c-4.85,2.47-9.44,2.78-13.6-.6,.75,2.47,2.46,4.15,6.12,4.23,4.29-.43,6.18-1.9,7.48-3.63Zm2.24-16.54l-4.93-2.41-3.14,2.41,2.99,2.71,5.08-2.71Zm13.02-40.78c-1.68,.03-3.51-.42-5.7-1.94,2.44,6.8,4.37,13.95,5.7,21.5v-4.63c-.99-5.13-2.49-10.19-4.35-15.22,1.42,.85,2.86,1.01,4.35,.91v-.63Zm0-20.56c-4.94,.03-8.93,4.06-8.93,9.03s3.99,9,8.93,9.03v-.84c-4.47-.03-8.09-3.68-8.09-8.19s3.62-8.16,8.09-8.19v-.84Zm-9.93,11.41c-.6-1.43-1.23-2.89-1.9-4.37,.99-.92,1.95-1.9,2.87-2.96-.8,1.47-1.25,3.15-1.25,4.94,0,.82,.1,1.62,.28,2.39Zm-.7,50.08l-7.32-3.61-4.63,3.46,4.48,3.76,7.47-3.61Zm-1.21,5.13h.02l.09-.05s-.07,.03-.11,.05Zm-2.02,1.11l.09-.05-.09,.05Zm-.17,.11s.06-.04,.09-.06c-.03,.02-.06,.04-.09,.06Zm-.17,.11s.06-.04,.1-.06c-.03,.02-.07,.04-.1,.06Zm-.18,.11s.07-.05,.11-.07c-.04,.02-.07,.05-.11,.07Zm-.16,.11s.07-.04,.1-.07c-.03,.02-.07,.04-.1,.07Zm-.19,.12s.08-.05,.12-.08c-.04,.03-.08,.05-.12,.08Zm-.17,.11s.09-.06,.13-.09c-.04,.03-.09,.06-.13,.09Zm-.18,.12s.1-.07,.15-.1c-.05,.03-.1,.07-.15,.1Zm-.35,.24c.11-.08,.22-.15,.33-.23-.11,.08-.22,.15-.33,.23Zm-4.46,1.21c-.6,1.07-.91,2.06-.45,2.8,2.52-.29,4.14-1.57,4.79-3.93,.04-.03,.08-.05,.11-.08-1.04,.72-2.07,1.52-3.11,2.35l-1.35-1.14Zm-1.94,3.1c.34-1.31,.71-2.58,1.11-3.8l-2.61-2.21-.3,.07-.19,.05h-.03l-.4,.1h-.05l-.14,.05h-.06l-.14,.05-.1,.02-.09,.02-.11,.03h-.02l-1.31,.32h0l-.2,.05-.04,.03-.04,.03-.04,.03m15.66-1.68c-1.51,6.84-5.55,10.1-11.53,10.62-4.86,.11-7.4-3.52-5.43-8.19l-1.1,.64,2.4-1.4-.13,.08c-1.04,4.45,.14,7,3.88,7.35,6.81-.7,10.03-3.97,11.15-8.75,.26-.12,.51-.24,.77-.35Zm2.33-.77s-.08,.02-.12,.03c.04,0,.08-.02,.12-.03Zm.19-.04s-.1,.02-.15,.03c.05-.01,.1-.02,.15-.03Zm.15-.03s-.09,.02-.13,.03c.05,0,.09-.02,.13-.03Zm.18-.03s-.09,.02-.14,.03c.04,0,.09-.02,.14-.03Zm-23.98,14.55c.14,.58,.31,1.17,.51,1.77l.38,.74c2.27,1.98,5.22,3.16,9.4,2.87,8.46-1.57,12.38-9.06,13.71-19.94,.14-.03,.29-.05,.43-.07-1.26,11.82-5.59,20.14-15.9,21.12-3.32-.23-5.8-1.63-7.71-3.84-.34-.92-.61-1.8-.82-2.66Zm-.06-.24c.02,.06,.03,.12,.04,.19-.02-.06-.03-.12-.04-.19Zm-.05-.23c.01,.06,.03,.11,.04,.17-.01-.06-.03-.11-.04-.17Zm-.05-.23c0,.05,.02,.1,.03,.15-.01-.05-.02-.1-.03-.15Zm-.05-.24s.02,.1,.03,.14c0-.05-.02-.1-.03-.14Zm-.04-.23s.02,.09,.03,.14c0-.05-.02-.09-.03-.14Zm-.04-.23l.02,.13-.02-.13Zm23.37-12.76c-1.64,10.79-5.63,17.42-12.78,18.42-3.71,.42-7.35,.14-10.45-5.75h-.16c-.59-3.72,.27-6.77,3.06-8.91-.95,5.08,1.24,7.99,6.91,8.47,8.23-1.28,11.52-5.93,12.51-12.13h0c.38-.13,.77-.24,1.16-.34l-.25,.23Zm7.78-5.27h1.21v.92h-3.31c-4.83-.61-8.39-1.35-15.09-5.28-1.58,2.03-2.82,3.51-5.98,5.56,2.57,1.96,3.52,2.92,6.09,4.89,5.84-3.92,11.52-4.56,14.94-4.86h3.35v.92h-.95l-.02,.02c-.09,0-.18,0-.27,0h-.03c-.07,0-.15,0-.22,0h-.11s-.08,0-.12,0h-.02c-.06,0-.11,0-.17,0h-.04l-.94,.06h0c-.07,0-.15,0-.22,.01h-.07c-.06,0-.12,.02-.19,.02h-.09c-.05,.01-.11,.02-.17,.02h-.06c-.07,.01-.13,.02-.2,.02h-.05c-.07,.01-.14,.02-.21,.03h-.03c-.33,.04-.66,.08-.99,.12h0c-.07,0-.14,.02-.21,.03h-.05c-.07,.02-.13,.03-.2,.04h-.07c-.06,.02-.13,.03-.19,.04h-.07c-.06,.02-.13,.03-.19,.04h-.07c-.06,.02-.13,.03-.19,.04h-.07c-.06,.02-.13,.03-.19,.05h-.05c-.3,.06-.61,.12-.91,.19h-.06l-.18,.05s-.06,.01-.09,.02c-.06,.01-.11,.02-.17,.04-.03,0-.06,.02-.1,.02-.05,.01-.11,.03-.16,.04l-.1,.02c-.05,.01-.11,.03-.16,.04-.03,0-.06,.02-.1,.02-.06,.01-.11,.03-.17,.04-.03,0-.05,.01-.08,.02-.06,.01-.12,.03-.18,.04-.02,0-.03,0-.05,.01-.2,.05-.41,.11-.61,.17-.04,.01-.07,.02-.1,.03-.05,.01-.1,.03-.15,.04-.04,.01-.08,.02-.12,.03-.05,.01-.1,.03-.15,.04-.04,.01-.08,.02-.11,.03-.05,.02-.1,.03-.14,.04-.04,.01-.08,.02-.12,.04-.05,.01-.09,.03-.14,.04-.04,.01-.08,.03-.12,.04-.04,.01-.09,.03-.14,.04-.04,.01-.08,.03-.12,.04l-.14,.05s-.08,.03-.12,.04c-.04,.02-.09,.03-.13,.05-.06,.02-.12,.04-.18,.06s-.12,.04-.17,.06c-.05,.02-.1,.04-.15,.05-.04,.01-.08,.03-.12,.04-.04,.02-.09,.03-.14,.05-.04,.02-.08,.03-.12,.05-.04,.02-.09,.03-.13,.05-.04,.02-.09,.03-.13,.05-.04,.02-.09,.03-.13,.05-.04,.02-.08,.03-.12,.05-.04,.02-.09,.04-.13,.06-.04,.02-.08,.03-.12,.05-.05,.02-.1,.04-.14,.06-.04,.02-.08,.03-.11,.05-.05,.02-.1,.04-.15,.07-.04,.01-.07,.03-.1,.04-.07,.03-.14,.06-.21,.09l-.04,.02c-.08,.04-.17,.07-.25,.11-.03,.01-.06,.03-.1,.04-.05,.02-.1,.05-.15,.07-.04,.02-.07,.03-.11,.05l-.14,.07s-.07,.03-.11,.05c-.05,.02-.1,.05-.14,.07-.04,.02-.07,.04-.11,.05-.05,.02-.1,.05-.14,.07-.04,.02-.07,.04-.11,.05-.05,.02-.1,.05-.14,.08-.04,.02-.07,.03-.1,.05-.05,.03-.1,.05-.15,.08-.03,.02-.06,.03-.09,.05-.06,.03-.12,.06-.18,.1-.02,.01-.04,.02-.06,.03-.08,.04-.16,.09-.24,.13-.02,.01-.04,.02-.06,.03-.06,.03-.12,.07-.18,.1-.03,.02-.06,.03-.09,.05-.05,.03-.1,.06-.15,.09l-.1,.06s-.09,.06-.14,.08c-.03,.02-.07,.04-.1,.06-.05,.03-.09,.06-.14,.08-.03,.02-.07,.04-.1,.06-.05,.03-.09,.06-.14,.09-.03,.02-.06,.04-.1,.06-.05,.03-.1,.06-.15,.09-.03,.02-.06,.04-.09,.06-.05,.03-.1,.07-.15,.1-.03,.02-.05,.04-.08,.05-.08,.05-.16,.1-.23,.15-2.77-2.11-5.12-4.18-7.89-6.3,2.15-.81,4.53-2.9,7.62-6.65,.07,.05,.14,.11,.22,.16,.02,.02,.05,.03,.07,.05,.05,.04,.1,.07,.15,.11,.03,.02,.06,.04,.09,.06l.13,.09s.06,.04,.1,.07c.04,.03,.08,.06,.12,.08,.03,.02,.07,.04,.1,.07,.04,.03,.08,.06,.13,.08,.03,.02,.06,.04,.1,.06,.04,.03,.09,.06,.13,.08,.03,.02,.06,.04,.1,.06,.05,.03,.09,.06,.13,.08,.03,.02,.06,.04,.1,.06,.05,.03,.1,.06,.14,.09,.03,.02,.06,.04,.09,.05,.06,.04,.12,.07,.18,.11,.02,.01,.03,.02,.05,.03,.08,.04,.15,.09,.23,.13,.02,.01,.05,.03,.07,.04,.05,.03,.11,.06,.16,.09,.03,.02,.06,.03,.1,.05,.04,.03,.09,.05,.14,.08,.03,.02,.07,.04,.1,.06,.05,.02,.09,.05,.13,.07,.04,.02,.07,.04,.11,.06,.04,.02,.09,.04,.13,.07,.04,.02,.07,.04,.11,.06,.04,.02,.09,.04,.13,.07,.04,.02,.07,.04,.11,.05,.04,.02,.09,.05,.13,.07,.04,.02,.07,.03,.11,.05,.04,.02,.09,.04,.13,.07,.04,.02,.07,.03,.11,.05,.05,.02,.1,.04,.14,.07,.04,.02,.07,.03,.1,.05,.07,.03,.14,.06,.21,.09,.04,.02,.09,.04,.13,.06,.05,.02,.1,.04,.15,.07,.04,.02,.08,.03,.11,.05l.13,.06s.08,.03,.12,.05c.04,.02,.09,.04,.13,.05,.04,.02,.08,.04,.13,.05,.04,.02,.08,.03,.12,.05,.04,.02,.08,.03,.13,.05,.04,.02,.08,.03,.12,.05,.04,.02,.09,.03,.13,.05,.04,.02,.08,.03,.12,.05,.04,.02,.09,.03,.13,.05,.04,.02,.08,.03,.12,.04,.04,.02,.09,.03,.14,.05,.04,.01,.08,.03,.12,.04,.05,.02,.1,.04,.14,.05,.03,.01,.07,.02,.1,.04,.11,.04,.21,.07,.31,.11,.03,0,.05,.02,.08,.03,.05,.02,.1,.03,.15,.05,.04,.01,.07,.02,.11,.04,.05,.02,.1,.03,.15,.05,.04,.01,.08,.02,.11,.04,.05,.02,.1,.03,.15,.05,.04,.01,.07,.02,.11,.03l.15,.05s.07,.02,.11,.03c.05,.02,.1,.03,.15,.05,.04,.01,.07,.02,.11,.03,.05,.02,.11,.03,.16,.05,.03,0,.06,.02,.1,.03,.05,.02,.11,.03,.16,.05l.1,.03c.06,.02,.12,.03,.17,.05,.02,0,.04,.01,.07,.02,.22,.06,.44,.11,.66,.17,.02,0,.04,.01,.06,.02,.06,.01,.12,.03,.19,.04,.03,0,.06,.01,.09,.02,.06,.01,.12,.03,.18,.04l.09,.02c.06,.01,.12,.03,.18,.04l.09,.02c.06,.01,.12,.03,.18,.04l.1,.02c.06,.01,.12,.02,.18,.04l.09,.02c.06,.01,.12,.03,.19,.04h.07l.2,.05h.05c.33,.07,.65,.13,.98,.18h.05c.07,.02,.14,.03,.21,.04h.07c.07,.02,.13,.03,.2,.04h.08c.06,.02,.13,.03,.2,.04h.08c.07,.02,.13,.03,.2,.04h.08c.07,.02,.13,.03,.2,.04h.07c.07,.02,.14,.03,.21,.03h.04c.3,.04,.6,.07,.9,.1h.15v.02h0l.85,.07h.02c.07,0,.13,.01,.2,.02,.04,0,.09,0,.13,0h.13c.08,.01,.16,.02,.24,.02h.03c.07,0,.13,0,.2,.01Zm-2.57,2.79l1.7-.11h.15l1.21-.09h0c.17-.02,.73-.1,.71-.05v12.2c-.67,3.06-1.76,5.97-3.9,9.93,1.44,.92,2.75,2.24,3.9,4.04v1.22l-.05,.05c-1.31-2.1-2.86-3.85-4.94-5.38,1.46-1.61,2.34-3.62,2.88-5.8-.83,2.27-2.04,4.32-3.59,6.17,2.25,1.48,4.11,3.53,5.7,5.98v1.16c-1.79-2.78-4.07-5.17-7.04-6.99,4.12-4.55,6.29-12.63,6.34-21.62l-1.15,.04h0v.04h0v.06h0v.03h0v.03h0v.05h0v.02h0v.04h0v.03h0v.06h0v.03h0v.09h0v.06c-.41,10.41-3.41,16.18-6.57,21.66,3.72,2.61,6.47,5.5,8.39,8.62v1.67c-2.44-4.11-5.72-7.48-9.73-10.21,4.33-5.6,6.46-12.93,6.88-21.58v-.05h0v-.05h0v-.05h0v-.04h0v-.05h0v-.04h0v-.05h0v-.04h0v-.05h0v-.04h0v-.05h0v-.04h0v-.02l-.95,.17c-.44,8.81-2.9,16.1-7.11,22.06,4.68,3.03,8.43,6.86,10.76,11.88h.17v4.06h-.02c-3.83-7.49-8.84-12.44-14.9-15.13,.93-1.07,1.86-2.14,2.79-3.21-8.24,6.16-15.25,6.87-20.65,.42-4.57-8.05-2.39-15.2,6.9-19.07-2.04-1.55-4.09-3.11-6.13-4.66,1.99-.75,3.98-1.5,5.98-2.26-.98-.61-1.96-1.21-2.94-1.82-7.82,3.15-15.19,2.09-22.23-2.02-12.88-9.14-14.85-25.99-5.37-35.33,11.21-11.82,32.54-8.13,43.61,10.56-3.09-9.64-7.56-17.53-12.18-25.25,11.45-9.11,19.27-21.71,23.01-38.2,.5-1.29,.78-3.59,2.11-3.87v5.7l-.17-.02c-3.49,14.34-9.36,27.45-21.82,37.15,10.68,17.2,14.27,34.01,18.03,50.83,.07,.91,.12,1.81,.16,2.7l.7-.03c-.25-3.61-.69-7.31-1.38-11.12v-.02c-.05-.24-.09-.48-.14-.72v-.06c-.05-.23-.1-.47-.15-.7l-.02-.08c-.04-.23-.09-.46-.14-.69l-.02-.08c-.05-.23-.1-.46-.15-.69l-.02-.09c-.05-.23-.1-.46-.15-.69l-.02-.08c-.05-.23-.11-.47-.16-.7l-.02-.08c-.05-.24-.11-.48-.17-.72v-.05c-.5-2.06-1.07-4.14-1.71-6.27,0-.03-.02-.05-.03-.08-.07-.22-.13-.44-.2-.66-.02-.06-.04-.12-.05-.17-.06-.2-.13-.41-.19-.61-.03-.08-.05-.15-.07-.23-.06-.19-.12-.39-.19-.58-.03-.09-.06-.18-.09-.26-.06-.19-.12-.37-.19-.56-.03-.09-.06-.19-.1-.28-.06-.18-.12-.37-.19-.55-.04-.1-.07-.2-.1-.3-.06-.18-.13-.36-.19-.54-.04-.1-.07-.21-.11-.31-.06-.18-.13-.36-.19-.53-.04-.11-.08-.22-.12-.33-.06-.18-.13-.35-.19-.53-.04-.11-.08-.22-.12-.33-.07-.18-.13-.35-.2-.53-.04-.11-.08-.23-.13-.34-.07-.18-.13-.35-.2-.53-.04-.11-.09-.23-.13-.34-.07-.18-.14-.35-.21-.53-.04-.11-.09-.23-.14-.34-.07-.18-.14-.36-.21-.54-.04-.11-.09-.22-.13-.33-.08-.19-.15-.37-.23-.56-.04-.1-.09-.21-.13-.31-.08-.19-.16-.38-.24-.57-.04-.1-.08-.2-.12-.29-.28-.66-.57-1.32-.86-1.99-.05-.12-.11-.25-.16-.37-.07-.17-.15-.33-.22-.5-.06-.14-.12-.27-.19-.41-.07-.16-.15-.32-.22-.48-.07-.14-.13-.29-.2-.43-.07-.15-.14-.31-.22-.47-.07-.15-.14-.3-.21-.45-.07-.15-.14-.3-.21-.46-.07-.16-.15-.31-.22-.47-.07-.15-.15-.3-.22-.45-.08-.16-.15-.32-.23-.48-.07-.15-.15-.3-.22-.45-.08-.16-.16-.32-.24-.48-.08-.15-.15-.3-.23-.45-.08-.16-.16-.32-.24-.48-.08-.15-.15-.3-.23-.46-.08-.16-.17-.32-.25-.49-.08-.15-.16-.3-.23-.45-.09-.17-.17-.33-.26-.5-.08-.15-.16-.3-.24-.45-.09-.17-.18-.33-.26-.5-.08-.15-.16-.3-.24-.45-.09-.17-.18-.34-.28-.51-.08-.15-.16-.3-.24-.45-.1-.18-.19-.35-.29-.53-.08-.14-.16-.29-.24-.43-.1-.18-.21-.37-.31-.56-.08-.14-.15-.27-.23-.41-.11-.19-.22-.39-.32-.58-.08-.13-.15-.27-.23-.4-.12-.21-.24-.43-.37-.64-.06-.11-.13-.23-.19-.34-.19-.33-.38-.66-.57-.99,9.57-8.14,16.3-20.23,20.79-34.19v3.4c-6.78,17.79-13.14,26.06-19.36,31.16,.21,.37,.43,.74,.63,1.11,.07,.12,.13,.24,.2,.36,.14,.25,.28,.5,.42,.74,.08,.14,.15,.28,.23,.42,.12,.23,.25,.45,.37,.67,.08,.15,.16,.3,.24,.45,.12,.21,.23,.42,.34,.64,.08,.15,.17,.31,.25,.46,.11,.2,.22,.41,.33,.61,.08,.16,.16,.31,.24,.47,.11,.2,.21,.4,.31,.6,.08,.16,.16,.31,.24,.47,.1,.2,.2,.4,.3,.59l.23,.46c.1,.2,.2,.39,.29,.59,.08,.15,.15,.31,.23,.46,.1,.2,.19,.39,.29,.59,.07,.15,.14,.3,.21,.44,.1,.2,.19,.4,.29,.6,.07,.14,.13,.29,.2,.43,.1,.2,.19,.41,.29,.61,.06,.14,.13,.27,.19,.41,.1,.22,.2,.43,.29,.64,.06,.12,.11,.24,.17,.36,.11,.25,.22,.5,.33,.75,.04,.08,.07,.17,.11,.25,.15,.33,.29,.67,.44,1,.02,.05,.04,.1,.06,.14,.12,.28,.24,.56,.36,.84,.04,.11,.09,.21,.13,.32,.09,.22,.19,.44,.28,.65,.05,.12,.1,.24,.15,.37,.08,.2,.16,.4,.24,.6,.05,.13,.11,.26,.16,.39,.08,.19,.15,.38,.23,.57,.05,.13,.1,.26,.15,.4,.07,.18,.14,.37,.21,.55,.05,.13,.1,.27,.15,.4,.07,.18,.14,.36,.21,.54,.05,.14,.1,.27,.15,.4,.07,.18,.13,.35,.2,.53,.05,.13,.1,.27,.14,.4,.06,.18,.13,.35,.19,.53l.14,.4c.06,.18,.12,.35,.18,.53,.04,.13,.09,.26,.13,.38,.06,.18,.12,.36,.18,.53,.04,.12,.08,.25,.12,.37,.06,.19,.12,.37,.18,.55,.04,.11,.08,.23,.11,.34,.06,.2,.13,.39,.19,.59,.03,.1,.06,.2,.1,.3,.08,.24,.15,.48,.23,.72,.02,.05,.03,.1,.05,.15,.09,.29,.18,.58,.26,.87,.02,.07,.04,.14,.06,.2,.07,.22,.13,.44,.2,.65,.03,.1,.06,.2,.09,.31,.05,.18,.1,.36,.15,.54,.03,.11,.06,.23,.1,.34,.05,.17,.09,.33,.14,.5,.03,.12,.07,.24,.1,.36,.04,.16,.09,.32,.13,.47,.03,.12,.06,.25,.1,.37,.04,.15,.08,.3,.12,.46,.03,.12,.06,.25,.1,.37,.04,.15,.08,.3,.11,.45,.03,.12,.06,.25,.09,.37,.04,.15,.07,.29,.11,.43,.03,.13,.06,.25,.09,.37,.03,.14,.07,.29,.1,.43,.03,.12,.06,.25,.09,.37,.03,.14,.06,.28,.1,.42,.03,.12,.06,.25,.08,.37,.03,.14,.06,.27,.09,.41,.03,.12,.05,.25,.08,.37,.03,.14,.06,.27,.09,.4,.03,.12,.05,.25,.08,.37,.03,.13,.05,.27,.08,.4,.02,.12,.05,.24,.07,.37,.03,.12,.05,.24,.07,.37,.06,.29,.11,.58,.17,.87,.02,.08,.03,.16,.04,.24,.03,.15,.05,.29,.08,.43,.02,.1,.04,.2,.06,.3,.03,.14,.05,.29,.08,.43,.02,.1,.04,.2,.05,.3,.02,.14,.05,.28,.07,.42,.02,.1,.03,.2,.05,.3,.02,.14,.05,.28,.07,.42,.01,.1,.03,.19,.04,.29,.02,.14,.05,.29,.07,.43,.01,.09,.03,.18,.04,.27,.02,.14,.04,.29,.07,.43,.01,.09,.03,.17,.04,.26,.02,.15,.04,.29,.06,.44,.01,.08,.02,.17,.04,.25,.02,.14,.04,.29,.06,.43,.01,.08,.02,.16,.03,.24,.02,.15,.04,.3,.06,.45,0,.07,.02,.14,.03,.21,.02,.16,.04,.31,.06,.47,0,.06,.01,.11,.02,.17,.02,.17,.04,.34,.06,.5v.09c.22,1.68,.38,3.28,.53,4.82l1.86-.07c-1.98-16.9-4.14-33.83-14.97-52.04,6.37-5.33,11.62-13.13,15.41-24.19v2.38c-3.21,8.69-7.49,16.4-14.07,21.96,6.74,10.63,8.95,22.45,12.25,33.99-2.27-11.63-5.43-23.03-10.91-33.84,5.85-4.56,9.5-12.23,12.72-20.52v1.93c-1.83,5.08-4.09,9.36-6.71,12.96,1.79-1.58,4.14-2.54,6.71-2.56v.79c-5.21,.03-9.42,4.28-9.42,9.53s4.21,9.5,9.42,9.53v.79c-3.69-.02-6.92-2-8.71-4.95,5.88,14.77,8.25,26.79,8.71,37.32v7.99c0,.15-.01,.29-.02,.44l-2.17-.23-.84-.09-.49-.05-.24-.03v.07c-5.65-.71-10.77-2.42-15.08-5.69-3.34,4.18-6.05,6.31-8.37,7.22,2.99,2.36,5.98,4.71,8.97,7.07,4.51-3.12,9.38-4.65,14.47-5.19Zm-8.22,10.97c-2.38,2.25-5.2,4.16-10.01,4.6-3.75,.18-6.29-1.42-7.59-4.83-1.43,2.13,.3,9.06,7.05,8.54,5.75-.58,8.77-3.84,10.55-8.32Z"/></clipPath><linearGradient id="linear-gradient" x1="-5229.52" y1="2698.89" x2="-5229.38" y2="2698.89" gradientTransform="translate(-4244342.14 1667681.85) rotate(-180) scale(811.64 617.89)" gradientUnits="userSpaceOnUse"><stop offset="0" stop-color="#bf892c"/><stop offset=".18" stop-color="#d1952a"/><stop offset=".47" stop-color="#fff7b1"/><stop offset=".55" stop-color="#ffcd2b"/><stop offset=".65" stop-color="#d1952a"/><stop offset="1" stop-color="#fef48c"/></linearGradient><clipPath id="clippath-1"><path class="cls-4" d="M141.84,97.51c1.33-.9,2.66-1.8,3.99-2.7,1.66,1.8,3.32,3.6,4.97,5.4,.25-1.51,.5-3.01,.76-4.52-2.02-3.9-7.62-2.45-9.72,1.81m-.46-4.42h0c-.12-11.28,4.38-20.77,13.02-28.67-9.6,6.96-16.25,18.49-18.8,36.37l1.63-.51c.97-3.07,2.28-5.6,4.16-7.19Zm-6.84,8.04c1.6-16.14,11.79-40.94,31.7-41.11,13.15,.71,22.08,11.2,16.67,26.19-3,7.15-9.93,11.35-20.54,13.26,11.02,.97,18.29-3.89,22.84-14.01,4.56-13.18-1.39-24.33-15.42-27.02-8.45-.69-16.13,2.07-22.82,9.33-7.31,7.78-11.34,19.25-12.89,33.5l.46-.15Zm21.59-5.09c-.22-3.87-4.77-7.12-10.55-4.74h0c6.29-.86,8.71,1.8,8.2,7.1,.78-.79,1.56-1.58,2.35-2.37Zm-13.63-4.13c3.52-2.52,10.6-5,14.75,2.89,3.02-6.1,1.74-11.91-3.69-13.11-3.92-1.2-7.37,1.63-10.58,6.47l-.1-.12-.38,3.86Zm16.57-9.74c9.15-.24,7.13,12.93-.47,14.89,2.91-4.34,3.82-9.13,.47-14.89Zm-6.46-2.1c4.91-2.29,9.09-2.15,12.64,.08,4.66,4.08,4.4,8.84,2.37,13.83-1.31,2.62-3.62,4.57-6.61,4.76,5.67-3.31,6.94-8.32,6.05-13.61-1.38-5.9-8.76-5.75-14.45-5.07Zm-2.92-1.32h0c1.87-8.6,5.09-16.17,18.55-15.94,9.82,1.88,13.21,9.1,11.43,20.62-2.12,6.91-7.1,10.33-12.2,13.61l-.18,.17c5.75-1.79,11.44-4.96,14.63-11.16,4.12-14.11-1.8-23.6-15.68-25.06-11.93-.07-22.26,14.52-23.2,25.39,1.52-2.19,3.56-4.16,6.28-5.87,.12-.59,.24-1.18,.37-1.76Zm12.27-.96c-.16-.08-.32-.16-.48-.24-4.81-1.76-8.03-.66-10.7,1.44-.03,.24-.06,.47-.09,.71,4.12-1.81,7.92-2.61,11.27-1.91Zm8.01,16.45c1.32-3.4,1.72-6.83-.56-10.32h0c1.02,4.26,.42,8.18-1.7,11.78l-.02,.04,.11-.09c.74-.46,1.46-.93,2.17-1.41Zm9.03-18.92c-1.73,5.22-5.36,6.81-9.79,6.84,2.41,2.37,3.44,5.82,2.09,11.13,3.29-2.46,6.1-5.46,7.48-10.08,.4-2.8,.5-5.47,.22-7.89Zm-28.05,2.58c2.76-2.17,6.29-2.96,11.08-1.46-1.65-7.13,2.21-11.69,8.07-12.03l1.78,.25c-1.14-.48-2.43-.83-3.88-1.02-10.05-.33-15.53,5.53-17.05,14.26Zm19.52-11.45c3.53,0,6.38,2.87,6.38,6.42s-2.86,6.42-6.38,6.42-6.38-2.88-6.38-6.42,2.86-6.42,6.38-6.42Zm0-.69c3.9,0,7.07,3.18,7.07,7.11s-3.16,7.11-7.07,7.11-7.07-3.18-7.07-7.11,3.16-7.11,7.07-7.11Zm-.06-.55c4.32,0,7.81,3.52,7.81,7.86s-3.5,7.86-7.81,7.86-7.81-3.52-7.81-7.86,3.5-7.86,7.81-7.86Zm-28.4,56.35c4.85,2.47,9.44,2.78,13.6-.6-.75,2.47-2.46,4.15-6.12,4.23-4.29-.43-6.18-1.9-7.48-3.63Zm-2.24-16.54l4.93-2.41,3.14,2.41-2.99,2.71-5.08-2.71Zm-13.02-40.78c1.68,.03,3.51-.42,5.7-1.94-2.44,6.8-4.37,13.95-5.7,21.5v-4.63c.99-5.13,2.49-10.19,4.35-15.22-1.42,.85-2.86,1.01-4.35,.91v-.63Zm0-20.56c4.93,.03,8.93,4.06,8.93,9.03s-3.99,9-8.93,9.03v-.84c4.47-.03,8.09-3.68,8.09-8.19s-3.62-8.16-8.09-8.19v-.84Zm9.93,11.41c.6-1.43,1.23-2.89,1.9-4.37-.99-.92-1.95-1.9-2.87-2.96,.8,1.47,1.25,3.15,1.25,4.94,0,.82-.1,1.62-.28,2.39Zm.7,50.08l7.32-3.61,4.63,3.46-4.48,3.76-7.47-3.61Zm1.21,5.13h-.02l-.09-.05s.07,.03,.11,.05Zm2.02,1.11s-.06-.03-.08-.05c.03,.02,.06,.03,.08,.05Zm.17,.11s-.06-.04-.09-.06c.03,.02,.06,.04,.09,.06Zm.17,.11l-.1-.06,.1,.06Zm.17,.11s-.07-.05-.11-.07c.04,.02,.07,.05,.11,.07Zm.16,.11s-.07-.04-.1-.07c.04,.02,.07,.04,.1,.07Zm.19,.12s-.08-.05-.12-.08c.04,.03,.08,.05,.12,.08Zm.17,.11s-.09-.06-.13-.09c.04,.03,.09,.06,.13,.09Zm.18,.12s-.1-.07-.15-.1c.05,.03,.1,.07,.15,.1Zm.35,.24c-.11-.08-.22-.15-.33-.23,.11,.08,.22,.15,.33,.23Zm4.46,1.21c.6,1.07,.91,2.06,.44,2.8-2.52-.29-4.14-1.57-4.79-3.93-.04-.03-.07-.05-.11-.08,1.04,.72,2.07,1.52,3.11,2.35l1.35-1.14Zm1.94,3.1c-.34-1.31-.71-2.58-1.11-3.8l2.61-2.21,.3,.07,.19,.05h.03l.4,.1h.05l.14,.05h.05l.14,.05,.09,.02,.09,.02,.11,.03h.03l1.31,.32h0l.2,.05,.04,.03,.04,.03,.04,.03m-15.66-1.68c1.51,6.84,5.55,10.1,11.53,10.62,4.86,.11,7.4-3.52,5.43-8.19l1.1,.64-2.39-1.4,.13,.08c1.04,4.45-.14,7-3.88,7.35-6.81-.7-10.03-3.97-11.15-8.75-.26-.12-.51-.24-.77-.35Zm-2.33-.77s.08,.02,.12,.03c-.04,0-.08-.02-.12-.03Zm-.19-.04s.1,.02,.14,.03c-.05-.01-.1-.02-.14-.03Zm-.16-.03s.09,.02,.14,.03c-.04,0-.09-.02-.14-.03Zm-.18-.03s.09,.02,.13,.03c-.04,0-.09-.02-.13-.03Zm23.98,14.55c-.14,.58-.31,1.17-.51,1.77l-.38,.74c-2.27,1.98-5.22,3.16-9.4,2.87-8.46-1.57-12.38-9.06-13.71-19.94-.14-.03-.29-.05-.43-.07,1.26,11.82,5.59,20.14,15.9,21.12,3.32-.23,5.8-1.63,7.71-3.84,.34-.92,.61-1.8,.82-2.66Zm.05-.24c-.01,.06-.03,.12-.04,.19,.02-.06,.03-.12,.04-.19Zm.05-.23c-.01,.06-.03,.11-.04,.17,.01-.06,.03-.11,.04-.17Zm.05-.23c-.01,.05-.02,.1-.03,.15,.01-.05,.02-.1,.03-.15Zm.05-.24l-.03,.14,.03-.14Zm.04-.23s-.02,.09-.03,.14c0-.05,.02-.09,.03-.14Zm.04-.23s-.02,.09-.02,.13c0-.04,.01-.09,.02-.13Zm-23.37-12.76c1.64,10.79,5.63,17.42,12.78,18.42,3.71,.42,7.35,.14,10.45-5.75h.16c.59-3.72-.27-6.77-3.06-8.91,.95,5.08-1.24,7.99-6.91,8.47-8.23-1.28-11.52-5.93-12.51-12.13h0c-.38-.13-.77-.24-1.15-.34l.25,.23Zm-7.78-5.27h-1.21v.92h3.31c4.83-.61,8.38-1.35,15.09-5.28,1.57,2.03,2.82,3.51,5.98,5.56-2.57,1.96-3.52,2.92-6.09,4.89-5.84-3.92-11.52-4.56-14.94-4.86h-3.35v.92h.96l.02,.02c.09,0,.18,0,.27,0h.03c.07,0,.15,0,.22,0h.11s.08,0,.12,0h.02c.06,0,.11,0,.17,0h.04l.94,.06h0c.07,0,.15,0,.22,.01h.07c.06,0,.13,.02,.19,.02h.09c.06,.01,.11,.02,.17,.02h.06c.07,.01,.13,.02,.2,.02h.05c.07,.01,.14,.02,.21,.03h.03c.33,.04,.66,.08,.99,.12h0c.07,0,.14,.02,.21,.03h.05c.07,.02,.13,.03,.2,.04h.07c.06,.02,.13,.03,.19,.04h.07c.06,.02,.13,.03,.19,.04h.07l.19,.04h.07c.06,.02,.13,.03,.19,.05h.05c.31,.06,.61,.12,.91,.19h.06c.06,.03,.12,.04,.18,.05,.03,0,.06,.01,.09,.02,.06,.01,.11,.02,.17,.04,.03,0,.06,.02,.1,.02,.05,.01,.11,.03,.16,.04,.04,0,.07,.02,.1,.02,.05,.01,.11,.03,.16,.04l.1,.02,.17,.04,.08,.02c.06,.01,.12,.03,.18,.04,.02,0,.03,0,.05,.01,.2,.05,.41,.11,.61,.17,.04,.01,.07,.02,.11,.03,.05,.01,.1,.03,.15,.04,.04,.01,.08,.02,.11,.03l.15,.04s.07,.02,.11,.03c.05,.02,.1,.03,.14,.04,.04,.01,.08,.02,.12,.04,.05,.01,.09,.03,.14,.04,.04,.01,.08,.03,.12,.04,.04,.01,.09,.03,.13,.04,.04,.01,.09,.03,.12,.04,.05,.02,.09,.03,.13,.05,.04,.01,.08,.03,.12,.04,.05,.02,.09,.03,.13,.05,.06,.02,.12,.04,.18,.06,.06,.02,.12,.04,.17,.06,.05,.02,.1,.04,.15,.05,.04,.01,.08,.03,.12,.04,.05,.02,.09,.03,.14,.05,.04,.02,.08,.03,.12,.05,.04,.02,.09,.03,.13,.05,.04,.02,.09,.03,.13,.05,.04,.02,.09,.03,.13,.05,.04,.02,.08,.03,.12,.05,.04,.02,.09,.04,.13,.06,.04,.02,.08,.03,.12,.05,.05,.02,.09,.04,.14,.06,.04,.02,.07,.03,.11,.05,.05,.02,.1,.04,.15,.07,.03,.01,.07,.03,.1,.04,.07,.03,.14,.06,.21,.09l.04,.02c.08,.04,.16,.07,.25,.11,.03,.01,.06,.03,.1,.04,.05,.02,.1,.05,.15,.07l.11,.05,.14,.07s.07,.03,.11,.05c.05,.02,.1,.05,.14,.07,.04,.02,.07,.04,.11,.05,.05,.02,.1,.05,.14,.07,.04,.02,.07,.04,.11,.05,.05,.02,.1,.05,.14,.08,.04,.02,.07,.03,.1,.05,.05,.03,.1,.05,.15,.08,.03,.02,.06,.03,.09,.05,.06,.03,.12,.06,.18,.1,.02,.01,.04,.02,.07,.03,.08,.04,.16,.09,.24,.13,.02,.01,.04,.02,.06,.03,.06,.03,.12,.07,.18,.1,.03,.02,.06,.03,.09,.05,.05,.03,.1,.06,.15,.09l.1,.06s.09,.06,.14,.08c.03,.02,.07,.04,.1,.06,.04,.03,.09,.06,.14,.08,.03,.02,.07,.04,.1,.06,.05,.03,.09,.06,.14,.09,.03,.02,.06,.04,.1,.06,.05,.03,.1,.06,.15,.09,.03,.02,.06,.04,.09,.06,.05,.03,.1,.07,.16,.1,.03,.02,.05,.04,.08,.05,.08,.05,.16,.1,.23,.15,2.76-2.11,5.12-4.18,7.89-6.3-2.15-.81-4.53-2.9-7.62-6.65-.07,.05-.15,.11-.22,.16-.02,.02-.05,.03-.07,.05-.05,.04-.1,.07-.15,.11-.03,.02-.06,.04-.09,.06-.04,.03-.09,.06-.13,.09-.03,.02-.06,.04-.1,.07-.04,.03-.08,.06-.13,.08-.03,.02-.07,.04-.1,.07-.04,.03-.08,.06-.13,.08-.03,.02-.06,.04-.1,.06-.04,.03-.09,.06-.13,.08l-.1,.06s-.09,.06-.13,.08c-.03,.02-.06,.04-.1,.06-.05,.03-.1,.06-.14,.09-.03,.02-.06,.04-.09,.05-.06,.04-.12,.07-.18,.11-.02,.01-.03,.02-.05,.03-.08,.04-.15,.09-.23,.13-.02,.01-.05,.03-.07,.04-.05,.03-.11,.06-.16,.09-.03,.02-.06,.03-.09,.05-.05,.03-.09,.05-.14,.08-.03,.02-.07,.04-.1,.06-.04,.02-.09,.05-.13,.07-.04,.02-.07,.04-.11,.06-.04,.02-.08,.04-.13,.07-.04,.02-.08,.04-.11,.06-.04,.02-.09,.04-.13,.07-.04,.02-.07,.04-.11,.05-.04,.02-.09,.05-.14,.07-.04,.02-.07,.03-.11,.05-.05,.02-.09,.04-.14,.07-.03,.02-.07,.03-.11,.05-.05,.02-.1,.04-.14,.07-.04,.02-.07,.03-.1,.05-.07,.03-.14,.06-.21,.09-.04,.02-.09,.04-.13,.06-.05,.02-.1,.04-.15,.07-.04,.02-.08,.03-.11,.05l-.13,.06s-.08,.03-.12,.05c-.04,.02-.09,.04-.13,.05-.04,.02-.09,.04-.13,.05-.04,.02-.08,.03-.12,.05-.04,.02-.09,.03-.13,.05-.04,.02-.08,.03-.12,.05-.04,.02-.09,.03-.13,.05s-.08,.03-.12,.05c-.04,.02-.09,.03-.13,.05-.04,.02-.08,.03-.12,.04-.05,.02-.09,.03-.14,.05-.04,.01-.08,.03-.11,.04-.05,.02-.1,.04-.14,.05-.03,.01-.07,.02-.1,.04-.1,.04-.21,.07-.31,.11-.03,0-.05,.02-.08,.03-.05,.02-.1,.03-.15,.05-.04,.01-.07,.02-.11,.04-.05,.02-.1,.03-.15,.05-.04,.01-.08,.02-.12,.04-.05,.02-.1,.03-.15,.05-.04,.01-.07,.02-.11,.03l-.15,.05s-.07,.02-.11,.03c-.05,.02-.1,.03-.15,.05-.03,.01-.07,.02-.11,.03-.05,.02-.11,.03-.16,.05-.03,0-.07,.02-.1,.03-.05,.02-.11,.03-.16,.05-.03,0-.06,.02-.09,.03-.06,.02-.12,.03-.17,.05-.02,0-.04,.01-.07,.02-.22,.06-.44,.11-.66,.17-.02,0-.04,.01-.06,.02-.06,.01-.12,.03-.18,.04-.03,0-.06,.01-.09,.02-.06,.01-.12,.03-.18,.04l-.09,.02c-.06,.01-.12,.03-.18,.04l-.09,.02c-.06,.01-.12,.03-.18,.04l-.1,.02c-.06,.01-.12,.02-.18,.04l-.09,.02c-.06,.01-.13,.03-.19,.04h-.07c-.07,.03-.13,.04-.2,.05h-.05c-.32,.07-.65,.13-.98,.18h-.05c-.07,.02-.14,.03-.21,.04h-.07c-.07,.02-.13,.03-.2,.04h-.08c-.07,.02-.13,.03-.2,.04h-.08c-.07,.02-.13,.03-.2,.04h-.08c-.07,.02-.13,.03-.2,.04h-.07c-.07,.02-.14,.03-.21,.03h-.04c-.3,.04-.6,.07-.9,.1h-.15v.02h0l-.85,.07h-.02c-.07,0-.13,.01-.2,.02-.04,0-.09,0-.13,0h-.13c-.08,.01-.16,.02-.24,.02h-.03c-.07,0-.13,0-.2,.01Zm2.57,2.79l-1.71-.11h-.14l-1.21-.09h0c-.17-.02-.73-.1-.71-.05v12.2c.68,3.06,1.76,5.97,3.91,9.93-1.44,.92-2.75,2.24-3.91,4.04v1.22l.05,.05c1.31-2.1,2.86-3.85,4.94-5.38-1.46-1.61-2.34-3.62-2.87-5.8,.83,2.27,2.04,4.32,3.59,6.17-2.24,1.48-4.11,3.53-5.7,5.98v1.16c1.79-2.78,4.07-5.17,7.04-6.99-4.12-4.55-6.29-12.63-6.33-21.62l1.15,.04h0v.04h0v.06h0v.03h0v.03h0v.05h0v.02h0v.04h0v.03h0v.06h0v.03h0v.09h0v.06c.41,10.41,3.41,16.18,6.57,21.66-3.72,2.61-6.47,5.5-8.39,8.62v1.67c2.44-4.11,5.72-7.48,9.73-10.21-4.33-5.6-6.45-12.93-6.87-21.58v-.05h0v-.05h0v-.05h0v-.04h0v-.05h0v-.04h0v-.05h0v-.04h0v-.05h0v-.04h0v-.05h0v-.04h0v-.02l.95,.17c.44,8.81,2.89,16.1,7.11,22.06-4.68,3.03-8.43,6.86-10.76,11.88h-.17v4.06h.02c3.83-7.49,8.84-12.44,14.9-15.13-.93-1.07-1.86-2.14-2.79-3.21,8.24,6.16,15.25,6.87,20.65,.42,4.57-8.05,2.39-15.2-6.9-19.07,2.04-1.55,4.09-3.11,6.13-4.66-1.99-.75-3.99-1.5-5.98-2.26,.98-.61,1.96-1.21,2.94-1.82,7.82,3.15,15.19,2.09,22.23-2.02,12.88-9.14,14.85-25.99,5.37-35.33-11.21-11.82-32.54-8.13-43.61,10.56,3.09-9.64,7.56-17.53,12.18-25.25-11.45-9.11-19.27-21.71-23.01-38.2-.5-1.29-.79-3.59-2.11-3.87v5.7l.17-.02c3.49,14.34,9.35,27.45,21.82,37.15-10.68,17.2-14.27,34.01-18.03,50.83-.07,.91-.12,1.81-.16,2.7l-.7-.03c.25-3.61,.69-7.31,1.38-11.12v-.02c.05-.24,.09-.48,.14-.72v-.06c.05-.23,.1-.47,.15-.7l.02-.08c.04-.23,.09-.46,.14-.69l.02-.08c.05-.23,.1-.46,.14-.69l.02-.09c.05-.23,.1-.46,.15-.69l.02-.08c.05-.23,.11-.47,.16-.7l.02-.08c.05-.24,.11-.48,.17-.72v-.05c.5-2.06,1.07-4.14,1.71-6.27l.02-.08c.07-.22,.13-.44,.21-.66l.05-.17c.06-.2,.13-.41,.19-.61,.03-.08,.05-.15,.07-.23,.06-.19,.12-.39,.19-.58,.03-.09,.06-.18,.08-.26,.06-.19,.12-.37,.19-.56,.03-.09,.06-.19,.09-.28,.06-.18,.12-.37,.19-.55,.03-.1,.07-.2,.1-.3,.06-.18,.13-.36,.19-.54,.04-.1,.07-.21,.11-.31,.06-.18,.13-.36,.19-.53,.04-.11,.08-.22,.12-.33,.06-.18,.13-.35,.19-.53,.04-.11,.08-.22,.12-.33,.06-.18,.13-.35,.2-.53,.04-.11,.09-.23,.13-.34,.07-.18,.13-.35,.2-.53,.04-.11,.09-.23,.13-.34,.07-.18,.14-.35,.21-.53,.05-.11,.09-.23,.14-.34,.07-.18,.14-.36,.21-.54,.04-.11,.09-.22,.13-.33,.08-.19,.15-.37,.23-.56,.04-.1,.09-.21,.13-.31,.08-.19,.16-.38,.24-.57,.04-.1,.08-.2,.12-.29,.28-.66,.57-1.32,.86-1.99,.05-.12,.11-.25,.16-.37,.07-.17,.15-.33,.22-.5,.06-.14,.12-.27,.19-.41,.07-.16,.15-.32,.22-.48,.07-.14,.13-.29,.2-.43,.07-.15,.15-.31,.22-.47,.07-.15,.14-.3,.21-.45,.07-.15,.14-.3,.21-.46,.07-.16,.15-.31,.22-.47,.07-.15,.14-.3,.22-.45,.08-.16,.15-.32,.23-.48,.07-.15,.15-.3,.22-.45,.08-.16,.16-.32,.24-.48,.08-.15,.15-.3,.23-.45,.08-.16,.16-.32,.24-.48,.08-.15,.15-.3,.23-.46,.08-.16,.17-.32,.25-.49,.08-.15,.16-.3,.23-.45,.09-.17,.17-.33,.26-.5,.08-.15,.16-.3,.24-.45,.09-.17,.18-.33,.26-.5,.08-.15,.16-.3,.24-.45,.09-.17,.18-.34,.28-.51,.08-.15,.16-.3,.24-.45,.1-.18,.19-.35,.29-.53,.08-.14,.16-.29,.24-.43,.1-.18,.21-.37,.31-.56,.08-.14,.15-.27,.23-.41,.11-.19,.22-.39,.32-.58,.08-.13,.15-.27,.23-.4,.12-.21,.24-.43,.37-.64,.06-.11,.13-.23,.19-.34,.19-.33,.38-.66,.57-.99-9.57-8.14-16.29-20.23-20.79-34.19v3.4c6.78,17.79,13.14,26.06,19.36,31.16-.21,.37-.43,.74-.63,1.11-.07,.12-.13,.24-.2,.36-.14,.25-.28,.5-.42,.74-.08,.14-.15,.28-.23,.42-.12,.23-.25,.45-.37,.67-.08,.15-.16,.3-.24,.45-.12,.21-.23,.42-.34,.64-.08,.15-.16,.31-.25,.46-.11,.2-.22,.41-.32,.61-.08,.16-.16,.31-.24,.47-.1,.2-.21,.4-.31,.6-.08,.16-.16,.31-.24,.47-.1,.2-.2,.4-.3,.59-.08,.15-.16,.31-.23,.46-.1,.2-.2,.39-.29,.59-.08,.15-.15,.31-.23,.46-.1,.2-.19,.39-.29,.59-.07,.15-.14,.3-.21,.44-.1,.2-.19,.4-.29,.6-.07,.14-.14,.29-.2,.43-.1,.2-.19,.41-.29,.61-.06,.14-.12,.27-.19,.41-.1,.22-.2,.43-.29,.64-.06,.12-.11,.24-.17,.36-.11,.25-.22,.5-.34,.75-.04,.08-.07,.17-.11,.25-.15,.33-.29,.67-.44,1-.02,.05-.04,.1-.06,.14-.12,.28-.24,.56-.36,.84-.05,.11-.09,.21-.14,.32-.09,.22-.18,.44-.27,.65-.05,.12-.1,.24-.15,.37-.08,.2-.16,.4-.24,.6-.05,.13-.1,.26-.15,.39-.08,.19-.15,.38-.23,.57-.05,.13-.1,.26-.16,.4-.07,.18-.14,.37-.21,.55-.05,.13-.1,.27-.15,.4-.07,.18-.14,.36-.21,.54-.05,.14-.1,.27-.15,.4-.07,.18-.13,.35-.2,.53-.05,.13-.1,.27-.15,.4-.06,.18-.13,.35-.19,.53-.05,.13-.09,.26-.14,.4-.06,.18-.12,.35-.19,.53-.04,.13-.09,.26-.13,.38-.06,.18-.12,.36-.18,.53-.04,.12-.08,.25-.12,.37-.06,.19-.12,.37-.19,.55-.04,.11-.07,.23-.11,.34-.06,.2-.13,.39-.19,.59-.03,.1-.06,.2-.1,.3-.08,.24-.15,.48-.22,.72-.02,.05-.03,.1-.05,.15-.09,.29-.18,.58-.27,.87-.02,.07-.04,.14-.06,.2-.07,.22-.13,.44-.19,.65-.03,.1-.06,.2-.09,.31-.05,.18-.1,.36-.15,.54-.03,.11-.06,.23-.1,.34-.05,.17-.09,.33-.14,.5-.03,.12-.06,.24-.1,.36-.04,.16-.09,.32-.13,.47-.03,.12-.06,.25-.1,.37-.04,.15-.08,.3-.12,.46-.03,.12-.06,.25-.1,.37-.04,.15-.08,.3-.11,.45-.03,.12-.06,.25-.09,.37-.04,.15-.07,.29-.11,.43-.03,.13-.06,.25-.09,.37-.03,.14-.07,.29-.1,.43-.03,.12-.06,.25-.09,.37-.03,.14-.06,.28-.09,.42-.03,.12-.06,.25-.08,.37-.03,.14-.06,.27-.09,.41-.03,.12-.05,.25-.08,.37-.03,.14-.06,.27-.09,.4-.03,.12-.05,.25-.08,.37-.03,.13-.05,.27-.08,.4-.02,.12-.05,.24-.07,.37-.02,.12-.05,.24-.07,.37-.06,.29-.11,.58-.17,.87-.01,.08-.03,.16-.04,.24-.03,.15-.05,.29-.08,.43-.02,.1-.04,.2-.05,.3-.03,.14-.05,.29-.08,.43l-.05,.3c-.02,.14-.05,.28-.07,.42-.02,.1-.03,.2-.05,.3-.02,.14-.05,.28-.07,.42-.02,.1-.03,.19-.05,.29-.02,.14-.05,.29-.07,.43-.01,.09-.03,.18-.04,.27-.02,.14-.04,.29-.07,.43-.01,.09-.03,.17-.04,.26l-.06,.44c-.01,.08-.03,.17-.04,.25-.02,.14-.04,.29-.06,.43-.01,.08-.02,.16-.03,.24-.02,.15-.04,.3-.06,.45,0,.07-.02,.14-.03,.21-.02,.16-.04,.31-.06,.47,0,.06-.02,.11-.02,.17-.02,.17-.04,.34-.06,.5v.09c-.22,1.68-.38,3.28-.53,4.82l-1.86-.07c1.98-16.9,4.15-33.83,14.97-52.04-6.37-5.33-11.62-13.13-15.41-24.19v2.38c3.21,8.69,7.49,16.4,14.07,21.96-6.74,10.63-8.95,22.45-12.26,33.99,2.27-11.63,5.43-23.03,10.91-33.84-5.85-4.56-9.5-12.23-12.72-20.52v1.93c1.83,5.08,4.09,9.36,6.71,12.96-1.79-1.58-4.14-2.54-6.71-2.56v.79c5.21,.03,9.42,4.28,9.42,9.53s-4.21,9.5-9.42,9.53v.79c3.69-.02,6.92-2,8.71-4.95-5.88,14.77-8.25,26.79-8.71,37.32v7.99c0,.15,.01,.29,.02,.44l2.17-.23,.84-.09,.49-.05,.24-.03v.07c5.65-.71,10.77-2.42,15.08-5.69,3.34,4.18,6.05,6.31,8.37,7.22-2.99,2.36-5.98,4.71-8.97,7.07-4.51-3.12-9.38-4.65-14.47-5.19Zm8.22,10.97c2.38,2.25,5.2,4.16,10.01,4.6,3.75,.18,6.29-1.42,7.58-4.83,1.44,2.13-.3,9.06-7.05,8.54-5.75-.58-8.77-3.84-10.54-8.32Z"/></clipPath><linearGradient id="linear-gradient-2" x1="-5225.83" y1="2696.8" x2="-5225.69" y2="2696.8" gradientTransform="translate(1666435.62 4241529.8) rotate(90) scale(811.64 617.89)" xlink:href="#linear-gradient"/><clipPath id="clippath-2"><path class="cls-3" d="M241.18,190.26c-.22-.06-.47-.08-.75-.08-2.23,0-4.54,1.42-6.93,4.26-3.39,4.12-5.09,7.48-5.09,10.1,0,1.17,.39,1.75,1.17,1.75,1.22,0,2.81-1.28,4.76-3.84,2.72-3.45,5.01-7.51,6.84-12.18m12.27,8.76c0,.28-.17,.67-.5,1.17-2.45,3.95-4.76,6.48-6.93,7.59-1,.5-2,.75-3.01,.75-3.39,0-5.09-2.39-5.09-7.18,0-.78,.05-1.61,.17-2.5-3.73,6.62-7.04,9.93-9.93,9.93-1.72,0-2.59-.95-2.59-2.84,0-2.89,1.39-6.38,4.17-10.47,2.78-4.09,5.48-6.58,8.1-7.47,.95-.39,1.87-.58,2.75-.58,2,0,3.45,.7,4.34,2.09,.17,.28,.25,.47,.25,.58,0,.06-.2,.14-.59,.25-.39,.11-.67,.31-.83,.58-1.33,2.17-2,5.42-2,9.76,0,4.01,.86,6.01,2.59,6.01,1.22,0,2.96-1.35,5.22-4.05,2.25-2.7,3.46-4.05,3.63-4.05s.25,.14,.25,.42Zm-23.45-.5c0,.22-.17,.53-.5,.92-1.95,2.84-4.65,5.43-8.1,7.76-2,1.28-4.12,1.92-6.34,1.92-4.12,0-6.18-2.2-6.18-6.59,0-2.73,1.52-5.73,4.55-9.01,3.03-3.28,5.88-4.92,8.55-4.92,1.78,0,2.67,.7,2.67,2.09,0,.56-.4,1.52-1.21,2.88-.81,1.36-1.46,2.04-1.96,2.04-.22,0-.33-.14-.33-.42,0-.22,.1-.58,.29-1.08,.19-.5,.29-.89,.29-1.17,0-1.17-.72-1.75-2.17-1.75-2,0-3.81,1.31-5.42,3.92-1.5,2.39-2.25,4.65-2.25,6.76,0,3.45,1.5,5.17,4.51,5.17,3.78,0,7.73-2.59,11.85-7.76,.56-.67,1.03-1,1.42-1,.22,0,.33,.08,.33,.25Zm-18.53-.08c0,.45-.17,.92-.5,1.42-4.34,6.9-8.65,10.35-12.94,10.35-3.12,0-4.67-1.81-4.67-5.42s1.17-7.09,3.51-10.93c-.33,.11-.7,.17-1.09,.17-.89,0-1.75-.28-2.59-.83-1-.61-1.5-1.31-1.5-2.09-.61,1.39-1.75,3.37-3.42,5.93-2.06,3.23-3.42,4.84-4.09,4.84-.22,0-.33-.11-.33-.33s.14-.53,.42-.92c2.17-2.95,4.37-6.76,6.59-11.43-.11-.5-.17-1.11-.17-1.84,0-1.28,.25-2.75,.75-4.42,.56-2.11,1.31-3.17,2.25-3.17,.61,0,1.14,.5,1.58,1.5,.39,.78,.59,1.53,.59,2.25,0,1.39-1.14,3.42-3.42,6.09,.5,1.72,1.47,2.59,2.92,2.59,1,0,1.97-.54,2.92-1.63,.95-1.08,1.61-1.63,2-1.63,.5,0,.95,.21,1.33,.63,.39,.42,.58,.9,.58,1.46,0-.06-.97,1.81-2.92,5.59-1.95,3.78-2.92,6.7-2.92,8.76,0,1.95,.92,2.92,2.76,2.92,1.56,0,3.34-.89,5.34-2.67,1.28-1.17,2.78-2.84,4.51-5.01,1.39-1.78,2.12-2.67,2.17-2.67,.22,0,.33,.17,.33,.5Zm-37.64,4.34c-1.84-1.22-3.23-2.64-4.17-4.26-1.67,3.51-2.5,6.04-2.5,7.59,0,1.11,.42,1.67,1.25,1.67,.78,0,1.81-.67,3.09-2,1.11-1.06,1.89-2.06,2.34-3Zm2.75-9.76c0-1.22-.2-2.48-.58-3.76-.55-1.78-1.28-2.67-2.17-2.67-1.28,0-2.28,.78-3,2.34-.56,1.22-.81,2.56-.75,4.01,.89-1.06,1.78-1.59,2.67-1.59,.84,0,1.45,.28,1.84,.84v.42c.05,.17,.08,.31,.08,.42,0,.17-.28,.25-.83,.25-1,0-2.06,1.06-3.17,3.17,.72,2.11,2,3.84,3.84,5.17,1.39-3.51,2.09-6.37,2.09-8.6Zm9.85,6.34c0,.11-.05,.22-.17,.33-.78,1.34-1.96,2.48-3.55,3.42-1.59,.95-3.13,1.42-4.63,1.42-1.11,0-2.14-.28-3.09-.83-2.56,4.06-5.2,6.09-7.93,6.09-1.95,0-2.92-1.14-2.92-3.42,0-3.17,1.39-6.9,4.17-11.18-.11-.61-.17-1.22-.17-1.84,0-2,.67-3.95,2-5.84,1.33-1.89,2.98-2.84,4.92-2.84,1.28,0,2.31,.75,3.09,2.25,.61,1.28,.92,2.62,.92,4.01,0,3-1.17,6.82-3.5,11.43,.83,.5,1.78,.75,2.84,.75,1.84,0,3.56-.72,5.17-2.17,1.62-1.45,2.37-2.17,2.25-2.17,.39,0,.58,.19,.58,.58Zm-14.77-36.05c0-1.06-.36-1.59-1.08-1.59-1.62,0-3.59,1.56-5.93,4.67-2.67,3.62-5.7,8.71-9.1,15.27-3.73,7.18-5.95,12.55-6.68,16.11,3.06-2.67,7.18-7.57,12.35-14.69,5.34-7.46,8.57-12.85,9.68-16.19,.5-1.56,.75-2.75,.75-3.59Zm3.59-.33c0,3.78-3.59,10.21-10.77,19.28-5.68,7.07-10.96,12.88-15.86,17.44,0,6.06,1.53,9.1,4.59,9.1s7.4-3.14,13.02-9.43c.22-.28,.45-.42,.67-.42,.28,0,.42,.19,.42,.58,0,.22-.08,.45-.25,.67-1.95,2.56-4.17,4.78-6.68,6.68-3.17,2.45-5.98,3.67-8.43,3.67-4.17,0-6.26-3.42-6.26-10.27,0-4.67,2.31-10.96,6.93-18.86,3.78-6.45,7.82-12.05,12.1-16.77,3.06-3.34,5.62-5.01,7.68-5.01,.67,0,1.31,.38,1.92,1.13,.61,.75,.92,1.49,.92,2.21Zm-24.04,.33c0-1.06-.36-1.59-1.09-1.59-1.61,0-3.59,1.56-5.92,4.67-2.67,3.62-5.7,8.71-9.1,15.27-3.73,7.18-5.95,12.55-6.68,16.11,3.06-2.67,7.18-7.57,12.35-14.69,5.34-7.46,8.57-12.85,9.68-16.19,.5-1.56,.75-2.75,.75-3.59Zm3.59-.33c0,3.78-3.59,10.21-10.77,19.28-5.67,7.07-10.96,12.88-15.86,17.44,0,6.06,1.53,9.1,4.59,9.1s7.4-3.14,13.02-9.43c.22-.28,.45-.42,.67-.42,.28,0,.42,.19,.42,.58,0,.22-.08,.45-.25,.67-1.95,2.56-4.17,4.78-6.68,6.68-3.17,2.45-5.98,3.67-8.43,3.67-4.17,0-6.26-3.42-6.26-10.27,0-4.67,2.31-10.96,6.93-18.86,3.78-6.45,7.82-12.05,12.1-16.77,3.06-3.34,5.62-5.01,7.68-5.01,.67,0,1.31,.38,1.92,1.13,.61,.75,.92,1.49,.92,2.21Zm-40.64,27.29c-.22-.06-.47-.08-.75-.08-2.23,0-4.54,1.42-6.93,4.26-3.39,4.12-5.09,7.48-5.09,10.1,0,1.17,.39,1.75,1.17,1.75,1.22,0,2.81-1.28,4.76-3.84,2.73-3.45,5.01-7.51,6.84-12.18Zm12.27,8.76c0,.28-.17,.67-.5,1.17-2.45,3.95-4.76,6.48-6.93,7.59-1,.5-2,.75-3,.75-3.39,0-5.09-2.39-5.09-7.18,0-.78,.06-1.61,.17-2.5-3.73,6.62-7.04,9.93-9.93,9.93-1.72,0-2.59-.95-2.59-2.84,0-2.89,1.39-6.38,4.17-10.47,2.78-4.09,5.48-6.58,8.09-7.47,.95-.39,1.87-.58,2.75-.58,2,0,3.45,.7,4.34,2.09,.17,.28,.25,.47,.25,.58,0,.06-.2,.14-.59,.25-.39,.11-.67,.31-.83,.58-1.34,2.17-2,5.42-2,9.76,0,4.01,.86,6.01,2.59,6.01,1.22,0,2.96-1.35,5.22-4.05,2.25-2.7,3.46-4.05,3.63-4.05s.25,.14,.25,.42Zm-30.28-21.11c0,1.84-.56,4.09-1.67,6.76-1.73,4.23-3.48,8.46-5.26,12.69-2.22,5.84-3.34,10.07-3.34,12.69,0,2,.75,3,2.25,3,.83,0,1.9-.47,3.21-1.42,1.31-.95,2.07-1.42,2.29-1.42s.33,.14,.33,.42c0,1.11-.77,2.09-2.29,2.92-1.53,.83-2.88,1.25-4.05,1.25-3.17,0-4.76-1.86-4.76-5.59,0-2.45,.67-5.7,2-9.77,1.06-3,2.59-6.79,4.59-11.35,.78-1.5,1.78-3.78,3.01-6.84,.5-1.5,.75-2.61,.75-3.34,0-.61-.19-.92-.58-.92-2.84,0-7.9,3.98-15.19,11.93-5.29,5.79-9.68,11.18-13.19,16.19-1.11,1.61-2.03,3-2.75,4.17-.28,.61-.72,1.28-1.34,2-.22,.06-.45,.08-.67,.08-1.67,0-2.5-.67-2.5-2,0-.28,.1-.56,.29-.83,.2-.28,1.24-2.39,3.13-6.34,5.62-11.68,8.43-20.09,8.43-25.2,0-2.34-.72-3.51-2.17-3.51-2.34,0-6.23,2.98-11.69,8.93-6.18,6.79-11.96,14.66-17.36,23.62-.61,1.06-1.22,2.09-1.84,3.09-.89,1.39-1.61,2.31-2.17,2.75-1.28,0-1.92-.61-1.92-1.84,0-.39,.11-.72,.33-1,3.06-3.73,6.37-9.63,9.93-17.69,3.89-8.68,5.84-15.08,5.84-19.2,0-5.56-3.06-8.35-9.18-8.35-3.23,0-7.12,.81-11.68,2.42-3.06,1.11-6.19,2.53-9.39,4.26-3.2,1.73-6.22,3.67-9.05,5.84-4.23,3.28-6.34,5.98-6.34,8.1,0,3.12,3.03,4.67,9.1,4.67,1.22,0,3.03-.18,5.43-.54,2.39-.36,4.17-.54,5.34-.54,.45,0,.67,.11,.67,.33s-.14,.42-.42,.58c-1.89,1.34-5.04,2-9.43,2-3.17,0-5.9-.44-8.18-1.33-3.12-1.22-4.67-3.2-4.67-5.93,0-2.89,2.09-6.01,6.26-9.35,2.84-2.28,6.2-4.37,10.1-6.26,3.28-1.56,6.65-2.87,10.1-3.92,4.9-1.45,9.26-2.17,13.1-2.17,8.12,0,12.18,3.09,12.18,9.26,0,5.01-2,11.38-6.01,19.11,3.17-3.78,6.34-7.59,9.52-11.43,4.79-5.17,8.54-7.76,11.27-7.76,3.34,0,5.01,2.5,5.01,7.51,0,4.34-1.7,10.63-5.09,18.86,3.67-4.12,7.71-8.29,12.1-12.52,6.23-5.9,10.63-9.26,13.19-10.1,.72-.22,1.34-.33,1.84-.33,1.72,0,2.59,1.11,2.59,3.34Z"/></clipPath></defs><g id="Layer_1-2"><g><path class="cls-8" d="M127.79,4.07c7.2-4.95,13.03-1.95,18.18,4.96,3.62,5.33,6.93,9.4,9.53,10.51,2.71,.75,4.72-2,3.46-4.34-.5-.79-1.23-1.21-2.24-1.2,.96-.66,2.93-.77,3.71,1.07,1.34,3.12-.75,5.85-3.69,5.51-3.65-.27-10.29-9.12-11.45-10.94-4.93-6.69-10.42-10.01-17.23-5.19-.09-.13-.18-.26-.27-.38m-.4-.59c6.2-5.35,12.68-3,19.34,4.29,3.36,4.22,6.21,9.75,8.76,10.58,1.64,.47,3.85-1.85,1.11-3.72,1.23-.06,2.61,1.15,1.88,3.21-1.15,2.11-3.6,1.51-6.02-1.32-2.11-2.72-4.22-5.44-6.33-8.16-5.92-7.57-12.06-9.56-18.5-4.49-.08-.13-.16-.26-.24-.38Zm33.47,9.16c.21,.12,.68,.45,1.13,1.09,.45,.63,.88,1.57,.94,2.65,.06,1.08-.24,2.29-.67,3.05-.42,.76-.96,1.08-1.52,1.29-.55,.22-1.11,.34-1.55,.38-.44,.04-.76,0-.92-.01q-.16-.02,.01-.06c.18-.05,.52-.14,.91-.34,.39-.2,.81-.52,1.21-.96,.39-.44,.76-1.02,1.03-1.64,.27-.62,.44-1.28,.48-1.98,.04-.7-.04-1.44-.26-2.02-.21-.58-.56-.99-.75-1.24-.2-.25-.25-.32-.04-.2Zm.33,4.79c.08-.25,.25-.88,.21-1.61-.03-.73-.27-1.56-.58-2.21-.3-.65-.67-1.13-1.12-1.42-.45-.29-.96-.41-1.51-.4-.55,0-1.13,.14-1.67,.45-.54,.31-1.04,.8-1.29,1.27s-.28,.94-.26,1.25c.02,.31,.08,.46,.11,.54q.03,.08,.06-.07c.03-.15,.1-.45,.32-.82,.22-.36,.58-.79,1.14-1.04,.56-.25,1.32-.33,2.01-.18,.7,.15,1.34,.55,1.77,1.07,.43,.52,.64,1.17,.73,1.72,.09,.54,.05,.98,.03,1.27-.02,.29-.04,.44,.04,.19Zm.32,3.47c-3.97,3.47-8.94,.71-12.84-5.32,.61,4.8-1.37,6.51-4.02,7.44,2.45-1.73,4.67-6.23,2.01-10.56,5.88,7.69,10.98,11.18,14.85,8.44Zm-15.23-8.23c.66,7.2-3.44,10.32-7.9,8.97,3.29,2.21,6.4,3.04,8.66-3.04,.48-2.03,.42-4.02-.75-5.94Zm-3.21,7.78c-1.27,.53-2.78,.14-4.44-1.37-2.53-.96-3.18-3.08-2.01-6.32-1.97,3.14-1.53,6.87,1.11,8.12,2.8,1.01,4.42,.67,5.34-.43Zm-2.48-7.61c-4.45,2.1-1.59,7.04,1.65,7.2,3.8-.75,4.42-7.58,2.58-10.08C141.39,4.18,134.59,0,128.38,4.76c.16,.18,.31,.37,.47,.56,6.73-3.66,13.34,.9,14.44,6.07,.76,3.52-.21,5.1-1.87,4.76-1.05-.26-1.55-1.08-.83-3.31Zm-11.41-6.96c6.38-3.62,12.83,1.39,13.8,6.67,.27,1.35-.25,2.53-.86,2.8-.86,.38-1.96-.75-.59-2.88-4.8-4.44-9.45,4.1-5.3,8.25h-1.88c-.43-4.54-.88-9.08-5.17-14.83Zm9.96,28.5c1.87-1.99,2.82-4.29,2.81-6.92-.78,2.32-1.8,4.32-3.5,5.43,.23,.5,.46,.99,.69,1.49Zm-4.61-8.54c1.34-.31,2.25-.46,3.53,.94,1.16,1.39,.4,3.2-.28,5.17-1.08-2.04-2.16-4.07-3.25-6.11Zm-.47-1.4c.06-.72,.13-1.44,.19-2.16,2.91,.5,3.69,2.11,4.08,3.93-.83-.75-2.13-1.37-4.27-1.77Zm4.08,8.16l-.21-.39-.08-.15,.29,.53Zm2.4-20.29c-2.73,1.22-3.21,3.3-2.24,5.94-1.35-.64-2.13-2.58-1.34-4.75,.59-1.59,2.26-1.95,3.58-1.19Zm-.87,22.6c2.62-.15,4.54,.63,5.94,2.07,2.16,2.28,2.23,4.56,1.71,6.84-.16-.14-.33-.28-.49-.43,.29-4.35-2.45-6.61-6.84-7.71-.11-.26-.21-.51-.32-.77Zm1.96,1.84c1.5,.89,2.07,1.96,1.84,3.18,.63,.69,1.27,1.38,1.9,2.07,.41-2.77-1.08-4.37-3.74-5.26Zm4.19,5.51c.28-.68,.17-1.61,.04-2.54,.47,.98,.72,2.09,.67,3.35-.24-.27-.48-.54-.71-.81Zm-2.46-7.54c1.65-.13,3.78,.53,5.9,1.15,1.55,.4,3.03,.39,4.46,.11-1.56,1.76-5.13,2.9-6.73,1.62-.91-1.5-2.21-2.29-3.63-2.88Zm-3.16-.51c1.6-1.21,2.98-2.12,7.03-2.25,3.22-.15,6.5,2.41,7.11,3.36-1.98,.4-4.27,.22-6.82-.47-2.81-.9-4.91-.47-7.33-.64Zm8.25-5.26c.94,.45,.67,2.35-.9,2.15-.34-.05-.73-.13-.92-.42-.63,.34-1.27,.68-1.9,1.03,1.27-.35,2.62-.41,4.06-.19,.51,.17,1.03,.34,1.54,.51,1.35-.95,1.81-2.25,.36-4.34-1.15-1.19-3.06-1.01-3.93,.94-.32,.67-.03,1.7,.47,1.9,1.11,.21,1.59-.25,1.22-1.58Zm-2.33,.85l-4.04,2.73,4.15-2.2-.11-.53Zm.06-.94l-.11,.47-3.21,2.09,3.31-2.56Zm.54-1.39l-.45,.73-3.85,3.12,4.3-3.85Zm1.75-1.2c5.54-3.07,10.8-3.88,15.77-2.22,3.72,1.53,6.86,4.21,9.27,8.25-.16,.04-.31,.08-.47,.13-2.12-3.13-4.79-5.89-9.02-7.65-6.14-1.94-10.65-1.11-14.06,1.62-.5-.04-1-.09-1.49-.13Zm2.39,.56c7.82-4.85,16.37-1.01,21.2,6.01,.18-.21,.17,.06,.35-.15-2.1-3.88-5.79-6.47-9.2-7.53-5.12-1.8-9.34-1.13-12.86,1.45,.17,.07,.34,.14,.51,.21Zm.39,.56c3.48-2.49,7.46-2.65,11.79-1.15,3.19,1.11,6.02,3.48,8.59,6.75-.78,.17-1.71,.17-2.78,0-1.97-2.33-3.96-3.98-5.98-4.83-4.37-1.83-8.06-1.89-11.18-.41-.15-.12-.3-.24-.45-.36Zm16.7,5.58c-2.77-3.51-6.22-5.33-10.3-5.6,2.08,2.08,5.59,4.87,10.3,5.6Zm-12.44-5.47c3.55,3.52,7.27,7.49,15.51,8.12,4.67,1.65,8.78,.05,10.77-5-.5,4.3-3.58,6.84-10.98,6.41-5.73-.73-10.67-4.47-15.38-9.14,.03-.13,.05-.26,.08-.39Zm17.28,8.18c5-1.12,8.29-4.65,6.82-8.08-1.16-1.44-2.8-1.53-4.76-.75,1.88-2.77,6.55-2.08,6.64,2.33-.39,4.68-4.84,6.59-8.7,6.5Zm2.59-8.16c2.21-.97,3.57-.41,4.02,1.82,.11,2.61-3.21,5.51-8.16,5.66-5.65,.37-10.51-3.19-15.19-7.56,.27-.02,.54-.04,.81-.06,1.43,1.87,7.13,6.78,14.46,6.39,4.34-.74,6.4-3.9,4.06-6.24Zm-32.24,12.12c-.72-.89-1.44-1.77-2.16-2.66,1.29,.41,2.23,1.4,2.16,2.66Zm6.07-20.59c-.05,.28-.13,.59-.25,.91-.34,.86-1,1.82-1.77,2.46-.77,.65-1.64,.99-2.48,1.22-.84,.23-1.65,.34-2.33,.32-.68-.02-1.22-.18-1.49-.26q-.27-.08,0,.28c.28,.36,.83,1.09,1.2,2,.36,.91,.54,2.01,.43,3.02-.1,.92-.42,1.77-.84,2.57,.22-.24,.45-.49,.69-.75,1.31-1.37,3.05-2.96,4.38-3.97,1.32-1.01,2.23-1.44,3.03-1.82,.8-.38,1.5-.73,1.85-.9q.35-.17-.19-1.13c-.54-.96-1.62-2.89-2.16-3.85l-.06-.11Zm7.36,3.81c-1.2-.13-2.45-.54-3.58-1.36-.38-.27-.74-.59-1.09-.92,.55,.69,1.08,1.35,1.45,1.82q.82,1.04,1.49,.86c.39-.1,1-.26,1.74-.4Zm-2.92,.57l-.55,.09-1.84-2.88,2.38,2.8Zm-.94,.14l-.33,.13-1.29-2.35,1.62,2.22Zm9.81,20.02c3.65-1.48,2.69-7.72-1.92-7.88-4.81,.55-6.06,4.85-5.98,7.9,.72-4.22,2.41-6.73,5.98-5.94,1.87,.61,2.69,3.83,1.92,5.92Zm-.43-.83c.42-4.36-2.84-6.12-5.21-3.33-3.27,4.36-1.35,9.23,4.49,10.98,8.1-.2,11.3-4.77,10.85-12.61-.77-.07-1.54-.14-2.31-.21,.49,5.56-4,10.41-7.44,9.91-2.93-.57-4.46-1.92-3.8-4.49,.66-1.31,2.38-1.51,3.41-.26Zm-.46-7.44c-2.67-1.4-5.15,.08-7.48,4.14-1.74,6.54-.27,10.9,5.85,12.09-.29,1.27-.46,2.47,0,3.29,4.32-1.24,7.43-3.56,9.7-6.62-4.75,4.64-8.9,3.33-12.9,.56-6.66-7.74,.7-14.43,4.83-13.46Zm25.04,11.13c-2.12-2.16-4.29-2.39-6.49-.6,.44-2.01,1.32-3.13,2.91-2.86,2.06,.69,3.01,1.97,3.59,3.46Zm-4.31-3.89c2.91-2.01,8.1,.76,6.41,6.03,.6,.01,1.2,.03,1.79,.04-.52,3.59-2.66,5.54-5.68,6.62,1.89-1.75,3.54-3.68,2.56-7.61-.81-3.42-2.34-5.43-5.08-5.08Zm-1.41,3.89c1.83-1.32,4.94-.83,5.77,1.84,1.61,5.29-3.99,9.06-8.25,4.49-1.87-1.89-3.4-7.63-3.85-13.55,.58,1.05,.3,1.03,.88,2.08,.07,6.56,3.13,10.37,5.53,10.57,3.39,.02,3.41-5.06-.09-5.43Zm5.92,11.3c.96-.69,1.98-1.61,2.55-2.53,1.67-.4,2.93-.21,4.01,.64-.51,1.12-1.91,1.99-3.4,2.66-1.09-.55-2.13-.73-3.16-.77Zm-.82,8.05l2.16-.6-1.56,1.79-.6-1.2ZM126.73,3.92v-.09s.03,.07,0,.09Zm6.94,20.25c-.07-.13-.13-.26-.2-.39-1.15-2.31-1.3-2.89-2.26-5.57-.18-.5-.39-1.08-.62-1.71-.66-2.11-1.25-4.28-1.76-6.53-.49-1.27-.78-3.54-2.07-3.86-.07-.25-.07-.35-.07-.53,0-.35,.02-.98,.03-1.47,5.78,6.51,7.26,13.3,6.9,19.99,0-.02,.02,.02,.04,.07Zm-5.2-17.29c0,.27-.01,.54-.02,.81,2.91,4.04,4.35,8.8,4.46,14.21,.26-5.68-1.45-10.6-4.44-15.02Zm.36,2.25c.08,.43,.16,.85,.23,1.28,1.38,3.03,2.24,6.3,2.99,9.61,.02-3.92-1.08-7.55-3.23-10.9Zm-1.49-6.39c.58-.47,1.74-1.28,2.93-1.83,1.19-.55,2.41-.84,3.72-.9,1.31-.06,2.71,.09,4.19,.64,1.48,.54,3.05,1.47,4.7,2.78,1.65,1.31,3.39,3.01,4.79,4.66,1.4,1.65,2.47,3.26,3.4,4.66,.93,1.4,1.71,2.6,2.4,3.38,.69,.78,1.29,1.15,1.87,1.28,.58,.12,1.15,0,1.47-.3,.32-.29,.39-.75,.25-1.06-.14-.31-.5-.48-.84-.49-.34,0-.67,.15-.86,.31-.19,.16-.25,.33-.31,.37-.06,.04-.12-.06-.28-.31-.16-.25-.43-.65-.41-1.26,.02-.61,.34-1.44,.8-2.06,.46-.62,1.08-1.03,1.92-1.22,.85-.19,1.93-.14,2.83,.1,.9,.24,1.61,.68,2.23,1.38,.62,.7,1.15,1.65,1.39,2.75,.24,1.1,.2,2.34-.26,3.49s-1.35,2.22-2.42,2.9c-.42,.26-.86,.47-1.33,.61,1.1,.03,2.23,.18,3.35,.44,1.54,.37,3.04,.95,4.37,1.75,1.33,.8,2.51,1.81,3.57,2.91,1.06,1.1,2,2.3,2.54,3.03,.54,.73,.7,1,.77,1.14,.08,.14,.09,.14,.3-.01,.22-.15,.64-.45,.94-.85,.3-.4,.47-.9,.47-1.34,0-.45-.18-.84-.49-1.14-.31-.31-.75-.53-.97-.64q-.22-.11-.14-.38c.08-.27,.24-.82,.54-1.31,.3-.49,.76-.93,1.41-1.23,.65-.3,1.49-.46,2.31-.39,.83,.07,1.64,.39,2.41,1.14,.78,.75,1.52,1.95,1.74,3.13,.23,1.18-.06,2.35-.48,3.45-.42,1.1-.97,2.12-1.88,2.95-.92,.82-2.2,1.45-3.03,1.78-.83,.33-1.2,.37-1.38,.38-.18,.02-.18,.02-.09,1.16,.08,1.15,.24,3.44,.6,5.23,.36,1.79,.91,3.09,1.37,4.04,.46,.95,.83,1.56,1.25,2.03,.42,.47,.88,.82,1.39,.97,.51,.16,1.05,.13,1.47-.04,.42-.17,.7-.47,.85-.82,.15-.34,.17-.73,.1-1.12-.07-.39-.22-.78-.48-1.07-.27-.29-.65-.47-1.06-.56-.41-.09-.83-.08-1.05-.07-.22,.01-.24,.03-.29-.21-.06-.23-.16-.72-.09-1.41,.07-.69,.31-1.58,.8-2.31,.48-.74,1.21-1.32,2.02-1.66,.81-.34,1.71-.44,2.57-.35,.87,.09,1.7,.37,2.42,.88,.72,.52,1.32,1.27,1.69,1.86,.37,.58,.5,1,.54,1.52,.04,.53-.01,1.17-.07,1.58-.05,.42-.11,.61,.07,.71,.18,.1,.6,.1,.93,.16,.33,.06,.56,.18,.68,.46,.12,.28,.12,.71,.03,1.46-.09,.75-.27,1.82-.55,2.64-.29,.82-.68,1.39-.87,1.67q-.2,.28,.23,.25c.43-.03,1.29-.1,2.02,.1,.73,.19,1.33,.64,1.63,.86q.3,.22,.05,.58c-.25,.36-.75,1.07-1.29,1.59-.54,.52-1.13,.86-1.43,1.02-.3,.17-.31,.17,.29,.52,.6,.35,1.8,1.06,2.73,2.25,.93,1.2,1.58,2.88,1.87,4.22,.29,1.33,.21,2.31-.08,3.48-.29,1.17-.81,2.54-1.46,3.65-.65,1.11-1.43,1.98-2.13,2.55-.7,.57-1.32,.85-1.96,.97-.51,.09-1.02,.09-1.38,.08-.01-.24-.03-.49-.05-.73,4.96-.2,6.48-5.89,6.49-9.01-.52-5.82-4.76-7.97-10.75-8.38,3.05-1.53,4.98-3.84,5.75-6.96-2.94,4.84-6.74,6.32-11.84,2.78,1.26,2.38,3.87,4.05,7.52,5.17,6.44,1.23,9.43,4.6,7.78,10.85-1.17,2.89-2.95,4.15-5.05,4.58-.02-.18-.05-.36-.08-.55,1.71-.24,3.18-1.58,4.39-3.98-1.72,2.19-3.34,2.65-4.88,1.67-.08-.31-.18-.63-.28-.94,4.83,2.22,8.86-5.23,2.22-9.64-2.47-1.59-9.77-.97-13.16-8.76-1.55-2.73-1.96-4.25-2.48-7.03-.3-2.12-.38-5.27-1.15-7.62-.17,.03-.34,.06-.51,.09-.12,9.29-4.35,14.17-10.51,16.96,4.21-.12,8.21-1.94,11.28-10.85,.16,5.2,.4,10.37,5.51,14.19,3.14,2.02,7.35,1.63,10.6,3.76,3.14,2.05,2.88,5.27,.68,5.83-.86,.25-1.96-.4-1.97-2.07-1.19,.58-1.73,1.23-1.87,1.92-.39-.73-.82-1.44-1.31-2.12h0c.61-.48,1.11-.75,1.78-.83,.67-.08,1.49,.02,1.91,.08,.41,.06,.41,.06,.35,.18-.06,.12-.18,.35-.21,.69-.03,.34,.04,.8,.29,1.1,.26,.31,.72,.46,1.08,.34,.37-.12,.64-.53,.8-1,.16-.47,.2-.99,.04-1.51-.16-.52-.53-1.03-1.16-1.54-1.65-1.34-3.74-1.94-6.04-2.32-1.12-.19-2.18-.41-3.5-.99-1.32-.58-3.05-1.77-4.25-3.23-1.21-1.46-1.99-2.96-2.46-4.42-.55-1.68-.65-3.09-.63-5.58,0-.33,.09-.37-.2,.38-.29,.75-.89,2.29-1.71,3.62-.83,1.33-1.89,2.46-3.4,3.34-1.51,.88-3.47,1.51-5.08,1.73-1.61,.21-2.87,0-3.5-.1q-.63-.1-.66-.48c-.03-.37-.08-1.12-.02-1.66,.07-.54,.26-.87,.36-1.03q.1-.16-.19-.14c-.29,.02-.86,.06-1.84-.44-.99-.5-2.39-1.55-3.22-2.93-.83-1.39-1.09-3.11-1.18-4.68-.1-1.57-.03-2.98,.51-4.31,.54-1.34,1.57-2.6,2.39-3.49,.82-.9,1.43-1.43,2.15-1.71,.71-.28,1.53-.31,2.38-.19,.85,.12,1.72,.39,2.49,.91,.77,.52,1.42,1.3,1.8,1.98,.38,.68,.48,1.25,.52,1.98,.04,.72,.03,1.59-.17,2.4s-.57,1.56-1.08,2.01c-.5,.46-1.13,.62-1.53,.69-.4,.07-.57,.06-.65,.05q-.09,0-.06-.18c.02-.17,.06-.52-.09-.85-.15-.32-.49-.62-.88-.66-.39-.04-.82,.19-1.08,.5-.25,.31-.32,.7-.3,1.07,.02,.37,.14,.72,.45,1.09,.32,.37,.84,.77,1.46,1.04,.62,.26,1.34,.39,2.05,.36,.71-.04,1.41-.24,2.01-.6,.61-.36,1.12-.89,1.73-1.68,.61-.79,1.31-1.83,1.75-2.8,.44-.97,.6-1.86,.62-2.58,.02-.72-.09-1.27-.15-1.54q-.06-.27-.71-.43c-.65-.16-1.95-.48-4.02-1.64-2.08-1.16-4.94-3.17-6.74-4.64-1.79-1.46-2.52-2.38-2.88-2.84q-.37-.46-.62-.44c-.26,.02-.78,.05-1.23,.17-.46,.11-.85,.31-1.05,.4-.2,.09-.22,.07-.12,.19,.1,.11,.31,.36,.36,.9,.05,.54-.06,1.39-.28,1.96-.21,.57-.53,.86-.69,1-.16,.14-.17,.13,.3,.36s1.39,.68,2.16,1.21c.76,.53,1.36,1.14,1.66,1.44,.3,.3,.32,.3,.1,.55-.21,.24-.65,.73-1.28,1.22-.62,.49-1.42,.99-2.24,1.35-.83,.36-1.68,.57-2.39,.62-.71,.05-1.27-.05-1.56-.11-.29-.06-.29-.07-.14,.41,.15,.48,.47,1.46,.48,2.39,.02,.93-.26,1.81-.4,2.25q-.14,.44-.82,.12h-.03c-2.88-2.82-5.47-5.9-7.77-9.26,.02-.06,.05-.13,.09-.19-.03,0-.05,0-.07,0-.15-.03-.25-.17-1.15-1.84,2.14-2.44,4.04-4.9,2.75-7.67-1.23-2.33-4.47-4.37-6.61-3.32,4.78,.9,6.38,6.71,3.47,10.27-1.05-1.95-2.81-5.23-3.95-7.47,.52-8.42-1.82-14.64-7.09-20.65,.01-.48,.03-.61,.61-1.08Z"/><path class="cls-8" d="M127.79,152.7c7.2,4.95,13.03,1.95,18.18-4.96,3.62-5.33,6.93-9.4,9.53-10.51,2.71-.75,4.72,2,3.46,4.34-.5,.79-1.23,1.21-2.24,1.2,.96,.66,2.93,.77,3.71-1.07,1.34-3.12-.75-5.85-3.69-5.51-3.65,.27-10.29,9.12-11.45,10.94-4.93,6.69-10.42,10.01-17.23,5.19-.09,.13-.18,.26-.27,.38m-.4,.59c6.2,5.35,12.68,3,19.34-4.29,3.36-4.22,6.21-9.75,8.76-10.58,1.64-.47,3.85,1.85,1.11,3.72,1.23,.06,2.61-1.15,1.88-3.2-1.15-2.11-3.6-1.51-6.02,1.32-2.11,2.72-4.22,5.44-6.33,8.16-5.92,7.57-12.06,9.56-18.5,4.49-.08,.13-.16,.26-.24,.38Zm33.47-9.16c.21-.12,.68-.45,1.13-1.09,.45-.63,.88-1.57,.94-2.65,.06-1.08-.24-2.29-.67-3.05-.42-.76-.96-1.08-1.52-1.29-.55-.22-1.11-.34-1.55-.38s-.76,0-.92,.01q-.16,.02,.01,.06c.18,.05,.52,.14,.91,.34,.39,.2,.81,.52,1.21,.96,.39,.45,.76,1.02,1.03,1.64,.27,.62,.44,1.28,.48,1.98,.04,.7-.04,1.44-.26,2.02-.21,.58-.56,.99-.75,1.24-.2,.25-.25,.32-.04,.2Zm.33-4.79c.08,.25,.25,.88,.21,1.61-.03,.73-.27,1.56-.58,2.21-.3,.65-.67,1.13-1.12,1.42-.45,.3-.96,.41-1.51,.4-.55,0-1.13-.14-1.67-.45-.54-.31-1.04-.8-1.29-1.27-.26-.48-.28-.94-.26-1.25,.02-.31,.08-.46,.11-.54q.03-.08,.06,.07c.03,.15,.1,.45,.32,.82,.22,.36,.58,.79,1.14,1.04,.56,.25,1.32,.33,2.01,.18,.7-.15,1.34-.55,1.77-1.07,.43-.52,.64-1.17,.73-1.72,.09-.54,.05-.98,.03-1.27-.02-.29-.04-.44,.04-.19Zm.32-3.47c-3.97-3.47-8.94-.71-12.84,5.32,.61-4.8-1.37-6.51-4.02-7.43,2.45,1.73,4.67,6.23,2.01,10.55,5.88-7.69,10.98-11.18,14.85-8.44Zm-15.23,8.23c.66-7.2-3.44-10.32-7.9-8.97,3.29-2.21,6.4-3.04,8.66,3.03,.48,2.03,.42,4.02-.75,5.94Zm-3.21-7.78c-1.27-.53-2.78-.14-4.44,1.37-2.53,.96-3.18,3.08-2.01,6.32-1.97-3.14-1.53-6.87,1.11-8.12,2.8-1.01,4.42-.67,5.34,.43Zm-2.48,7.61c-4.45-2.1-1.59-7.04,1.65-7.2,3.8,.75,4.42,7.58,2.58,10.08-3.44,5.78-10.24,9.96-16.45,5.19,.16-.19,.31-.37,.47-.56,6.73,3.66,13.34-.9,14.44-6.07,.76-3.52-.21-5.1-1.87-4.76-1.05,.26-1.55,1.08-.83,3.31Zm-11.41,6.96c6.38,3.62,12.83-1.4,13.8-6.67,.27-1.35-.25-2.53-.86-2.8-.86-.38-1.96,.75-.59,2.88-4.8,4.44-9.45-4.1-5.3-8.25h-1.88c-.43,4.54-.88,9.08-5.17,14.83Zm11.35-6.44c-2.73-1.22-3.21-3.3-2.24-5.94-1.35,.64-2.13,2.59-1.34,4.75,.59,1.59,2.26,1.95,3.58,1.19Zm32.26-23.37c5,1.12,8.29,4.65,6.82,8.08-1.16,1.44-2.8,1.53-4.76,.75,1.88,2.77,6.55,2.08,6.64-2.33-.39-4.68-4.84-6.59-8.7-6.49Zm-16.22,12.82c-1.2,.13-2.45,.54-3.58,1.36-.38,.27-.74,.59-1.09,.92,.55-.69,1.08-1.35,1.45-1.82q.82-1.04,1.49-.86c.39,.1,1,.26,1.74,.4Zm-2.92-.57l-.55-.08-1.84,2.88,2.38-2.8Zm-.94-.14l-.33-.13-1.29,2.35,1.62-2.22Zm33.95-22.88c-2.12,2.16-4.29,2.39-6.49,.6,.44,2.01,1.32,3.13,2.91,2.86,2.06-.69,3.01-1.97,3.59-3.46Zm-4.31,3.89c2.91,2.02,8.1-.76,6.41-6.02,.6-.01,1.2-.03,1.79-.04-.52-3.59-2.66-5.54-5.68-6.62,1.89,1.75,3.54,3.68,2.56,7.61-.81,3.42-2.34,5.43-5.08,5.08Zm-1.41-3.89c1.83,1.32,4.94,.83,5.77-1.84,1.61-5.29-3.99-9.06-8.25-4.49-1.87,1.9-3.4,7.63-3.85,13.55,.58-1.05,.3-1.03,.88-2.08,.07-6.56,3.13-10.37,5.53-10.57,3.39-.02,3.41,5.06-.09,5.43Zm5.92-11.3c.96,.69,1.98,1.61,2.55,2.53,1.67,.4,2.93,.21,4.01-.64-.51-1.12-1.91-1.99-3.4-2.66-1.09,.55-2.13,.73-3.16,.77Zm1.38-13.86c1.61-1.18,3.3-.78,5.11,1.52-1.29-2.56-2.86-3.91-4.72-4.02-.13,.83-.26,1.67-.38,2.5Zm-2.2,5.81l2.16,.6-1.56-1.79-.6,1.2Zm-59.3,61.89v.09s.03-.07,0-.09Zm2.1-5.21c.08-.43,.16-.85,.23-1.28,1.15-2.52,1.94-5.2,2.6-7.94-.24,.29-.48,.58-.72,.88-1,2.75-2.55,6.92-3.37,9.1q-.89,2.39-.88,2.81c0,.35,.02,.98,.03,1.47,4.74-5.34,6.59-10.87,6.9-16.37-.24,.24-.48,.48-.71,.72-.21,4.78-1.84,9.02-4.45,12.87,0-.27-.01-.54-.02-.81,2.49-3.46,3.9-7.45,4.33-11.92-.25,.27-.51,.55-.75,.83-.2,3.44-1.28,6.65-3.19,9.64Zm10.32-19.7s-.01-.09-.02-.14c-.09-.07-.19-.14-.28-.21l.3,.35Zm-3.94,6.91c1.18-.41,2.12-1.15,2.79-2.08-.96,.62-1.89,1.32-2.79,2.08Zm-7.87,19.18c.58,.47,1.74,1.28,2.93,1.83,1.19,.55,2.41,.84,3.72,.9,1.31,.06,2.71-.09,4.19-.64,1.48-.54,3.05-1.47,4.7-2.78,1.65-1.31,3.39-3,4.79-4.66,1.4-1.65,2.47-3.26,3.4-4.66,.93-1.4,1.71-2.6,2.4-3.38,.69-.78,1.29-1.15,1.87-1.27,.58-.12,1.15,0,1.47,.3,.32,.29,.39,.75,.25,1.06s-.5,.48-.84,.49c-.34,0-.67-.15-.86-.31-.19-.16-.25-.33-.31-.37-.06-.04-.12,.06-.28,.31-.16,.25-.43,.65-.41,1.26,.02,.61,.34,1.44,.8,2.06,.46,.62,1.08,1.03,1.92,1.22,.85,.19,1.93,.14,2.83-.1,.9-.24,1.61-.68,2.23-1.38,.62-.7,1.15-1.65,1.39-2.75,.24-1.1,.2-2.34-.26-3.49-.46-1.15-1.35-2.22-2.42-2.9-.42-.26-.86-.47-1.33-.61,1.1-.03,2.23-.18,3.35-.44,1.54-.37,3.04-.95,4.37-1.75,1.33-.8,2.51-1.81,3.57-2.91,1.06-1.1,2-2.3,2.54-3.03s.7-1,.77-1.14c.08-.14,.09-.14,.3,.01,.22,.15,.64,.45,.94,.85,.3,.4,.47,.9,.47,1.34,0,.44-.18,.84-.49,1.14-.31,.31-.75,.53-.97,.64q-.22,.11-.14,.38c.08,.27,.24,.82,.54,1.31,.3,.49,.76,.93,1.41,1.22,.65,.3,1.49,.46,2.31,.39s1.64-.39,2.41-1.14c.78-.75,1.52-1.95,1.74-3.13,.23-1.18-.06-2.35-.48-3.45-.42-1.1-.97-2.12-1.88-2.95-.92-.82-2.2-1.45-3.03-1.78-.83-.33-1.2-.37-1.38-.38-.18-.02-.18-.02-.09-1.16,.08-1.15,.24-3.44,.6-5.23,.36-1.79,.91-3.09,1.37-4.04,.46-.95,.83-1.56,1.25-2.03,.42-.47,.88-.82,1.39-.97,.51-.16,1.05-.13,1.47,.04,.42,.17,.7,.47,.85,.82,.15,.35,.17,.73,.1,1.12-.07,.39-.22,.78-.48,1.07-.27,.29-.65,.47-1.06,.56-.41,.09-.83,.08-1.05,.07-.22-.01-.24-.02-.29,.21-.06,.23-.16,.72-.09,1.41,.07,.69,.31,1.58,.8,2.31,.48,.74,1.21,1.32,2.02,1.66,.81,.34,1.71,.44,2.57,.35,.87-.09,1.7-.37,2.42-.88,.72-.52,1.32-1.27,1.69-1.85,.37-.58,.5-1,.54-1.52,.04-.53-.01-1.17-.07-1.58-.05-.42-.11-.61,.07-.71,.18-.1,.6-.1,.93-.16,.33-.06,.56-.18,.68-.46s.12-.71,.03-1.46c-.09-.75-.27-1.82-.55-2.64-.29-.82-.68-1.39-.87-1.67q-.2-.28,.23-.25c.43,.03,1.29,.1,2.02-.1,.73-.19,1.33-.64,1.63-.87q.3-.22,.05-.58c-.25-.36-.75-1.07-1.29-1.59-.54-.52-1.13-.86-1.43-1.03s-.31-.17,.29-.52c.6-.35,1.8-1.06,2.73-2.25,.93-1.2,1.58-2.88,1.87-4.22,.29-1.33,.21-2.31-.08-3.48-.29-1.17-.81-2.54-1.46-3.65-.65-1.11-1.43-1.98-2.13-2.55-.7-.57-1.32-.85-1.96-.97-.6-.11-1.21-.09-1.56-.07-.03,.24-.07,.48-.11,.72,5.15,.02,6.72,5.84,6.72,9.02-.52,5.82-4.76,7.97-10.75,8.38,3.05,1.53,4.98,3.84,5.75,6.96-2.94-4.83-6.74-6.32-11.84-2.78,1.26-2.38,3.87-4.05,7.52-5.17,6.44-1.23,9.43-4.6,7.78-10.85-1.2-2.96-3.04-4.21-5.21-4.62l-.07-.39c-.6,3.15-1.86,6.28-3.76,9.15,.16,.16,.33,.3,.48,.42,.61,.47,1.11,.74,1.78,.83,.67,.08,1.49-.02,1.91-.08,.41-.06,.41-.06,.35-.18-.06-.12-.18-.35-.21-.69-.03-.34,.04-.8,.29-1.1,.26-.31,.72-.46,1.08-.34,.37,.12,.64,.53,.8,1,.16,.47,.2,.99,.04,1.51-.16,.52-.53,1.03-1.16,1.54-1.65,1.34-3.74,1.94-6.04,2.33-1.12,.19-2.18,.41-3.5,.99-1.32,.58-3.05,1.77-4.25,3.23-1.21,1.46-1.99,2.96-2.46,4.42-.55,1.68-.65,3.09-.63,5.58,0,.33,.09,.37-.2-.38-.29-.75-.89-2.29-1.71-3.62-.83-1.33-1.89-2.46-3.4-3.34-.65-.38-1.38-.71-2.13-.98-.82,.05-1.65,.05-2.48,0,3.84,.4,7.44,2.59,10.27,10.79,.16-5.2,.4-10.37,5.51-14.19,3.14-2.02,7.35-1.63,10.6-3.76,3.14-2.05,2.88-5.27,.68-5.83-.86-.25-1.96,.4-1.97,2.07-2.85-1.39-1.99-3.19-.72-5.04,4.92-2.55,9.17,5.05,2.44,9.53-2.47,1.59-9.77,.97-13.16,8.76-1.55,2.73-1.96,4.25-2.48,7.03-.3,2.12-.38,5.27-1.15,7.62-.17-.03-.34-.06-.51-.09-.12-9.29-4.35-14.17-10.51-16.96,.06,0,.12,0,.18,0-1.12-.1-2.24-.28-3.38-.55-.39,.07-.4,.12-.42,.44-.03,.37-.08,1.12-.02,1.66,.07,.54,.26,.87,.36,1.03q.1,.16-.19,.14c-.2-.01-.54-.04-1.06,.12l-3.73,2.83c-.1,.14-.19,.28-.28,.42-.24,.41-.44,.84-.59,1.29,.18,.08,.35,.16,.52,.25,.86-2.24,2.79-3.74,6.01-4.37-.29-1.27-.46-2.47,0-3.29,4.32,1.24,7.43,3.56,9.7,6.62-4.75-4.64-8.9-3.33-12.9-.56-.65,.76-1.17,1.51-1.57,2.25,.21,.12,.41,.24,.61,.37,.87-1.86,2.76-3.4,5.54-4.24,8.1,.2,11.3,4.77,10.85,12.6l-2.31,.21c.49-5.56-4-10.41-7.44-9.91-2.5,.49-3.98,1.54-3.95,3.44,.68,.67,1.25,1.39,1.72,2.14,.64,.05,1.32-.21,1.84-.83,.14,1.49-.14,2.67-.67,3.47,.08,.3,.15,.61,.21,.92,1.12-1.22,1.5-3.58,.89-5.23,3.31,1.35,2.82,6.61-.74,7.69-.02,.4-.06,.8-.12,1.21,.4-.14,.78-.34,1.14-.58,.77-.52,1.42-1.3,1.8-1.98,.38-.68,.48-1.25,.52-1.98,.04-.72,.03-1.59-.17-2.4-.2-.81-.57-1.56-1.08-2.01-.5-.46-1.13-.62-1.53-.69-.4-.07-.57-.06-.65-.05q-.09,0-.06,.18c.02,.17,.06,.52-.09,.85-.15,.32-.49,.62-.88,.66-.39,.04-.82-.19-1.08-.5-.25-.31-.32-.7-.3-1.07,.02-.37,.14-.72,.45-1.09s.84-.77,1.46-1.04c.62-.26,1.34-.39,2.05-.36,.71,.04,1.41,.24,2.01,.6,.61,.36,1.12,.89,1.73,1.68,.61,.79,1.31,1.83,1.75,2.8,.44,.97,.6,1.86,.62,2.58,.02,.72-.09,1.27-.15,1.54q-.06,.27-.71,.43c-.65,.16-1.95,.48-4.02,1.65-.91,.51-1.98,1.18-3.04,1.9-.05,.21-.1,.41-.16,.62,2.97-2.13,6.11-3.64,9.52-4.07,7.4-.43,10.48,2.11,10.98,6.41-1.99-5.05-6.1-6.65-10.77-5-4.35,.33-7.44,1.59-9.9,3.23-.11,.33-.23,.67-.36,1.01,3.26-2.34,6.69-3.86,10.48-3.62,4.95,.15,8.28,3.05,8.16,5.66-.45,2.22-1.81,2.79-4.02,1.82,2.34-2.34,.28-5.5-4.06-6.24-4.44-.24-8.29,1.47-10.95,3.27-.19,.41-.39,.82-.61,1.24,2.06-1.62,4.81-3.19,8.18-3.72-2.63,3.34-5.88,5.15-9.7,5.55-.25,.23-.5,.45-.75,.66,1.67-.14,3.46-.6,5.38-1.4,2.02-.85,4.01-2.5,5.98-4.83,1.07-.17,2-.17,2.78,0-2.57,3.27-5.4,5.64-8.59,6.75-2.61,.9-5.09,1.2-7.42,.75-.25,.14-.51,.27-.77,.38,6.6,1.73,13.19-1.91,17.2-7.75,.18,.21,.17-.06,.35,.15-2.1,3.88-5.79,6.47-9.2,7.53-3.48,1.23-6.55,1.31-9.26,.42-.24,.08-.49,.15-.73,.21,2.91,1.11,6.45,1.13,10.81-.25,4.22-1.76,6.9-4.52,9.02-7.65,.16,.04,.31,.09,.47,.13-2.42,4.04-5.55,6.71-9.27,8.25-3.72,1.24-7.61,1.1-11.65-.34-.39,.07-.79,.12-1.18,.15l.22,.11q.35,.17-.19,1.13c-.54,.96-1.62,2.89-2.16,3.85l-.06,.11c-.05-.28-.13-.59-.25-.91-.34-.86-1-1.82-1.77-2.46-.77-.65-1.64-.99-2.48-1.22-.84-.23-1.65-.34-2.33-.32-.68,.02-1.22,.18-1.49,.26q-.27,.08,0-.29c.28-.36,.83-1.09,1.2-2,.11-.27,.2-.55,.27-.84-.36-.21-.71-.42-1.07-.65,.06,.38,.07,.76,.02,1.15l.33,.38c-.15,.07-.3,.13-.44,.2-.07,.25-.16,.51-.28,.77-1.15,2.18-4.05,4.09-6.17,3.49-.3,.26-.59,.54-.88,.82-.32,6.57-2.68,11.79-7.12,16.87,.01,.48,.03,.61,.61,1.08Z"/><path class="cls-8" d="M125.66,4.07c-7.2-4.95-13.03-1.95-18.18,4.96-3.62,5.33-6.93,9.4-9.53,10.51-2.71,.75-4.72-2-3.46-4.34,.5-.79,1.23-1.21,2.24-1.2-.96-.66-2.93-.77-3.71,1.07-1.34,3.12,.75,5.85,3.69,5.51,3.65-.27,10.3-9.12,11.45-10.94,4.93-6.69,10.42-10.01,17.23-5.19,.09-.13,.18-.26,.27-.38m.4-.59c-6.2-5.35-12.68-3-19.34,4.29-3.36,4.22-6.21,9.75-8.76,10.58-1.64,.47-3.85-1.85-1.11-3.72-1.23-.06-2.61,1.15-1.88,3.21,1.15,2.11,3.6,1.51,6.02-1.32,2.11-2.72,4.22-5.44,6.32-8.16,5.93-7.57,12.07-9.56,18.5-4.49,.08-.13,.16-.26,.23-.38Zm-33.47,9.16c-.21,.12-.68,.45-1.13,1.09-.45,.63-.88,1.57-.94,2.65-.06,1.08,.25,2.29,.67,3.05,.42,.76,.96,1.08,1.52,1.29,.55,.22,1.11,.34,1.55,.38,.44,.04,.76,0,.92-.01q.16-.02-.01-.06c-.17-.05-.52-.14-.91-.34-.39-.2-.81-.52-1.21-.96-.39-.44-.76-1.02-1.02-1.64-.27-.62-.44-1.28-.48-1.98-.04-.7,.04-1.44,.26-2.02,.21-.58,.55-.99,.75-1.24,.19-.25,.24-.32,.03-.2Zm-.33,4.79c-.08-.25-.25-.88-.21-1.61,.03-.73,.27-1.56,.58-2.21,.3-.65,.68-1.13,1.12-1.42,.44-.29,.96-.41,1.51-.4,.55,0,1.13,.14,1.67,.45,.54,.31,1.03,.8,1.29,1.27,.26,.48,.28,.94,.26,1.25-.02,.31-.08,.46-.11,.54q-.03,.08-.06-.07c-.03-.15-.1-.45-.32-.82-.22-.36-.58-.79-1.14-1.04-.56-.25-1.32-.33-2.01-.18-.7,.15-1.34,.55-1.77,1.07-.43,.52-.64,1.17-.73,1.72-.09,.54-.05,.98-.03,1.27,.03,.29,.04,.44-.04,.19Zm-.32,3.47c3.97,3.47,8.94,.71,12.84-5.32-.61,4.8,1.37,6.51,4.02,7.44-2.46-1.73-4.67-6.23-2.01-10.56-5.87,7.69-10.98,11.18-14.85,8.44Zm15.23-8.23c-.66,7.2,3.44,10.32,7.9,8.97-3.29,2.21-6.4,3.04-8.66-3.04-.48-2.03-.42-4.02,.75-5.94Zm3.2,7.78c1.27,.53,2.79,.14,4.44-1.37,2.53-.96,3.18-3.08,2.01-6.32,1.97,3.14,1.53,6.87-1.11,8.12-2.8,1.01-4.42,.67-5.34-.43Zm2.48-7.61c4.45,2.1,1.6,7.04-1.64,7.2-3.8-.75-4.42-7.58-2.58-10.08C112.06,4.18,118.86,0,125.07,4.76c-.16,.18-.31,.37-.47,.56-6.73-3.66-13.34,.9-14.44,6.07-.76,3.52,.21,5.1,1.87,4.76,1.05-.26,1.55-1.08,.83-3.31Zm11.42-6.96c-6.37-3.62-12.83,1.39-13.8,6.67-.27,1.35,.25,2.53,.87,2.8,.86,.38,1.96-.75,.59-2.88,4.8-4.44,9.45,4.1,5.3,8.25h1.88c.43-4.54,.88-9.08,5.17-14.83Zm-9.96,28.5c-1.87-1.99-2.82-4.29-2.81-6.92,.79,2.32,1.81,4.32,3.5,5.43-.23,.5-.46,.99-.69,1.49Zm4.61-8.54c-1.34-.31-2.24-.46-3.53,.94-1.16,1.39-.39,3.2,.28,5.17,1.08-2.04,2.16-4.07,3.25-6.11Zm.47-1.4c-.06-.72-.13-1.44-.19-2.16-2.9,.5-3.69,2.11-4.08,3.93,.83-.75,2.13-1.37,4.27-1.77Zm-4.08,8.16l.21-.39,.08-.15-.29,.53Zm-2.4-20.29c2.73,1.22,3.21,3.3,2.24,5.94,1.35-.64,2.12-2.58,1.34-4.75-.59-1.59-2.26-1.95-3.58-1.19Zm.87,22.6c-2.62-.15-4.54,.63-5.94,2.07-2.16,2.28-2.23,4.56-1.71,6.84,.16-.14,.33-.28,.49-.43-.29-4.35,2.45-6.61,6.84-7.71,.11-.26,.21-.51,.32-.77Zm-1.97,1.84c-1.5,.89-2.07,1.96-1.84,3.18-.63,.69-1.27,1.38-1.9,2.07-.41-2.77,1.08-4.37,3.74-5.26Zm-4.19,5.51c-.28-.68-.17-1.61-.04-2.54-.47,.98-.72,2.09-.68,3.35,.24-.27,.48-.54,.71-.81Zm2.46-7.54c-1.65-.13-3.78,.53-5.9,1.15-1.55,.4-3.03,.39-4.46,.11,1.56,1.76,5.13,2.9,6.73,1.62,.9-1.5,2.21-2.29,3.63-2.88Zm3.16-.51c-1.6-1.21-2.98-2.12-7.03-2.25-3.22-.15-6.5,2.41-7.11,3.36,1.98,.4,4.27,.22,6.82-.47,2.81-.9,4.91-.47,7.33-.64Zm-8.25-5.26c-.94,.45-.67,2.35,.9,2.15,.34-.05,.73-.13,.92-.42,.63,.34,1.27,.68,1.9,1.03-1.27-.35-2.62-.41-4.06-.19-.51,.17-1.03,.34-1.54,.51-1.35-.95-1.81-2.25-.36-4.34,1.15-1.19,3.06-1.01,3.93,.94,.32,.67,.03,1.7-.47,1.9-1.11,.21-1.59-.25-1.22-1.58Zm2.33,.85l4.04,2.73-4.14-2.2,.11-.53Zm-.06-.94l.11,.47,3.21,2.09-3.31-2.56Zm-.53-1.39l.45,.73,3.84,3.12-4.29-3.85Zm-1.75-1.2c-5.54-3.07-10.8-3.88-15.77-2.22-3.73,1.53-6.86,4.21-9.27,8.25,.16,.04,.31,.08,.47,.13,2.11-3.13,4.79-5.89,9.02-7.65,6.14-1.94,10.65-1.11,14.06,1.62,.5-.04,1-.09,1.49-.13Zm-2.39,.56c-7.82-4.85-16.37-1.01-21.19,6.01-.18-.21-.17,.06-.35-.15,2.1-3.88,5.79-6.47,9.2-7.53,5.12-1.8,9.34-1.13,12.86,1.45-.17,.07-.34,.14-.51,.21Zm-.38,.56c-3.48-2.49-7.46-2.65-11.79-1.15-3.19,1.11-6.02,3.48-8.59,6.75,.78,.17,1.71,.17,2.78,0,1.97-2.33,3.96-3.98,5.98-4.83,4.37-1.83,8.06-1.89,11.17-.41,.15-.12,.3-.24,.45-.36Zm-16.7,5.58c2.77-3.51,6.22-5.33,10.3-5.6-2.08,2.08-5.59,4.87-10.3,5.6Zm12.43-5.47c-3.55,3.52-7.27,7.49-15.51,8.12-4.66,1.65-8.78,.05-10.77-5,.5,4.3,3.58,6.84,10.98,6.41,5.73-.73,10.67-4.47,15.38-9.14-.03-.13-.05-.26-.08-.39Zm-17.29,8.18c-4.99-1.12-8.29-4.65-6.81-8.08,1.16-1.44,2.8-1.53,4.77-.75-1.89-2.77-6.55-2.08-6.64,2.33,.38,4.68,4.84,6.59,8.69,6.5Zm-2.58-8.16c-2.21-.97-3.57-.41-4.02,1.82-.12,2.61,3.21,5.51,8.16,5.66,5.66,.37,10.51-3.19,15.19-7.56-.27-.02-.54-.04-.81-.06-1.43,1.87-7.13,6.78-14.46,6.39-4.34-.74-6.4-3.9-4.06-6.24Zm32.24,12.12c.72-.89,1.44-1.77,2.16-2.66-1.29,.41-2.23,1.4-2.16,2.66Zm-6.07-20.59c.05,.28,.13,.59,.25,.91,.34,.86,1.01,1.82,1.78,2.46,.77,.65,1.64,.99,2.48,1.22,.84,.23,1.65,.34,2.33,.32,.68-.02,1.22-.18,1.49-.26q.27-.08,0,.28c-.28,.36-.83,1.09-1.2,2-.36,.91-.53,2.01-.43,3.02,.1,.92,.42,1.77,.84,2.57-.22-.24-.45-.49-.69-.75-1.31-1.37-3.05-2.96-4.38-3.97-1.32-1.01-2.23-1.44-3.03-1.82-.8-.38-1.5-.73-1.85-.9q-.35-.17,.19-1.13c.54-.96,1.62-2.89,2.16-3.85l.06-.11Zm-7.36,3.81c1.2-.13,2.45-.54,3.58-1.36,.38-.27,.74-.59,1.09-.92-.55,.69-1.08,1.35-1.45,1.82q-.82,1.04-1.48,.86c-.39-.1-1-.26-1.74-.4Zm2.92,.57l.54,.09,1.84-2.88-2.38,2.8Zm.94,.14l.33,.13,1.29-2.35-1.62,2.22Zm-9.81,20.02c-3.64-1.48-2.68-7.72,1.92-7.88,4.82,.55,6.06,4.85,5.98,7.9-.72-4.22-2.41-6.73-5.98-5.94-1.87,.61-2.69,3.83-1.92,5.92Zm.43-.83c-.42-4.36,2.84-6.12,5.21-3.33,3.27,4.36,1.34,9.23-4.49,10.98-8.1-.2-11.3-4.77-10.85-12.61,.77-.07,1.54-.14,2.31-.21-.49,5.56,4,10.41,7.44,9.91,2.93-.57,4.46-1.92,3.8-4.49-.66-1.31-2.38-1.51-3.41-.26Zm.46-7.44c2.67-1.4,5.15,.08,7.48,4.14,1.74,6.54,.27,10.9-5.86,12.09,.29,1.27,.46,2.47,0,3.29-4.32-1.24-7.43-3.56-9.7-6.62,4.75,4.64,8.9,3.33,12.91,.56,6.66-7.74-.7-14.43-4.83-13.46Zm-25.04,11.13c2.12-2.16,4.29-2.39,6.5-.6-.44-2.01-1.33-3.13-2.91-2.86-2.06,.69-3.01,1.97-3.59,3.46Zm4.32-3.89c-2.91-2.01-8.1,.76-6.41,6.03-.6,.01-1.2,.03-1.79,.04,.52,3.59,2.66,5.54,5.68,6.62-1.89-1.75-3.54-3.68-2.56-7.61,.81-3.42,2.34-5.43,5.09-5.08Zm1.41,3.89c-1.83-1.32-4.94-.83-5.77,1.84-1.61,5.29,3.99,9.06,8.25,4.49,1.87-1.89,3.4-7.63,3.84-13.55-.58,1.05-.3,1.03-.88,2.08-.08,6.56-3.13,10.37-5.53,10.57-3.39,.02-3.42-5.06,.09-5.43Zm-5.92,11.3c-.96-.69-1.98-1.61-2.55-2.53-1.67-.4-2.93-.21-4.01,.64,.51,1.12,1.92,1.99,3.4,2.66,1.09-.55,2.13-.73,3.16-.77Zm.82,8.05l-2.16-.6,1.56,1.79,.6-1.2ZM126.71,3.92v-.09s-.03,.07,0,.09Zm-6.93,20.25c.07-.13,.13-.26,.19-.39,1.15-2.31,1.3-2.89,2.26-5.57,.18-.5,.39-1.08,.62-1.71,.66-2.11,1.25-4.28,1.76-6.54,.49-1.27,.78-3.54,2.07-3.86,.07-.25,.07-.35,.06-.53,0-.35-.02-.98-.03-1.47-5.78,6.51-7.26,13.3-6.9,19.99,0-.02-.02,.02-.04,.07Zm5.2-17.29c0,.27,.01,.54,.02,.81-2.91,4.04-4.35,8.8-4.46,14.21-.26-5.68,1.45-10.6,4.44-15.02Zm-.36,2.25c-.08,.43-.16,.85-.23,1.28-1.38,3.03-2.24,6.3-2.99,9.61-.02-3.92,1.08-7.55,3.23-10.9Zm1.49-6.39c-.58-.47-1.74-1.28-2.93-1.83-1.19-.55-2.42-.84-3.73-.9-1.31-.06-2.71,.09-4.19,.64-1.48,.54-3.05,1.47-4.7,2.78-1.65,1.31-3.39,3.01-4.79,4.66-1.4,1.65-2.47,3.26-3.4,4.66-.93,1.4-1.71,2.6-2.4,3.38-.69,.78-1.29,1.15-1.87,1.28-.58,.12-1.15,0-1.47-.3-.32-.29-.39-.75-.25-1.06,.14-.31,.5-.48,.84-.49,.34,0,.67,.15,.86,.31,.19,.16,.25,.33,.31,.37,.06,.04,.11-.06,.28-.31,.16-.25,.43-.65,.41-1.26-.02-.61-.33-1.44-.8-2.06-.46-.62-1.08-1.03-1.92-1.22-.85-.19-1.93-.14-2.83,.1-.9,.24-1.61,.68-2.23,1.38-.62,.7-1.15,1.65-1.39,2.75-.24,1.1-.2,2.34,.26,3.49,.46,1.15,1.35,2.22,2.42,2.9,.42,.26,.86,.47,1.33,.61-1.09,.03-2.23,.18-3.35,.44-1.54,.37-3.04,.95-4.37,1.75-1.34,.8-2.51,1.81-3.57,2.91-1.06,1.1-2,2.3-2.54,3.03-.54,.73-.7,1-.77,1.14-.08,.14-.09,.14-.3-.01-.22-.15-.64-.45-.94-.85-.3-.4-.47-.9-.47-1.34,0-.45,.18-.84,.49-1.14,.31-.31,.75-.53,.97-.64q.22-.11,.14-.38c-.08-.27-.24-.82-.54-1.31-.3-.49-.76-.93-1.41-1.23-.65-.3-1.49-.46-2.31-.39-.82,.07-1.64,.39-2.41,1.14-.78,.75-1.52,1.95-1.74,3.13-.23,1.18,.06,2.35,.48,3.45,.42,1.1,.97,2.12,1.88,2.95,.92,.82,2.2,1.45,3.03,1.78,.83,.33,1.2,.37,1.38,.38,.18,.02,.17,.02,.09,1.16-.08,1.15-.24,3.44-.6,5.23-.36,1.79-.91,3.09-1.37,4.04-.46,.95-.83,1.56-1.25,2.03-.42,.47-.88,.82-1.38,.97-.51,.16-1.05,.13-1.47-.04-.42-.17-.7-.47-.85-.82-.15-.34-.16-.73-.1-1.12,.07-.39,.22-.78,.48-1.07,.27-.29,.65-.47,1.06-.56,.41-.09,.83-.08,1.05-.07,.22,.01,.23,.03,.29-.21,.06-.23,.16-.72,.09-1.41-.07-.69-.31-1.58-.8-2.31-.48-.74-1.21-1.32-2.02-1.66s-1.71-.44-2.57-.35c-.87,.09-1.7,.37-2.42,.88-.72,.52-1.32,1.27-1.69,1.86-.37,.58-.49,1-.54,1.52-.04,.53,.01,1.17,.06,1.58,.05,.42,.11,.61-.07,.71-.18,.1-.6,.1-.93,.16-.33,.06-.56,.18-.68,.46-.12,.28-.12,.71-.03,1.46,.09,.75,.27,1.82,.55,2.64,.29,.82,.68,1.39,.87,1.67q.2,.28-.23,.25c-.43-.03-1.29-.1-2.02,.1-.73,.19-1.33,.64-1.63,.86q-.3,.22-.05,.58c.25,.36,.75,1.07,1.29,1.59,.54,.52,1.14,.86,1.44,1.02,.3,.17,.3,.17-.29,.52-.6,.35-1.8,1.06-2.73,2.25-.93,1.2-1.58,2.88-1.87,4.22-.29,1.33-.21,2.31,.08,3.48,.29,1.17,.81,2.54,1.46,3.65,.65,1.11,1.43,1.98,2.13,2.55,.7,.57,1.32,.85,1.96,.97,.5,.09,1.02,.09,1.38,.08,.01-.24,.03-.49,.05-.73-4.96-.2-6.48-5.89-6.49-9.01,.52-5.82,4.76-7.97,10.75-8.38-3.05-1.53-4.98-3.84-5.75-6.96,2.94,4.84,6.74,6.32,11.84,2.78-1.26,2.38-3.87,4.05-7.52,5.17-6.44,1.23-9.43,4.6-7.78,10.85,1.17,2.89,2.95,4.15,5.05,4.58,.03-.18,.05-.36,.08-.55-1.71-.24-3.18-1.58-4.39-3.98,1.72,2.19,3.34,2.65,4.88,1.67,.09-.31,.18-.63,.28-.94-4.83,2.22-8.86-5.23-2.21-9.64,2.47-1.59,9.77-.97,13.16-8.76,1.55-2.73,1.96-4.25,2.49-7.03,.3-2.12,.38-5.27,1.14-7.62,.17,.03,.34,.06,.51,.09,.12,9.29,4.35,14.17,10.51,16.96-4.21-.12-8.21-1.94-11.28-10.85-.15,5.2-.4,10.37-5.51,14.19-3.14,2.02-7.35,1.63-10.6,3.76-3.14,2.05-2.88,5.27-.68,5.83,.86,.25,1.96-.4,1.96-2.07,1.19,.58,1.73,1.23,1.87,1.92,.39-.73,.82-1.44,1.31-2.12h0c-.61-.48-1.11-.75-1.78-.83-.67-.08-1.49,.02-1.91,.08-.41,.06-.41,.06-.35,.18,.06,.12,.18,.35,.21,.69,.03,.34-.04,.8-.3,1.1-.26,.31-.71,.46-1.08,.34-.37-.12-.64-.53-.8-1-.16-.47-.2-.99-.04-1.51,.16-.52,.53-1.03,1.16-1.54,1.65-1.34,3.74-1.94,6.04-2.32,1.12-.19,2.18-.41,3.5-.99,1.32-.58,3.05-1.77,4.25-3.23,1.2-1.46,1.99-2.96,2.46-4.42,.55-1.68,.64-3.09,.63-5.58,0-.33-.09-.37,.2,.38,.29,.75,.89,2.29,1.72,3.62,.83,1.33,1.89,2.46,3.4,3.34,1.51,.88,3.47,1.51,5.08,1.73,1.61,.21,2.87,0,3.5-.1q.63-.1,.66-.48c.03-.37,.09-1.12,.02-1.66-.07-.54-.26-.87-.36-1.03q-.1-.16,.19-.14c.29,.02,.86,.06,1.84-.44,.99-.5,2.39-1.55,3.22-2.93,.83-1.39,1.08-3.11,1.18-4.68,.1-1.57,.03-2.98-.51-4.31-.54-1.34-1.57-2.6-2.39-3.49-.82-.9-1.43-1.43-2.15-1.71-.71-.28-1.53-.31-2.38-.19-.85,.12-1.72,.39-2.49,.91-.77,.52-1.42,1.3-1.8,1.98-.38,.68-.48,1.25-.52,1.98-.04,.72-.03,1.59,.17,2.4s.57,1.56,1.08,2.01c.5,.46,1.13,.62,1.53,.69,.4,.07,.57,.06,.65,.05q.09,0,.06-.18c-.02-.17-.06-.52,.08-.85,.15-.32,.49-.62,.88-.66,.39-.04,.82,.19,1.08,.5,.25,.31,.32,.7,.3,1.07-.02,.37-.13,.72-.45,1.09-.32,.37-.84,.77-1.46,1.04-.62,.26-1.34,.39-2.05,.36-.71-.04-1.41-.24-2.01-.6-.61-.36-1.12-.89-1.73-1.68-.61-.79-1.31-1.83-1.75-2.8-.44-.97-.6-1.86-.62-2.58-.03-.72,.09-1.27,.14-1.54q.06-.27,.71-.43c.65-.16,1.95-.48,4.03-1.64,2.08-1.16,4.94-3.17,6.74-4.64,1.79-1.46,2.52-2.38,2.88-2.84s.36-.46,.62-.44c.26,.02,.78,.05,1.23,.17,.46,.11,.85,.31,1.05,.4,.2,.09,.22,.07,.12,.19-.1,.11-.31,.36-.37,.9-.05,.54,.06,1.39,.28,1.96,.21,.57,.53,.86,.69,1,.16,.14,.17,.13-.29,.36s-1.39,.68-2.16,1.21c-.76,.53-1.35,1.14-1.65,1.44-.3,.3-.32,.3-.1,.55s.65,.73,1.27,1.22c.62,.49,1.42,.99,2.24,1.35,.83,.36,1.68,.57,2.39,.62,.71,.05,1.27-.05,1.56-.11,.29-.06,.29-.07,.14,.41-.15,.48-.46,1.46-.48,2.39-.02,.93,.26,1.81,.4,2.25q.14,.44,.82,.12h.03c2.88-2.82,5.47-5.9,7.77-9.26-.02-.06-.05-.13-.09-.19,.03,0,.05,0,.07,0,.15-.03,.25-.17,1.15-1.84-2.14-2.44-4.04-4.9-2.74-7.67,1.23-2.33,4.47-4.37,6.61-3.32-4.78,.9-6.38,6.71-3.47,10.27,1.05-1.95,2.81-5.23,3.95-7.47-.52-8.42,1.82-14.64,7.09-20.65-.02-.48-.03-.61-.61-1.08Z"/><path class="cls-8" d="M125.66,152.7c-7.2,4.95-13.03,1.95-18.18-4.96-3.62-5.33-6.93-9.4-9.53-10.51-2.71-.75-4.72,2-3.46,4.34,.5,.79,1.23,1.21,2.24,1.2-.96,.66-2.93,.77-3.71-1.07-1.34-3.12,.75-5.85,3.69-5.51,3.65,.27,10.3,9.12,11.45,10.94,4.93,6.69,10.42,10.01,17.23,5.19,.09,.13,.18,.26,.27,.38m.4,.59c-6.2,5.35-12.68,3-19.34-4.29-3.36-4.22-6.21-9.75-8.76-10.58-1.64-.47-3.85,1.85-1.11,3.72-1.23,.06-2.61-1.15-1.88-3.2,1.15-2.11,3.6-1.51,6.02,1.32,2.11,2.72,4.22,5.44,6.32,8.16,5.93,7.57,12.07,9.56,18.5,4.49,.08,.13,.16,.26,.23,.38Zm-33.47-9.16c-.21-.12-.68-.45-1.13-1.09-.45-.63-.88-1.57-.94-2.65-.06-1.08,.25-2.29,.67-3.05,.42-.76,.96-1.08,1.52-1.29,.55-.22,1.11-.34,1.55-.38s.76,0,.92,.01q.16,.02-.01,.06c-.17,.05-.52,.14-.91,.34-.39,.2-.81,.52-1.21,.96-.39,.45-.76,1.02-1.02,1.64-.27,.62-.44,1.28-.48,1.98-.04,.7,.04,1.44,.26,2.02,.21,.58,.55,.99,.75,1.24,.19,.25,.24,.32,.03,.2Zm-.33-4.79c-.08,.25-.25,.88-.21,1.61,.03,.73,.27,1.56,.58,2.21,.3,.65,.68,1.13,1.12,1.42,.44,.3,.96,.41,1.51,.4,.55,0,1.13-.14,1.67-.45,.54-.31,1.03-.8,1.29-1.27,.26-.48,.28-.94,.26-1.25-.02-.31-.08-.46-.11-.54q-.03-.08-.06,.07c-.03,.15-.1,.45-.32,.82-.22,.36-.58,.79-1.14,1.04-.56,.25-1.32,.33-2.01,.18-.7-.15-1.34-.55-1.77-1.07-.43-.52-.64-1.17-.73-1.72-.09-.54-.05-.98-.03-1.27,.03-.29,.04-.44-.04-.19Zm-.32-3.47c3.97-3.47,8.94-.71,12.84,5.32-.61-4.8,1.37-6.51,4.02-7.43-2.46,1.73-4.67,6.23-2.01,10.55-5.87-7.69-10.98-11.18-14.85-8.44Zm15.23,8.23c-.66-7.2,3.44-10.32,7.9-8.97-3.29-2.21-6.4-3.04-8.66,3.03-.48,2.03-.42,4.02,.75,5.94Zm3.2-7.78c1.27-.53,2.79-.14,4.44,1.37,2.53,.96,3.18,3.08,2.01,6.32,1.97-3.14,1.53-6.87-1.11-8.12-2.8-1.01-4.42-.67-5.34,.43Zm2.48,7.61c4.45-2.1,1.6-7.04-1.64-7.2-3.8,.75-4.42,7.58-2.58,10.08,3.44,5.78,10.24,9.96,16.45,5.19-.16-.19-.31-.37-.47-.56-6.73,3.66-13.34-.9-14.44-6.07-.76-3.52,.21-5.1,1.87-4.76,1.05,.26,1.55,1.08,.83,3.31Zm11.42,6.96c-6.37,3.62-12.83-1.4-13.8-6.67-.27-1.35,.25-2.53,.87-2.8,.86-.38,1.96,.75,.59,2.88,4.8,4.44,9.45-4.1,5.3-8.25h1.88c.43,4.54,.88,9.08,5.17,14.83Zm-11.35-6.44c2.73-1.22,3.21-3.3,2.24-5.94,1.35,.64,2.12,2.59,1.34,4.75-.59,1.59-2.26,1.95-3.58,1.19Zm-32.26-23.37c-4.99,1.12-8.29,4.65-6.81,8.08,1.16,1.44,2.8,1.53,4.77,.75-1.89,2.77-6.55,2.08-6.64-2.33,.38-4.68,4.84-6.59,8.69-6.49Zm16.22,12.82c1.2,.13,2.45,.54,3.58,1.36,.38,.27,.74,.59,1.09,.92-.55-.69-1.08-1.35-1.45-1.82q-.82-1.04-1.48-.86c-.39,.1-1,.26-1.74,.4Zm2.92-.57l.54-.08,1.84,2.88-2.38-2.8Zm.94-.14l.33-.13,1.29,2.35-1.62-2.22Zm-33.95-22.88c2.12,2.16,4.29,2.39,6.5,.6-.44,2.01-1.33,3.13-2.91,2.86-2.06-.69-3.01-1.97-3.59-3.46Zm4.32,3.89c-2.91,2.02-8.1-.76-6.41-6.02-.6-.01-1.2-.03-1.79-.04,.52-3.59,2.66-5.54,5.68-6.62-1.89,1.75-3.54,3.68-2.56,7.61,.81,3.42,2.34,5.43,5.09,5.08Zm1.41-3.89c-1.83,1.32-4.94,.83-5.77-1.84-1.61-5.29,3.99-9.06,8.25-4.49,1.87,1.9,3.4,7.63,3.84,13.55-.58-1.05-.3-1.03-.88-2.08-.08-6.56-3.13-10.37-5.53-10.57-3.39-.02-3.42,5.06,.09,5.43Zm-5.92-11.3c-.96,.69-1.98,1.61-2.55,2.53-1.67,.4-2.93,.21-4.01-.64,.51-1.12,1.92-1.99,3.4-2.66,1.09,.55,2.13,.73,3.16,.77Zm-1.38-13.86c-1.61-1.18-3.3-.78-5.11,1.52,1.29-2.56,2.86-3.91,4.72-4.02,.13,.83,.26,1.67,.38,2.5Zm2.2,5.81l-2.16,.6,1.56-1.79,.6,1.2Zm59.3,61.89v.09s-.03-.07,0-.09Zm-2.1-5.21c-.08-.43-.16-.85-.23-1.28-1.15-2.52-1.93-5.2-2.6-7.94,.24,.29,.48,.58,.72,.88,1,2.75,2.55,6.92,3.37,9.1q.89,2.39,.88,2.81c0,.35-.02,.98-.03,1.47-4.74-5.34-6.59-10.87-6.9-16.37,.24,.24,.48,.48,.71,.72,.21,4.78,1.84,9.02,4.45,12.87,0-.27,.01-.54,.02-.81-2.49-3.46-3.9-7.45-4.33-11.92,.25,.27,.51,.55,.75,.83,.2,3.44,1.28,6.65,3.19,9.64Zm-10.32-19.7s.01-.09,.02-.14c.09-.07,.19-.14,.28-.21l-.3,.35Zm3.94,6.91c-1.18-.41-2.12-1.15-2.79-2.08,.96,.62,1.89,1.32,2.79,2.08Zm7.87,19.18c-.58,.47-1.74,1.28-2.93,1.83-1.19,.55-2.42,.84-3.73,.9-1.31,.06-2.71-.09-4.19-.64-1.48-.54-3.05-1.47-4.7-2.78-1.65-1.31-3.39-3-4.79-4.66-1.4-1.65-2.47-3.26-3.4-4.66-.93-1.4-1.71-2.6-2.4-3.38-.69-.78-1.29-1.15-1.87-1.27-.58-.12-1.15,0-1.47,.3-.32,.29-.39,.75-.25,1.06,.14,.31,.5,.48,.84,.49,.34,0,.67-.15,.86-.31,.19-.16,.25-.33,.31-.37,.06-.04,.11,.06,.28,.31,.16,.25,.43,.65,.41,1.26-.02,.61-.33,1.44-.8,2.06-.46,.62-1.08,1.03-1.92,1.22-.85,.19-1.93,.14-2.83-.1-.9-.24-1.61-.68-2.23-1.38-.62-.7-1.15-1.65-1.39-2.75-.24-1.1-.2-2.34,.26-3.49,.46-1.15,1.35-2.22,2.42-2.9,.42-.26,.86-.47,1.33-.61-1.09-.03-2.23-.18-3.35-.44-1.54-.37-3.04-.95-4.37-1.75-1.34-.8-2.51-1.81-3.57-2.91-1.06-1.1-2-2.3-2.54-3.03s-.7-1-.77-1.14c-.08-.14-.09-.14-.3,.01-.22,.15-.64,.45-.94,.85-.3,.4-.47,.9-.47,1.34,0,.44,.18,.84,.49,1.14,.31,.31,.75,.53,.97,.64q.22,.11,.14,.38c-.08,.27-.24,.82-.54,1.31-.3,.49-.76,.93-1.41,1.22-.65,.3-1.49,.46-2.31,.39-.82-.07-1.64-.39-2.41-1.14-.78-.75-1.52-1.95-1.74-3.13-.23-1.18,.06-2.35,.48-3.45,.42-1.1,.97-2.12,1.88-2.95,.92-.82,2.2-1.45,3.03-1.78,.83-.33,1.2-.37,1.38-.38,.18-.02,.17-.02,.09-1.16-.08-1.15-.24-3.44-.6-5.23-.36-1.79-.91-3.09-1.37-4.04-.46-.95-.83-1.56-1.25-2.03-.42-.47-.88-.82-1.38-.97-.51-.16-1.05-.13-1.47,.04-.42,.17-.7,.47-.85,.82-.15,.35-.16,.73-.1,1.12,.07,.39,.22,.78,.48,1.07,.27,.29,.65,.47,1.06,.56,.41,.09,.83,.08,1.05,.07,.22-.01,.23-.02,.29,.21,.06,.23,.16,.72,.09,1.41-.07,.69-.31,1.58-.8,2.31-.48,.74-1.21,1.32-2.02,1.66-.81,.34-1.71,.44-2.57,.35-.87-.09-1.7-.37-2.42-.88-.72-.52-1.32-1.27-1.69-1.85-.37-.58-.49-1-.54-1.52-.04-.53,.01-1.17,.06-1.58,.05-.42,.11-.61-.07-.71-.18-.1-.6-.1-.93-.16-.33-.06-.56-.18-.68-.46s-.12-.71-.03-1.46c.09-.75,.27-1.82,.55-2.64,.29-.82,.68-1.39,.87-1.67q.2-.28-.23-.25c-.43,.03-1.29,.1-2.02-.1-.73-.19-1.33-.64-1.63-.87q-.3-.22-.05-.58c.25-.36,.75-1.07,1.29-1.59,.54-.52,1.14-.86,1.44-1.03s.3-.17-.29-.52c-.6-.35-1.8-1.06-2.73-2.25-.93-1.2-1.58-2.88-1.87-4.22-.29-1.33-.21-2.31,.08-3.48,.29-1.17,.81-2.54,1.46-3.65,.65-1.11,1.43-1.98,2.13-2.55,.7-.57,1.32-.85,1.96-.97,.6-.11,1.21-.09,1.56-.07,.03,.24,.07,.48,.11,.72-5.15,.02-6.72,5.84-6.73,9.02,.52,5.82,4.76,7.97,10.75,8.38-3.05,1.53-4.98,3.84-5.75,6.96,2.94-4.83,6.74-6.32,11.84-2.78-1.26-2.38-3.87-4.05-7.52-5.17-6.44-1.23-9.43-4.6-7.78-10.85,1.2-2.96,3.05-4.21,5.21-4.62l.07-.39c.6,3.15,1.85,6.28,3.75,9.15-.16,.16-.33,.3-.48,.42-.61,.47-1.11,.74-1.78,.83-.67,.08-1.49-.02-1.91-.08-.41-.06-.41-.06-.35-.18,.06-.12,.18-.35,.21-.69,.03-.34-.04-.8-.3-1.1-.26-.31-.71-.46-1.08-.34-.37,.12-.64,.53-.8,1-.16,.47-.2,.99-.04,1.51,.16,.52,.53,1.03,1.16,1.54,1.65,1.34,3.74,1.94,6.04,2.33,1.12,.19,2.18,.41,3.5,.99,1.32,.58,3.05,1.77,4.25,3.23,1.2,1.46,1.99,2.96,2.46,4.42,.55,1.68,.64,3.09,.63,5.58,0,.33-.09,.37,.2-.38,.29-.75,.89-2.29,1.72-3.62,.83-1.33,1.89-2.46,3.4-3.34,.65-.38,1.38-.71,2.13-.98,.82,.05,1.64,.05,2.47,0-3.84,.4-7.44,2.59-10.27,10.79-.15-5.2-.4-10.37-5.51-14.19-3.14-2.02-7.35-1.63-10.6-3.76-3.14-2.05-2.88-5.27-.68-5.83,.86-.25,1.96,.4,1.96,2.07,2.86-1.39,2-3.19,.73-5.04-4.92-2.55-9.17,5.05-2.43,9.53,2.47,1.59,9.77,.97,13.16,8.76,1.55,2.73,1.96,4.25,2.49,7.03,.3,2.12,.38,5.27,1.14,7.62,.17-.03,.34-.06,.51-.09,.12-9.29,4.35-14.17,10.51-16.96-.06,0-.12,0-.18,0,1.12-.1,2.24-.28,3.38-.55,.39,.07,.39,.12,.42,.44,.03,.37,.09,1.12,.02,1.66-.07,.54-.26,.87-.36,1.03q-.1,.16,.19,.14c.2-.01,.54-.04,1.06,.12l3.72,2.83c.1,.14,.19,.28,.28,.42,.24,.41,.44,.84,.59,1.29-.18,.08-.35,.16-.52,.25-.86-2.24-2.79-3.74-6.01-4.37,.29-1.27,.46-2.47,0-3.29-4.32,1.24-7.43,3.56-9.7,6.62,4.75-4.64,8.9-3.33,12.91-.56,.65,.76,1.17,1.51,1.57,2.25-.21,.12-.41,.24-.61,.37-.87-1.86-2.76-3.4-5.54-4.24-8.1,.2-11.3,4.77-10.85,12.6,.77,.07,1.54,.14,2.31,.21-.49-5.56,4-10.41,7.44-9.91,2.5,.49,3.98,1.54,3.95,3.44-.68,.67-1.25,1.39-1.72,2.14-.64,.05-1.32-.21-1.84-.83-.14,1.49,.14,2.67,.67,3.47-.09,.3-.15,.61-.21,.92-1.12-1.22-1.5-3.58-.89-5.23-3.31,1.35-2.82,6.61,.74,7.69,.02,.4,.06,.8,.12,1.21-.4-.14-.78-.34-1.14-.58-.77-.52-1.42-1.3-1.8-1.98-.38-.68-.48-1.25-.52-1.98-.04-.72-.03-1.59,.17-2.4,.2-.81,.57-1.56,1.08-2.01,.5-.46,1.13-.62,1.53-.69,.4-.07,.57-.06,.65-.05q.09,0,.06,.18c-.02,.17-.06,.52,.08,.85,.15,.32,.49,.62,.88,.66,.39,.04,.82-.19,1.08-.5,.25-.31,.32-.7,.3-1.07-.02-.37-.13-.72-.45-1.09-.32-.37-.84-.77-1.46-1.04-.62-.26-1.34-.39-2.05-.36-.71,.04-1.41,.24-2.01,.6-.61,.36-1.12,.89-1.73,1.68s-1.31,1.83-1.75,2.8c-.44,.97-.6,1.86-.62,2.58-.03,.72,.09,1.27,.14,1.54q.06,.27,.71,.43c.65,.16,1.95,.48,4.03,1.65,.91,.51,1.97,1.18,3.03,1.9,.05,.21,.1,.41,.16,.62-2.97-2.13-6.11-3.64-9.52-4.07-7.4-.43-10.48,2.11-10.98,6.41,1.99-5.05,6.1-6.65,10.77-5,4.35,.33,7.44,1.59,9.91,3.23,.11,.33,.23,.67,.36,1.01-3.26-2.34-6.69-3.86-10.48-3.62-4.95,.15-8.28,3.05-8.16,5.66,.44,2.22,1.8,2.79,4.02,1.82-2.34-2.34-.28-5.5,4.06-6.24,4.44-.24,8.29,1.47,10.95,3.27,.19,.41,.39,.82,.61,1.24-2.06-1.62-4.81-3.19-8.18-3.72,2.63,3.34,5.88,5.15,9.7,5.55,.25,.23,.5,.45,.75,.66-1.67-.14-3.46-.6-5.38-1.4-2.02-.85-4.02-2.5-5.98-4.83-1.07-.17-2-.17-2.78,0,2.57,3.27,5.4,5.64,8.59,6.75,2.61,.9,5.09,1.2,7.42,.75,.25,.14,.51,.27,.77,.38-6.6,1.73-13.19-1.91-17.21-7.75-.18,.21-.17-.06-.35,.15,2.1,3.88,5.79,6.47,9.2,7.53,3.48,1.23,6.55,1.31,9.27,.42,.24,.08,.49,.15,.73,.21-2.91,1.11-6.45,1.13-10.81-.25-4.22-1.76-6.9-4.52-9.02-7.65-.16,.04-.31,.09-.47,.13,2.42,4.04,5.55,6.71,9.27,8.25,3.72,1.24,7.61,1.1,11.65-.34,.39,.07,.79,.12,1.19,.15l-.23,.11q-.35,.17,.19,1.13c.54,.96,1.62,2.89,2.16,3.85l.06,.11c.05-.28,.13-.59,.25-.91,.34-.86,1.01-1.82,1.78-2.46,.77-.65,1.64-.99,2.48-1.22,.84-.23,1.65-.34,2.33-.32,.68,.02,1.22,.18,1.49,.26q.27,.08,0-.29c-.28-.36-.83-1.09-1.2-2-.11-.27-.2-.55-.27-.84,.36-.21,.71-.42,1.08-.65-.06,.38-.07,.76-.02,1.15l-.33,.38c.15,.07,.3,.13,.44,.2,.07,.25,.16,.51,.28,.77,1.15,2.18,4.05,4.09,6.17,3.49,.3,.26,.59,.54,.88,.82,.31,6.57,2.68,11.79,7.12,16.87-.02,.48-.03,.61-.61,1.08Z"/><g class="cls-2"><rect class="cls-1" x="16.53" y="19.47" width="154.36" height="113.09" transform="translate(-11.57 134.98) rotate(-68.3)"/></g><g class="cls-5"><rect class="cls-7" x="103.19" y="-1.16" width="113.09" height="154.36" transform="translate(-16.79 64.46) rotate(-21.7)"/></g><g><path class="cls-3" d="M241.18,190.26c-.22-.06-.47-.08-.75-.08-2.23,0-4.54,1.42-6.93,4.26-3.39,4.12-5.09,7.48-5.09,10.1,0,1.17,.39,1.75,1.17,1.75,1.22,0,2.81-1.28,4.76-3.84,2.72-3.45,5.01-7.51,6.84-12.18m12.27,8.76c0,.28-.17,.67-.5,1.17-2.45,3.95-4.76,6.48-6.93,7.59-1,.5-2,.75-3.01,.75-3.39,0-5.09-2.39-5.09-7.18,0-.78,.05-1.61,.17-2.5-3.73,6.62-7.04,9.93-9.93,9.93-1.72,0-2.59-.95-2.59-2.84,0-2.89,1.39-6.38,4.17-10.47,2.78-4.09,5.48-6.58,8.1-7.47,.95-.39,1.87-.58,2.75-.58,2,0,3.45,.7,4.34,2.09,.17,.28,.25,.47,.25,.58,0,.06-.2,.14-.59,.25-.39,.11-.67,.31-.83,.58-1.33,2.17-2,5.42-2,9.76,0,4.01,.86,6.01,2.59,6.01,1.22,0,2.96-1.35,5.22-4.05,2.25-2.7,3.46-4.05,3.63-4.05s.25,.14,.25,.42Zm-23.45-.5c0,.22-.17,.53-.5,.92-1.95,2.84-4.65,5.43-8.1,7.76-2,1.28-4.12,1.92-6.34,1.92-4.12,0-6.18-2.2-6.18-6.59,0-2.73,1.52-5.73,4.55-9.01,3.03-3.28,5.88-4.92,8.55-4.92,1.78,0,2.67,.7,2.67,2.09,0,.56-.4,1.52-1.21,2.88-.81,1.36-1.46,2.04-1.96,2.04-.22,0-.33-.14-.33-.42,0-.22,.1-.58,.29-1.08,.19-.5,.29-.89,.29-1.17,0-1.17-.72-1.75-2.17-1.75-2,0-3.81,1.31-5.42,3.92-1.5,2.39-2.25,4.65-2.25,6.76,0,3.45,1.5,5.17,4.51,5.17,3.78,0,7.73-2.59,11.85-7.76,.56-.67,1.03-1,1.42-1,.22,0,.33,.08,.33,.25Zm-18.53-.08c0,.45-.17,.92-.5,1.42-4.34,6.9-8.65,10.35-12.94,10.35-3.12,0-4.67-1.81-4.67-5.42s1.17-7.09,3.51-10.93c-.33,.11-.7,.17-1.09,.17-.89,0-1.75-.28-2.59-.83-1-.61-1.5-1.31-1.5-2.09-.61,1.39-1.75,3.37-3.42,5.93-2.06,3.23-3.42,4.84-4.09,4.84-.22,0-.33-.11-.33-.33s.14-.53,.42-.92c2.17-2.95,4.37-6.76,6.59-11.43-.11-.5-.17-1.11-.17-1.84,0-1.28,.25-2.75,.75-4.42,.56-2.11,1.31-3.17,2.25-3.17,.61,0,1.14,.5,1.58,1.5,.39,.78,.59,1.53,.59,2.25,0,1.39-1.14,3.42-3.42,6.09,.5,1.72,1.47,2.59,2.92,2.59,1,0,1.97-.54,2.92-1.63,.95-1.08,1.61-1.63,2-1.63,.5,0,.95,.21,1.33,.63,.39,.42,.58,.9,.58,1.46,0-.06-.97,1.81-2.92,5.59-1.95,3.78-2.92,6.7-2.92,8.76,0,1.95,.92,2.92,2.76,2.92,1.56,0,3.34-.89,5.34-2.67,1.28-1.17,2.78-2.84,4.51-5.01,1.39-1.78,2.12-2.67,2.17-2.67,.22,0,.33,.17,.33,.5Zm-37.64,4.34c-1.84-1.22-3.23-2.64-4.17-4.26-1.67,3.51-2.5,6.04-2.5,7.59,0,1.11,.42,1.67,1.25,1.67,.78,0,1.81-.67,3.09-2,1.11-1.06,1.89-2.06,2.34-3Zm2.75-9.76c0-1.22-.2-2.48-.58-3.76-.55-1.78-1.28-2.67-2.17-2.67-1.28,0-2.28,.78-3,2.34-.56,1.22-.81,2.56-.75,4.01,.89-1.06,1.78-1.59,2.67-1.59,.84,0,1.45,.28,1.84,.84v.42c.05,.17,.08,.31,.08,.42,0,.17-.28,.25-.83,.25-1,0-2.06,1.06-3.17,3.17,.72,2.11,2,3.84,3.84,5.17,1.39-3.51,2.09-6.37,2.09-8.6Zm9.85,6.34c0,.11-.05,.22-.17,.33-.78,1.34-1.96,2.48-3.55,3.42-1.59,.95-3.13,1.42-4.63,1.42-1.11,0-2.14-.28-3.09-.83-2.56,4.06-5.2,6.09-7.93,6.09-1.95,0-2.92-1.14-2.92-3.42,0-3.17,1.39-6.9,4.17-11.18-.11-.61-.17-1.22-.17-1.84,0-2,.67-3.95,2-5.84,1.33-1.89,2.98-2.84,4.92-2.84,1.28,0,2.31,.75,3.09,2.25,.61,1.28,.92,2.62,.92,4.01,0,3-1.17,6.82-3.5,11.43,.83,.5,1.78,.75,2.84,.75,1.84,0,3.56-.72,5.17-2.17,1.62-1.45,2.37-2.17,2.25-2.17,.39,0,.58,.19,.58,.58Zm-14.77-36.05c0-1.06-.36-1.59-1.08-1.59-1.62,0-3.59,1.56-5.93,4.67-2.67,3.62-5.7,8.71-9.1,15.27-3.73,7.18-5.95,12.55-6.68,16.11,3.06-2.67,7.18-7.57,12.35-14.69,5.34-7.46,8.57-12.85,9.68-16.19,.5-1.56,.75-2.75,.75-3.59Zm3.59-.33c0,3.78-3.59,10.21-10.77,19.28-5.68,7.07-10.96,12.88-15.86,17.44,0,6.06,1.53,9.1,4.59,9.1s7.4-3.14,13.02-9.43c.22-.28,.45-.42,.67-.42,.28,0,.42,.19,.42,.58,0,.22-.08,.45-.25,.67-1.95,2.56-4.17,4.78-6.68,6.68-3.17,2.45-5.98,3.67-8.43,3.67-4.17,0-6.26-3.42-6.26-10.27,0-4.67,2.31-10.96,6.93-18.86,3.78-6.45,7.82-12.05,12.1-16.77,3.06-3.34,5.62-5.01,7.68-5.01,.67,0,1.31,.38,1.92,1.13,.61,.75,.92,1.49,.92,2.21Zm-24.04,.33c0-1.06-.36-1.59-1.09-1.59-1.61,0-3.59,1.56-5.92,4.67-2.67,3.62-5.7,8.71-9.1,15.27-3.73,7.18-5.95,12.55-6.68,16.11,3.06-2.67,7.18-7.57,12.35-14.69,5.34-7.46,8.57-12.85,9.68-16.19,.5-1.56,.75-2.75,.75-3.59Zm3.59-.33c0,3.78-3.59,10.21-10.77,19.28-5.67,7.07-10.96,12.88-15.86,17.44,0,6.06,1.53,9.1,4.59,9.1s7.4-3.14,13.02-9.43c.22-.28,.45-.42,.67-.42,.28,0,.42,.19,.42,.58,0,.22-.08,.45-.25,.67-1.95,2.56-4.17,4.78-6.68,6.68-3.17,2.45-5.98,3.67-8.43,3.67-4.17,0-6.26-3.42-6.26-10.27,0-4.67,2.31-10.96,6.93-18.86,3.78-6.45,7.82-12.05,12.1-16.77,3.06-3.34,5.62-5.01,7.68-5.01,.67,0,1.31,.38,1.92,1.13,.61,.75,.92,1.49,.92,2.21Zm-40.64,27.29c-.22-.06-.47-.08-.75-.08-2.23,0-4.54,1.42-6.93,4.26-3.39,4.12-5.09,7.48-5.09,10.1,0,1.17,.39,1.75,1.17,1.75,1.22,0,2.81-1.28,4.76-3.84,2.73-3.45,5.01-7.51,6.84-12.18Zm12.27,8.76c0,.28-.17,.67-.5,1.17-2.45,3.95-4.76,6.48-6.93,7.59-1,.5-2,.75-3,.75-3.39,0-5.09-2.39-5.09-7.18,0-.78,.06-1.61,.17-2.5-3.73,6.62-7.04,9.93-9.93,9.93-1.72,0-2.59-.95-2.59-2.84,0-2.89,1.39-6.38,4.17-10.47,2.78-4.09,5.48-6.58,8.09-7.47,.95-.39,1.87-.58,2.75-.58,2,0,3.45,.7,4.34,2.09,.17,.28,.25,.47,.25,.58,0,.06-.2,.14-.59,.25-.39,.11-.67,.31-.83,.58-1.34,2.17-2,5.42-2,9.76,0,4.01,.86,6.01,2.59,6.01,1.22,0,2.96-1.35,5.22-4.05,2.25-2.7,3.46-4.05,3.63-4.05s.25,.14,.25,.42Zm-30.28-21.11c0,1.84-.56,4.09-1.67,6.76-1.73,4.23-3.48,8.46-5.26,12.69-2.22,5.84-3.34,10.07-3.34,12.69,0,2,.75,3,2.25,3,.83,0,1.9-.47,3.21-1.42,1.31-.95,2.07-1.42,2.29-1.42s.33,.14,.33,.42c0,1.11-.77,2.09-2.29,2.92-1.53,.83-2.88,1.25-4.05,1.25-3.17,0-4.76-1.86-4.76-5.59,0-2.45,.67-5.7,2-9.77,1.06-3,2.59-6.79,4.59-11.35,.78-1.5,1.78-3.78,3.01-6.84,.5-1.5,.75-2.61,.75-3.34,0-.61-.19-.92-.58-.92-2.84,0-7.9,3.98-15.19,11.93-5.29,5.79-9.68,11.18-13.19,16.19-1.11,1.61-2.03,3-2.75,4.17-.28,.61-.72,1.28-1.34,2-.22,.06-.45,.08-.67,.08-1.67,0-2.5-.67-2.5-2,0-.28,.1-.56,.29-.83,.2-.28,1.24-2.39,3.13-6.34,5.62-11.68,8.43-20.09,8.43-25.2,0-2.34-.72-3.51-2.17-3.51-2.34,0-6.23,2.98-11.69,8.93-6.18,6.79-11.96,14.66-17.36,23.62-.61,1.06-1.22,2.09-1.84,3.09-.89,1.39-1.61,2.31-2.17,2.75-1.28,0-1.92-.61-1.92-1.84,0-.39,.11-.72,.33-1,3.06-3.73,6.37-9.63,9.93-17.69,3.89-8.68,5.84-15.08,5.84-19.2,0-5.56-3.06-8.35-9.18-8.35-3.23,0-7.12,.81-11.68,2.42-3.06,1.11-6.19,2.53-9.39,4.26-3.2,1.73-6.22,3.67-9.05,5.84-4.23,3.28-6.34,5.98-6.34,8.1,0,3.12,3.03,4.67,9.1,4.67,1.22,0,3.03-.18,5.43-.54,2.39-.36,4.17-.54,5.34-.54,.45,0,.67,.11,.67,.33s-.14,.42-.42,.58c-1.89,1.34-5.04,2-9.43,2-3.17,0-5.9-.44-8.18-1.33-3.12-1.22-4.67-3.2-4.67-5.93,0-2.89,2.09-6.01,6.26-9.35,2.84-2.28,6.2-4.37,10.1-6.26,3.28-1.56,6.65-2.87,10.1-3.92,4.9-1.45,9.26-2.17,13.1-2.17,8.12,0,12.18,3.09,12.18,9.26,0,5.01-2,11.38-6.01,19.11,3.17-3.78,6.34-7.59,9.52-11.43,4.79-5.17,8.54-7.76,11.27-7.76,3.34,0,5.01,2.5,5.01,7.51,0,4.34-1.7,10.63-5.09,18.86,3.67-4.12,7.71-8.29,12.1-12.52,6.23-5.9,10.63-9.26,13.19-10.1,.72-.22,1.34-.33,1.84-.33,1.72,0,2.59,1.11,2.59,3.34Z"/><g class="cls-6"><rect class="cls-3" y="159.63" width="253.45" height="55.17"/></g></g></g></g></svg>