<?xml version="1.0" encoding="UTF-8"?><svg id="Layer_2" xmlns="http://www.w3.org/2000/svg" xmlns:xlink="http://www.w3.org/1999/xlink" viewBox="0 0 283.05 239.89"><defs><style>.cls-1{fill:url(#linear-gradient);}.cls-2{clip-path:url(#clippath);}.cls-3,.cls-4{fill:#6d6f71;}.cls-5{clip-rule:evenodd;fill:none;}.cls-6{clip-path:url(#clippath-1);}.cls-7{clip-path:url(#clippath-2);}.cls-8{fill:url(#linear-gradient-2);}.cls-4{fill-rule:evenodd;}</style><clipPath id="clippath"><path class="cls-5" d="M124.65,108.9c-1.49-1-2.97-2.01-4.46-3.01-1.85,2.01-3.7,4.02-5.56,6.04-.28-1.68-.56-3.37-.84-5.05,2.25-4.36,8.51-2.74,10.86,2.02m.52-4.94h0c.13-12.59-4.89-23.2-14.54-32.02,10.72,7.77,18.14,20.65,21,40.62l-1.82-.57c-1.09-3.43-2.54-6.26-4.64-8.03Zm7.64,8.98c-1.79-18.02-13.17-45.72-35.41-45.91-14.68,.79-24.66,12.51-18.62,29.25,3.35,7.98,11.09,12.68,22.94,14.81-12.3,1.09-20.43-4.34-25.51-15.64-5.1-14.72,1.55-27.18,17.22-30.17,9.43-.77,18.02,2.31,25.49,10.42,8.16,8.69,12.66,21.5,14.4,37.42l-.52-.16Zm-24.11-5.68c.25-4.32,5.33-7.96,11.78-5.29h0c-7.03-.96-9.72,2.01-9.16,7.93-.87-.88-1.75-1.76-2.62-2.64Zm15.23-4.61c-3.93-2.81-11.84-5.59-16.47,3.23-3.38-6.81-1.94-13.31,4.12-14.64,4.38-1.34,8.23,1.81,11.82,7.23l.11-.13,.43,4.32Zm-18.5-10.88c-10.22-.27-7.97,14.44,.53,16.63-3.25-4.84-4.27-10.19-.53-16.63Zm7.21-2.34c-5.49-2.56-10.15-2.4-14.11,.09-5.2,4.56-4.92,9.87-2.65,15.45,1.46,2.93,4.05,5.11,7.38,5.32-6.33-3.7-7.75-9.29-6.76-15.2,1.54-6.59,9.79-6.42,16.14-5.67Zm3.26-1.48h0c-2.09-9.6-5.69-18.05-20.71-17.8-10.97,2.1-14.76,10.16-12.77,23.02,2.37,7.72,7.93,11.54,13.62,15.2l.21,.2c-6.42-1.99-12.77-5.54-16.34-12.46-4.6-15.76,2.02-26.36,17.51-27.99,13.32-.08,24.86,16.21,25.91,28.35-1.69-2.44-3.97-4.65-7.01-6.55-.13-.66-.27-1.32-.41-1.97Zm-13.7-1.07c.18-.09,.36-.18,.54-.27,5.37-1.96,8.97-.74,11.95,1.61,.04,.26,.07,.53,.1,.8-4.6-2.03-8.85-2.91-12.58-2.13Zm-8.94,18.37c-1.48-3.8-1.92-7.63,.62-11.52h0c-1.14,4.76-.47,9.14,1.9,13.15l.02,.04-.12-.1c-.82-.51-1.63-1.04-2.43-1.58Zm-10.08-21.13c1.93,5.82,5.98,7.6,10.94,7.64-2.7,2.64-3.84,6.5-2.34,12.43-3.68-2.74-6.81-6.1-8.35-11.25-.45-3.12-.56-6.11-.25-8.81Zm31.33,2.89c-3.08-2.42-7.02-3.31-12.38-1.63,1.84-7.96-2.47-13.06-9.01-13.44l-1.98,.28c1.27-.54,2.71-.93,4.34-1.14,11.22-.37,17.35,6.17,19.04,15.93Zm-21.8-12.79c-3.94,0-7.13,3.21-7.13,7.17s3.19,7.17,7.13,7.17,7.13-3.21,7.13-7.17-3.19-7.17-7.13-7.17Zm0-.77c-4.36,0-7.89,3.55-7.89,7.94s3.53,7.94,7.89,7.94,7.89-3.55,7.89-7.94-3.53-7.94-7.89-7.94Zm.07-.61c-4.82,0-8.73,3.93-8.73,8.78s3.91,8.78,8.73,8.78,8.73-3.93,8.73-8.78-3.91-8.78-8.73-8.78Zm31.72,62.93c-5.41,2.76-10.54,3.11-15.19-.67,.84,2.75,2.74,4.64,6.84,4.72,4.79-.48,6.9-2.12,8.35-4.05Zm2.5-18.48l-5.51-2.69-3.51,2.69,3.34,3.02,5.67-3.02Zm14.54-45.54c-1.87,.03-3.92-.46-6.36-2.16,2.73,7.6,4.88,15.58,6.36,24.01v-5.17c-1.1-5.72-2.78-11.38-4.86-17,1.59,.95,3.2,1.12,4.86,1.02v-.71Zm0-22.97c-5.51,.03-9.97,4.53-9.97,10.08s4.46,10.05,9.97,10.08v-.94c-5-.03-9.04-4.11-9.04-9.15s4.04-9.12,9.04-9.15v-.93Zm-11.09,12.75c-.67-1.6-1.38-3.22-2.12-4.88,1.11-1.03,2.18-2.13,3.21-3.3-.89,1.64-1.4,3.52-1.4,5.52,0,.92,.11,1.81,.31,2.67Zm-.78,55.93l-8.18-4.03-5.17,3.86,5.01,4.2,8.35-4.03Zm-1.35,5.72h.02l.1-.06s-.08,.04-.12,.06Zm-2.26,1.24s.06-.04,.1-.06c-.03,.02-.06,.04-.1,.06Zm-.19,.12s.07-.04,.1-.06c-.03,.02-.07,.04-.1,.06Zm-.19,.12s.07-.05,.11-.07c-.04,.02-.07,.04-.11,.07Zm-.2,.12s.08-.05,.12-.08c-.04,.02-.08,.05-.12,.08Zm-.18,.12s.08-.05,.11-.07c-.04,.02-.08,.05-.11,.07Zm-.21,.14s.09-.06,.13-.09c-.04,.03-.09,.06-.13,.09Zm-.19,.13l.15-.1-.15,.1Zm-.21,.14c.05-.04,.11-.07,.16-.11-.05,.04-.11,.07-.16,.11Zm-.39,.27c.12-.09,.25-.17,.37-.26-.12,.08-.25,.17-.37,.26Zm-4.98,1.35c-.67,1.2-1.02,2.3-.5,3.13,2.81-.33,4.62-1.76,5.35-4.39,.04-.03,.08-.06,.13-.09-1.16,.81-2.32,1.69-3.47,2.63l-1.51-1.28Zm-2.17,3.46c.38-1.46,.8-2.88,1.24-4.25l-2.91-2.47-.33,.08-.21,.05h-.03l-.45,.12h-.05l-.16,.05h-.06l-.16,.05-.11,.03-.1,.02-.12,.03h-.03l-1.46,.36h-.01l-.22,.05-.05,.03-.05,.03-.05,.03m17.49-1.87c-1.69,7.64-6.2,11.29-12.88,11.87-5.43,.12-8.27-3.94-6.06-9.15l-1.23,.72,2.68-1.56-.14,.08c-1.16,4.97,.16,7.81,4.33,8.2,7.6-.78,11.2-4.43,12.45-9.78,.29-.14,.57-.27,.86-.39Zm2.6-.86s-.09,.02-.13,.03c.04-.01,.09-.02,.13-.03Zm.21-.05c-.05,.01-.11,.02-.16,.04,.05-.01,.11-.02,.16-.04Zm.17-.04s-.1,.02-.15,.03c.05-.01,.1-.02,.15-.03Zm.2-.04c-.05,.01-.1,.02-.15,.03,.05-.01,.1-.02,.15-.03Zm-26.78,16.25c.16,.65,.35,1.31,.57,1.98l.43,.83c2.54,2.21,5.83,3.53,10.49,3.21,9.45-1.75,13.83-10.11,15.31-22.27,.16-.03,.32-.06,.48-.08-1.41,13.2-6.24,22.49-17.76,23.59-3.71-.26-6.48-1.82-8.6-4.29-.38-1.02-.69-2.02-.92-2.97Zm-.06-.27c.02,.07,.03,.14,.05,.21-.02-.07-.03-.14-.05-.21Zm-.06-.26c.01,.06,.03,.13,.04,.19-.02-.06-.03-.13-.04-.19Zm-.05-.26c.01,.06,.02,.11,.03,.17-.01-.06-.02-.11-.03-.17Zm-.05-.27c0,.05,.02,.11,.03,.16-.01-.05-.02-.11-.03-.16Zm-.05-.26c0,.05,.02,.1,.03,.16,0-.05-.02-.1-.03-.16Zm-.04-.26c0,.05,.02,.1,.03,.15,0-.05-.02-.1-.03-.15Zm26.1-14.25c-1.84,12.05-6.29,19.45-14.27,20.57-4.14,.47-8.21,.15-11.67-6.42h-.18c-.65-4.16,.3-7.56,3.42-9.95-1.06,5.68,1.39,8.92,7.72,9.46,9.19-1.43,12.86-6.62,13.97-13.54h0c.43-.14,.86-.27,1.29-.38l-.28,.26Zm8.69-5.88h1.35v1.03h-3.7c-5.39-.68-9.36-1.51-16.85-5.9-1.76,2.27-3.15,3.92-6.68,6.22,2.87,2.19,3.93,3.26,6.8,5.46,6.52-4.38,12.87-5.09,16.68-5.43h3.74v1.03h-1.07l-.02,.02c-.1,0-.2,0-.3,0h-.04c-.08,0-.16,0-.25,0h-.12s-.09,0-.14,0h-.02c-.06,0-.13,0-.19,0h-.05l-1.05,.06h0c-.08,0-.17,0-.25,.01h-.08c-.07,.01-.14,.02-.21,.02h-.1c-.06,.01-.12,.02-.19,.02h-.07c-.08,.01-.15,.02-.23,.03h-.06c-.08,.01-.16,.02-.24,.03h-.03c-.37,.04-.73,.09-1.1,.14h0c-.08,.01-.16,.02-.24,.03h-.06c-.07,.02-.15,.03-.22,.04h-.07c-.07,.02-.14,.03-.21,.04h-.08c-.07,.02-.14,.04-.21,.05h-.08c-.07,.02-.14,.04-.21,.05h-.08l-.22,.05h-.05c-.34,.07-.68,.14-1.02,.21h-.07c-.07,.03-.13,.04-.2,.06-.03,0-.06,.01-.1,.02-.06,.01-.13,.03-.19,.04-.04,0-.07,.02-.11,.02-.06,.01-.12,.03-.18,.04-.04,0-.08,.02-.11,.03-.06,.01-.12,.03-.18,.04l-.11,.03c-.06,.02-.12,.03-.19,.05-.03,0-.06,.02-.09,.02-.07,.02-.13,.03-.2,.05-.02,0-.04,.01-.06,.01-.23,.06-.45,.12-.68,.19-.04,.01-.08,.02-.12,.03-.05,.02-.11,.03-.16,.05-.04,.01-.09,.02-.13,.04-.05,.02-.11,.03-.16,.05-.04,.01-.08,.03-.12,.04-.05,.02-.11,.03-.16,.05l-.13,.04c-.05,.02-.1,.03-.16,.05-.05,.01-.09,.03-.13,.04-.05,.02-.1,.03-.15,.05-.05,.02-.09,.03-.14,.05-.05,.02-.1,.03-.15,.05l-.14,.05s-.1,.03-.15,.05l-.2,.07c-.07,.02-.13,.05-.19,.07-.06,.02-.11,.04-.17,.06-.04,.02-.09,.03-.13,.05l-.15,.06s-.09,.04-.14,.05c-.05,.02-.1,.04-.14,.06-.05,.02-.09,.04-.14,.06-.05,.02-.1,.04-.14,.06-.05,.02-.09,.04-.14,.06l-.15,.06s-.09,.04-.13,.05c-.05,.02-.11,.04-.16,.07-.04,.02-.08,.03-.12,.05-.06,.02-.11,.05-.17,.07-.04,.02-.07,.03-.11,.05-.08,.03-.15,.07-.23,.1-.02,0-.03,.01-.05,.02-.09,.04-.18,.08-.28,.12l-.11,.05-.17,.08s-.08,.04-.12,.06c-.05,.03-.11,.05-.16,.08-.04,.02-.08,.04-.12,.06-.05,.03-.11,.05-.16,.08-.04,.02-.08,.04-.12,.06l-.16,.08s-.08,.04-.12,.06c-.05,.03-.11,.06-.16,.08-.04,.02-.08,.04-.11,.06-.06,.03-.11,.06-.17,.09l-.1,.05c-.07,.04-.13,.07-.2,.11-.02,.01-.05,.03-.07,.04-.09,.05-.18,.1-.27,.15l-.07,.04c-.07,.04-.14,.08-.2,.11l-.1,.06c-.06,.03-.11,.06-.17,.1-.04,.02-.07,.04-.11,.07-.05,.03-.11,.06-.16,.09-.04,.02-.08,.05-.11,.07-.05,.03-.1,.06-.16,.09-.04,.02-.08,.05-.11,.07-.05,.03-.11,.06-.16,.1-.04,.02-.07,.04-.11,.07-.05,.03-.11,.07-.16,.1l-.1,.07c-.06,.04-.12,.08-.17,.11l-.09,.06c-.09,.06-.17,.12-.26,.17-3.09-2.36-5.72-4.67-8.81-7.03,2.4-.91,5.06-3.24,8.51-7.43,.08,.06,.16,.12,.24,.18,.03,.02,.05,.04,.08,.06,.06,.04,.11,.08,.17,.12,.03,.02,.06,.04,.1,.07,.05,.03,.1,.07,.15,.1,.04,.02,.07,.05,.11,.07l.14,.09s.08,.05,.11,.07c.05,.03,.09,.06,.14,.09,.04,.02,.07,.05,.11,.07l.15,.09s.07,.05,.11,.07c.05,.03,.1,.06,.15,.09,.04,.02,.07,.04,.11,.07,.05,.03,.11,.07,.16,.1,.03,.02,.06,.04,.1,.06,.07,.04,.13,.08,.2,.12l.06,.03c.09,.05,.17,.1,.26,.15,.03,.02,.05,.03,.08,.05,.06,.03,.12,.07,.18,.1,.04,.02,.07,.04,.11,.06,.05,.03,.11,.06,.16,.09,.04,.02,.08,.04,.12,.06,.05,.03,.1,.05,.15,.08,.04,.02,.08,.04,.12,.06,.05,.03,.09,.05,.14,.07,.04,.02,.09,.04,.13,.07,.05,.02,.1,.05,.14,.07,.04,.02,.08,.04,.12,.06,.05,.03,.1,.05,.15,.08,.04,.02,.08,.04,.12,.06,.05,.02,.1,.05,.15,.07l.12,.06c.05,.03,.11,.05,.16,.08,.04,.02,.08,.04,.11,.05,.08,.04,.15,.07,.23,.11,.05,.02,.1,.04,.15,.07,.06,.02,.11,.05,.17,.07,.04,.02,.09,.04,.13,.06,.05,.02,.1,.04,.15,.07l.13,.06s.1,.04,.14,.06c.05,.02,.1,.04,.14,.06,.05,.02,.09,.04,.14,.06,.05,.02,.09,.04,.14,.06l.14,.06s.1,.04,.14,.06c.05,.02,.09,.04,.14,.05,.05,.02,.1,.04,.15,.06,.04,.02,.09,.03,.13,.05,.05,.02,.1,.04,.15,.06,.04,.02,.09,.03,.13,.05,.05,.02,.11,.04,.16,.06,.04,.01,.08,.03,.11,.04,.12,.04,.24,.08,.35,.12,.03,.01,.06,.02,.09,.03,.06,.02,.11,.04,.17,.06,.04,.01,.08,.03,.12,.04,.05,.02,.11,.04,.17,.05,.04,.01,.08,.03,.13,.04,.06,.02,.11,.04,.17,.05,.04,.01,.08,.03,.12,.04,.06,.02,.11,.04,.17,.05,.04,.01,.08,.02,.12,.04,.06,.02,.12,.03,.17,.05l.12,.03,.18,.05s.07,.02,.11,.03c.06,.02,.12,.03,.18,.05,.04,0,.07,.02,.11,.03,.06,.02,.13,.04,.19,.05,.03,0,.05,.01,.08,.02,.24,.06,.49,.13,.73,.19,.02,0,.04,.01,.07,.02,.07,.02,.14,.03,.21,.05,.03,0,.06,.02,.1,.02,.07,.02,.13,.03,.2,.05,.03,0,.07,.02,.1,.02,.07,.02,.13,.03,.2,.04l.1,.02c.07,.01,.13,.03,.2,.04l.11,.02c.07,.01,.13,.03,.2,.04l.1,.02c.07,.01,.14,.03,.21,.04l.08,.02c.07,.01,.15,.03,.23,.04h.06c.36,.08,.73,.14,1.09,.2h.05c.08,.02,.16,.03,.24,.05h.08l.23,.05h.09c.07,.02,.15,.03,.22,.04h.09c.08,.02,.15,.03,.22,.04h.09c.07,.02,.15,.03,.22,.04h.08c.08,.02,.16,.03,.24,.04h.04c.33,.04,.67,.08,1.01,.11h0c.05,0,.11,.01,.17,.02h.01l.95,.08h.02c.07,0,.15,.01,.22,.02,.05,0,.1,0,.14,0h.15l.27,.03h.04c.07,0,.14,.01,.22,.01Zm-2.87,3.11l1.9-.12h.16l1.36-.1h0c.19-.02,.82-.11,.8-.05v13.62c-.75,3.42-1.97,6.67-4.36,11.09,1.61,1.03,3.07,2.5,4.36,4.52v1.37l-.05,.05c-1.47-2.34-3.2-4.3-5.52-6.01,1.63-1.79,2.61-4.04,3.21-6.48-.93,2.54-2.28,4.82-4.01,6.89,2.51,1.65,4.59,3.94,6.36,6.68v1.29c-2-3.11-4.54-5.77-7.87-7.8,4.6-5.08,7.02-14.11,7.07-24.15l-1.28,.04h0v.11h0v.06h0v.06h0v.07h0v.1h0v.16l.02,.03c-.46,11.63-3.81,18.07-7.34,24.19,4.15,2.92,7.23,6.14,9.37,9.63v1.86c-2.73-4.59-6.39-8.36-10.87-11.41,4.84-6.25,7.21-14.44,7.68-24.1v-.1h0v-.1h0v-.05h0v-.05h0v-.05h0v-.05h0v-.06h0v-.05h0v-.06h0v-.05h0v-.02l-1.06,.19c-.49,9.84-3.23,17.98-7.94,24.64,5.23,3.38,9.41,7.66,12.02,13.27h.19v4.53h-.02c-4.28-8.36-9.87-13.89-16.64-16.9,1.04-1.2,2.08-2.39,3.12-3.59-9.2,6.89-17.03,7.67-23.06,.47-5.1-8.99-2.67-16.98,7.7-21.3-2.28-1.74-4.56-3.47-6.84-5.21,2.22-.84,4.45-1.68,6.68-2.52-1.09-.68-2.19-1.35-3.29-2.03-8.74,3.51-16.96,2.34-24.82-2.25-14.38-10.21-16.58-29.02-6-39.46,12.52-13.2,36.34-9.08,48.7,11.8-3.45-10.76-8.44-19.58-13.6-28.2,12.79-10.17,21.52-24.24,25.7-42.67,.55-1.44,.88-4.01,2.36-4.33v6.36l-.19-.02c-3.9,16.02-10.45,30.66-24.37,41.49,11.92,19.21,15.93,37.98,20.14,56.77,.08,1.02,.14,2.03,.18,3.01l.78-.03c-.28-4.04-.77-8.16-1.55-12.41v-.02c-.05-.27-.1-.54-.15-.81v-.06c-.06-.26-.11-.52-.16-.79l-.02-.08c-.05-.26-.1-.52-.16-.77l-.02-.1c-.05-.26-.11-.51-.16-.77l-.02-.1c-.06-.26-.11-.52-.17-.78l-.02-.09c-.06-.26-.12-.52-.18-.78l-.02-.08c-.06-.27-.12-.53-.19-.8v-.06c-.56-2.3-1.19-4.63-1.91-7,0-.03-.02-.06-.03-.09-.07-.25-.15-.49-.23-.74-.02-.06-.04-.13-.06-.2-.07-.23-.14-.46-.22-.68-.03-.08-.05-.17-.08-.26-.07-.22-.14-.43-.21-.65-.03-.1-.06-.2-.1-.29-.07-.21-.14-.42-.21-.63-.04-.11-.07-.21-.11-.32-.07-.21-.14-.41-.21-.62-.04-.11-.08-.22-.12-.33-.07-.2-.14-.4-.21-.61-.04-.12-.08-.23-.12-.35-.07-.2-.14-.4-.21-.6-.04-.12-.09-.24-.13-.37-.07-.2-.14-.39-.22-.59-.05-.12-.09-.25-.14-.37-.07-.2-.15-.39-.22-.59-.05-.13-.1-.25-.14-.38-.07-.2-.15-.39-.23-.59-.05-.13-.1-.25-.15-.38-.08-.2-.15-.39-.23-.59-.05-.13-.1-.26-.15-.38-.08-.2-.16-.4-.24-.6-.05-.12-.1-.24-.15-.36-.08-.21-.17-.41-.25-.62-.05-.12-.1-.23-.14-.35-.09-.21-.18-.42-.27-.64-.05-.11-.09-.22-.14-.33-.31-.74-.63-1.48-.96-2.22-.06-.14-.12-.28-.18-.42-.08-.18-.17-.37-.25-.55-.07-.15-.14-.31-.21-.46-.08-.18-.17-.36-.25-.54-.07-.16-.15-.32-.22-.48-.08-.17-.16-.35-.24-.52-.08-.17-.16-.34-.24-.51-.08-.17-.16-.34-.24-.51-.08-.17-.17-.35-.25-.52-.08-.17-.16-.34-.24-.51-.08-.18-.17-.35-.26-.53-.08-.17-.17-.34-.25-.51-.09-.18-.18-.36-.26-.53-.08-.17-.17-.34-.25-.51-.09-.18-.18-.36-.27-.54-.08-.17-.17-.34-.26-.51-.09-.18-.18-.36-.28-.54-.09-.17-.17-.34-.26-.51-.1-.18-.19-.37-.29-.55-.09-.17-.18-.34-.27-.51-.1-.19-.2-.37-.3-.56-.09-.17-.18-.34-.27-.51-.1-.19-.21-.38-.31-.57-.09-.17-.18-.33-.27-.5-.11-.2-.21-.4-.32-.59-.09-.16-.17-.32-.26-.48-.11-.21-.23-.41-.34-.62-.09-.15-.17-.31-.26-.46-.12-.22-.24-.43-.36-.65-.08-.15-.17-.3-.25-.45-.14-.24-.27-.48-.41-.72-.07-.13-.14-.25-.21-.38-.21-.37-.42-.73-.64-1.1,10.69-9.09,18.2-22.59,23.22-38.18v3.79c-7.57,19.87-14.67,29.11-21.63,34.8,.24,.42,.48,.83,.71,1.24,.08,.13,.15,.27,.23,.4,.16,.28,.31,.56,.46,.83,.09,.16,.17,.31,.26,.47,.14,.25,.28,.5,.41,.75,.09,.17,.18,.33,.27,.5,.13,.24,.26,.47,.38,.71,.09,.17,.18,.35,.28,.52,.12,.23,.24,.46,.36,.69,.09,.18,.18,.35,.27,.52,.12,.22,.23,.45,.35,.67,.09,.18,.18,.35,.27,.52,.11,.22,.23,.44,.34,.66,.09,.17,.17,.35,.26,.52,.11,.22,.22,.44,.33,.66,.08,.17,.17,.34,.25,.51,.11,.22,.22,.44,.32,.66,.08,.17,.16,.33,.24,.5,.11,.22,.21,.45,.32,.67,.08,.16,.15,.32,.23,.48,.11,.23,.21,.46,.32,.68,.07,.15,.14,.3,.21,.45,.11,.24,.22,.48,.33,.72,.06,.14,.12,.27,.19,.41,.13,.28,.25,.56,.37,.83,.04,.09,.08,.19,.13,.28,.16,.37,.33,.74,.49,1.11,.02,.05,.04,.11,.07,.16,.13,.31,.27,.63,.4,.94,.05,.12,.1,.24,.15,.36,.1,.24,.21,.49,.31,.73,.06,.14,.11,.27,.17,.41,.09,.22,.18,.45,.27,.67,.06,.14,.12,.29,.17,.43,.09,.21,.17,.42,.25,.64,.06,.15,.12,.3,.17,.44,.08,.21,.16,.41,.24,.62,.06,.15,.11,.3,.17,.45,.08,.2,.15,.4,.23,.6,.06,.15,.11,.3,.17,.45,.07,.2,.15,.4,.22,.59,.05,.15,.11,.3,.16,.44,.07,.2,.14,.39,.21,.59,.05,.15,.11,.29,.16,.44,.07,.2,.14,.39,.21,.59,.05,.14,.1,.29,.15,.43,.07,.2,.14,.4,.2,.6,.05,.14,.09,.27,.14,.41,.07,.21,.14,.41,.21,.62,.04,.13,.08,.25,.12,.38,.07,.22,.14,.44,.21,.66,.04,.11,.07,.22,.11,.33,.08,.27,.17,.54,.25,.8,.02,.06,.04,.11,.05,.17,.1,.33,.2,.65,.3,.97,.02,.08,.04,.15,.07,.23,.07,.24,.15,.49,.22,.73,.03,.11,.07,.23,.1,.34,.06,.2,.12,.4,.17,.61,.04,.13,.07,.25,.11,.38,.05,.19,.11,.37,.16,.56,.04,.13,.07,.27,.11,.4,.05,.18,.1,.35,.14,.53,.04,.14,.07,.27,.11,.41,.04,.17,.09,.34,.13,.51,.04,.14,.07,.28,.11,.42,.04,.17,.08,.33,.13,.5,.04,.14,.07,.28,.1,.42,.04,.16,.08,.32,.12,.48,.03,.14,.07,.28,.1,.42,.04,.16,.08,.32,.11,.48,.03,.14,.06,.28,.1,.42,.04,.16,.07,.31,.11,.47,.03,.14,.06,.28,.09,.42,.03,.15,.07,.31,.1,.46,.03,.14,.06,.28,.09,.41,.03,.15,.06,.3,.1,.45,.03,.14,.06,.27,.09,.41,.03,.15,.06,.3,.09,.45,.03,.14,.06,.27,.08,.41,.03,.14,.05,.27,.08,.41,.06,.33,.13,.65,.19,.97,.02,.09,.03,.18,.05,.26,.03,.16,.06,.32,.09,.48,.02,.11,.04,.23,.06,.34,.03,.16,.06,.32,.09,.48,.02,.11,.04,.22,.06,.33,.03,.16,.05,.31,.08,.47,.02,.11,.04,.23,.06,.34,.03,.16,.05,.31,.08,.47,.02,.11,.04,.21,.05,.32,.03,.16,.05,.32,.08,.48,.02,.1,.03,.2,.05,.31,.02,.16,.05,.32,.07,.48,.02,.1,.03,.19,.04,.29,.02,.16,.05,.33,.07,.49,.01,.09,.03,.19,.04,.28,.02,.16,.05,.32,.07,.48,.01,.09,.03,.18,.04,.27,.02,.17,.05,.33,.07,.5,.01,.08,.02,.15,.03,.23,.02,.17,.05,.35,.07,.52l.02,.19c.02,.19,.05,.38,.07,.56v.1c.24,1.87,.43,3.67,.59,5.38l2.08-.08c-2.21-18.87-4.63-37.78-16.72-58.12,7.11-5.95,12.98-14.67,17.21-27.02v2.66c-3.59,9.71-8.37,18.32-15.71,24.53,7.53,11.87,10,25.08,13.69,37.96-2.53-12.98-6.06-25.72-12.18-37.79,6.53-5.09,10.61-13.66,14.21-22.91v2.15c-2.05,5.67-4.57,10.46-7.49,14.48,2-1.77,4.62-2.84,7.49-2.86v.88c-5.82,.03-10.52,4.78-10.52,10.64s4.71,10.61,10.52,10.64v.88c-4.12-.02-7.73-2.23-9.73-5.53,6.56,16.49,9.21,29.92,9.73,41.68v8.92c0,.16-.01,.33-.02,.49l-2.43-.26-.93-.1-.55-.06-.27-.03v.08c-6.31-.79-12.03-2.7-16.85-6.35-3.73,4.67-6.75,7.05-9.35,8.06,3.34,2.63,6.68,5.26,10.01,7.9,5.04-3.49,10.48-5.19,16.17-5.79Zm-9.19,12.25c-2.66,2.51-5.8,4.65-11.18,5.14-4.19,.2-7.03-1.59-8.47-5.39-1.6,2.38,.33,10.12,7.87,9.54,6.42-.64,9.79-4.28,11.78-9.29Z"/></clipPath><linearGradient id="linear-gradient" x1="-5562.32" y1="2595.28" x2="-5562.16" y2="2595.28" gradientTransform="translate(-4514439.28 1603672.79) rotate(-180) scale(811.64 617.89)" gradientUnits="userSpaceOnUse"><stop offset="0" stop-color="#bf892c"/><stop offset=".18" stop-color="#d1952a"/><stop offset=".47" stop-color="#fff7b1"/><stop offset=".55" stop-color="#ffcd2b"/><stop offset=".65" stop-color="#d1952a"/><stop offset="1" stop-color="#fef48c"/></linearGradient><clipPath id="clippath-1"><path class="cls-5" d="M158.41,108.9c1.49-1,2.97-2.01,4.46-3.01,1.85,2.01,3.71,4.02,5.56,6.04,.28-1.68,.56-3.37,.84-5.05-2.25-4.36-8.51-2.74-10.86,2.02m-.52-4.94h0c-.13-12.59,4.89-23.2,14.54-32.02-10.72,7.77-18.14,20.65-21,40.62l1.82-.57c1.09-3.43,2.54-6.26,4.64-8.03Zm-7.64,8.98c1.79-18.02,13.17-45.72,35.41-45.91,14.68,.79,24.66,12.51,18.62,29.25-3.35,7.98-11.08,12.68-22.94,14.81,12.31,1.09,20.43-4.34,25.51-15.64,5.1-14.72-1.55-27.18-17.22-30.17-9.43-.77-18.01,2.31-25.49,10.42-8.16,8.69-12.66,21.5-14.4,37.42l.52-.16Zm24.11-5.68c-.25-4.32-5.33-7.96-11.78-5.29h0c7.03-.96,9.72,2.01,9.16,7.93,.87-.88,1.75-1.76,2.62-2.64Zm-15.23-4.61c3.93-2.81,11.84-5.59,16.47,3.23,3.38-6.81,1.94-13.31-4.12-14.64-4.38-1.34-8.23,1.81-11.82,7.23l-.11-.13-.43,4.32Zm18.5-10.88c10.22-.27,7.97,14.44-.53,16.63,3.25-4.84,4.27-10.19,.53-16.63Zm-7.21-2.34c5.49-2.56,10.15-2.4,14.11,.09,5.2,4.56,4.92,9.87,2.65,15.45-1.46,2.93-4.05,5.11-7.38,5.32,6.33-3.7,7.75-9.29,6.76-15.2-1.54-6.59-9.79-6.42-16.14-5.67Zm-3.26-1.48h0c2.09-9.6,5.69-18.05,20.71-17.8,10.96,2.1,14.75,10.16,12.77,23.02-2.37,7.72-7.93,11.54-13.62,15.2l-.2,.2c6.42-1.99,12.77-5.54,16.34-12.46,4.6-15.76-2.02-26.36-17.51-27.99-13.32-.08-24.86,16.21-25.91,28.35,1.7-2.44,3.97-4.65,7.01-6.55,.13-.66,.27-1.32,.41-1.97Zm13.7-1.07c-.18-.09-.36-.18-.54-.27-5.37-1.96-8.97-.74-11.95,1.61-.04,.26-.07,.53-.1,.8,4.6-2.03,8.85-2.91,12.58-2.13Zm8.94,18.37c1.48-3.8,1.92-7.63-.62-11.52h0c1.13,4.76,.47,9.14-1.9,13.15l-.02,.04,.12-.1c.82-.51,1.63-1.04,2.43-1.58Zm10.08-21.13c-1.93,5.82-5.98,7.6-10.94,7.64,2.7,2.64,3.84,6.5,2.34,12.43,3.68-2.74,6.81-6.1,8.35-11.25,.45-3.12,.56-6.11,.25-8.81Zm-31.33,2.89c3.08-2.42,7.02-3.31,12.38-1.63-1.84-7.96,2.47-13.06,9.01-13.44l1.98,.28c-1.27-.54-2.71-.93-4.34-1.14-11.22-.37-17.34,6.17-19.04,15.93Zm21.8-12.79c3.94,0,7.13,3.21,7.13,7.17s-3.19,7.17-7.13,7.17-7.13-3.21-7.13-7.17,3.19-7.17,7.13-7.17Zm0-.77c4.36,0,7.89,3.55,7.89,7.94s-3.53,7.94-7.89,7.94-7.89-3.55-7.89-7.94,3.53-7.94,7.89-7.94Zm-.07-.61c4.82,0,8.73,3.93,8.73,8.78s-3.91,8.78-8.73,8.78-8.73-3.93-8.73-8.78,3.91-8.78,8.73-8.78Zm-31.72,62.93c5.41,2.76,10.54,3.11,15.19-.67-.84,2.75-2.74,4.64-6.84,4.72-4.79-.48-6.9-2.12-8.35-4.05Zm-2.5-18.48l5.51-2.69,3.51,2.69-3.34,3.02-5.68-3.02Zm-14.54-45.54c1.87,.03,3.92-.46,6.36-2.16-2.73,7.6-4.88,15.58-6.36,24.01v-5.17c1.1-5.72,2.78-11.38,4.86-17-1.59,.95-3.2,1.12-4.86,1.02v-.71Zm0-22.97c5.51,.03,9.97,4.53,9.97,10.08s-4.46,10.05-9.97,10.08v-.94c5-.03,9.04-4.11,9.04-9.15s-4.04-9.12-9.04-9.15v-.93Zm11.09,12.75c.67-1.6,1.38-3.22,2.12-4.88-1.11-1.03-2.18-2.13-3.21-3.3,.89,1.64,1.4,3.52,1.4,5.52,0,.92-.11,1.81-.31,2.67Zm.78,55.93l8.18-4.03,5.17,3.86-5.01,4.2-8.35-4.03Zm1.35,5.72h-.02l-.11-.06s.08,.04,.12,.06Zm2.26,1.24s-.06-.04-.1-.06c.03,.02,.06,.04,.1,.06Zm.19,.12s-.07-.04-.1-.06c.03,.02,.07,.04,.1,.06Zm.19,.12s-.07-.05-.11-.07c.04,.02,.07,.04,.11,.07Zm.2,.12s-.08-.05-.12-.08c.04,.02,.08,.05,.12,.08Zm.18,.12s-.08-.05-.12-.07c.04,.02,.08,.05,.12,.07Zm.21,.14s-.09-.06-.13-.09c.04,.03,.09,.06,.13,.09Zm.19,.13s-.1-.07-.15-.1c.05,.03,.1,.07,.15,.1Zm.2,.14c-.05-.04-.11-.07-.16-.11,.05,.04,.11,.07,.16,.11Zm.39,.27c-.12-.09-.25-.17-.37-.26,.12,.08,.25,.17,.37,.26Zm4.98,1.35c.67,1.2,1.02,2.3,.5,3.13-2.81-.33-4.62-1.76-5.34-4.39-.04-.03-.08-.06-.13-.09,1.16,.81,2.31,1.69,3.47,2.63l1.5-1.28Zm2.17,3.46c-.38-1.46-.8-2.88-1.24-4.25l2.91-2.47,.33,.08,.21,.05h.03l.45,.12h.05l.16,.05h.06l.16,.05,.11,.03,.1,.02,.12,.03h.03l1.46,.36h.01l.22,.05,.05,.03,.05,.03,.05,.03m-17.49-1.87c1.69,7.64,6.2,11.29,12.88,11.87,5.43,.12,8.27-3.94,6.06-9.15l1.23,.72-2.68-1.56,.14,.08c1.16,4.97-.16,7.81-4.33,8.2-7.6-.78-11.2-4.43-12.45-9.78-.29-.14-.57-.27-.86-.39Zm-2.6-.86s.09,.02,.13,.03c-.04-.01-.09-.02-.13-.03Zm-.21-.05c.05,.01,.11,.02,.16,.04-.05-.01-.11-.02-.16-.04Zm-.18-.04c.05,.01,.1,.02,.15,.03-.05-.01-.1-.02-.15-.03Zm-.2-.04l.15,.03-.15-.03Zm26.78,16.25c-.16,.65-.35,1.31-.57,1.98l-.42,.83c-2.54,2.21-5.83,3.53-10.49,3.21-9.45-1.75-13.83-10.11-15.31-22.27-.16-.03-.32-.06-.48-.08,1.41,13.2,6.24,22.49,17.76,23.59,3.71-.26,6.48-1.82,8.6-4.29,.38-1.02,.69-2.02,.92-2.97Zm.06-.27c-.02,.07-.03,.14-.05,.21,.02-.07,.03-.14,.05-.21Zm.06-.26c-.01,.06-.03,.13-.04,.19,.02-.06,.03-.13,.04-.19Zm.05-.26c-.01,.06-.02,.11-.03,.17,.01-.06,.02-.11,.03-.17Zm.05-.27c0,.05-.02,.11-.03,.16,.01-.05,.02-.11,.03-.16Zm.05-.26c0,.05-.02,.1-.03,.16,.01-.05,.02-.1,.03-.16Zm.04-.26c0,.05-.02,.1-.03,.15,0-.05,.02-.1,.03-.15Zm-26.1-14.25c1.84,12.05,6.29,19.45,14.27,20.57,4.14,.47,8.2,.15,11.67-6.42h.18c.65-4.16-.3-7.56-3.42-9.95,1.06,5.68-1.39,8.92-7.72,9.46-9.19-1.43-12.86-6.62-13.97-13.54h.01c-.43-.14-.86-.27-1.29-.38l.28,.26Zm-8.69-5.88h-1.35v1.03h3.7c5.39-.68,9.36-1.51,16.85-5.9,1.76,2.27,3.15,3.92,6.68,6.22-2.87,2.19-3.93,3.26-6.8,5.46-6.52-4.38-12.87-5.09-16.69-5.43h-3.74v1.03h1.07l.02,.02c.1,0,.2,0,.3,0h.04c.08,0,.17,0,.25,0h.12s.09,0,.14,0h.02c.06,0,.13,0,.19,0h.05l1.05,.06h0c.08,0,.17,0,.25,.01h.08c.07,.01,.14,.02,.21,.02h.1c.06,.01,.12,.02,.19,.02h.07c.08,.01,.15,.02,.23,.03h.06c.08,.01,.16,.02,.24,.03h.03c.37,.04,.74,.09,1.1,.14h0c.08,.01,.16,.02,.24,.03h.06c.07,.02,.15,.03,.22,.04h.07c.07,.02,.14,.03,.21,.04h.08c.07,.02,.14,.04,.21,.05h.08c.07,.02,.14,.04,.21,.05h.08l.22,.05h.05c.34,.07,.68,.14,1.02,.21h.07c.07,.03,.13,.04,.2,.06,.03,0,.06,.01,.09,.02,.06,.01,.13,.03,.19,.04,.04,0,.07,.02,.11,.02,.06,.01,.12,.03,.18,.04,.04,0,.08,.02,.11,.03,.06,.01,.12,.03,.18,.04l.11,.03c.06,.02,.12,.03,.19,.05,.03,0,.06,.02,.09,.02,.07,.02,.13,.03,.2,.05h.05c.23,.07,.45,.14,.68,.2,.04,.01,.08,.02,.12,.03,.05,.02,.11,.03,.16,.05,.04,.01,.08,.02,.13,.04,.05,.02,.11,.03,.17,.05l.12,.04c.05,.02,.11,.03,.16,.05,.04,.01,.09,.03,.13,.04,.05,.02,.1,.03,.16,.05,.04,.01,.09,.03,.13,.04l.15,.05s.09,.03,.14,.05c.05,.02,.1,.03,.15,.05,.05,.02,.09,.03,.14,.05,.05,.02,.1,.03,.15,.05,.07,.02,.13,.05,.2,.07,.07,.02,.13,.05,.2,.07,.06,.02,.11,.04,.17,.06l.13,.05,.15,.06s.09,.04,.14,.05c.05,.02,.1,.04,.14,.06,.05,.02,.09,.04,.14,.06l.14,.06,.14,.06c.05,.02,.1,.04,.15,.06l.13,.05c.05,.02,.11,.04,.16,.07,.04,.02,.08,.03,.12,.05,.06,.02,.11,.05,.17,.07,.04,.02,.08,.03,.11,.05,.08,.03,.15,.07,.23,.1,.02,0,.03,.01,.05,.02,.09,.04,.18,.08,.28,.12,.04,.02,.07,.03,.11,.05,.06,.03,.11,.05,.17,.08,.04,.02,.08,.04,.12,.06,.05,.03,.11,.05,.16,.08,.04,.02,.08,.04,.12,.06,.05,.03,.11,.05,.16,.08,.04,.02,.08,.04,.12,.06,.05,.03,.1,.05,.16,.08,.04,.02,.08,.04,.12,.06,.05,.03,.11,.06,.16,.08,.04,.02,.08,.04,.11,.06,.06,.03,.12,.06,.17,.09,.03,.02,.07,.04,.1,.05,.07,.04,.13,.07,.2,.11,.02,.01,.05,.03,.07,.04,.09,.05,.18,.1,.27,.15,.02,.01,.04,.03,.07,.04l.2,.11s.07,.04,.1,.06c.06,.03,.11,.06,.17,.1l.11,.07c.05,.03,.11,.06,.16,.09,.04,.02,.08,.05,.11,.07,.05,.03,.1,.06,.16,.09,.04,.02,.08,.05,.11,.07,.05,.03,.11,.06,.16,.1,.04,.02,.07,.04,.11,.07,.05,.03,.11,.07,.16,.1,.04,.02,.07,.04,.1,.07,.06,.04,.12,.08,.17,.11,.03,.02,.06,.04,.09,.06,.09,.06,.17,.12,.26,.17,3.09-2.36,5.72-4.67,8.81-7.03-2.4-.91-5.06-3.24-8.51-7.43-.08,.06-.16,.12-.24,.18-.03,.02-.05,.04-.08,.06-.05,.04-.11,.08-.17,.12-.03,.02-.07,.04-.1,.07l-.15,.1s-.07,.05-.11,.07c-.05,.03-.09,.06-.14,.09-.04,.02-.07,.05-.11,.07-.05,.03-.09,.06-.14,.09l-.11,.07s-.1,.06-.15,.09c-.04,.02-.07,.05-.11,.07-.05,.03-.1,.06-.15,.09-.04,.02-.07,.04-.11,.07-.05,.03-.11,.07-.16,.1-.03,.02-.06,.04-.09,.06-.07,.04-.13,.08-.2,.12l-.06,.03-.26,.15s-.05,.03-.08,.05c-.06,.03-.12,.07-.18,.1l-.11,.06c-.05,.03-.1,.06-.16,.09-.04,.02-.08,.04-.12,.06-.05,.03-.1,.05-.15,.08-.04,.02-.08,.04-.12,.06-.05,.03-.1,.05-.14,.07-.04,.02-.09,.04-.13,.07-.05,.02-.1,.05-.14,.07-.04,.02-.08,.04-.12,.06-.05,.03-.1,.05-.15,.08l-.12,.06c-.05,.02-.1,.05-.15,.07-.04,.02-.08,.04-.12,.06-.05,.03-.11,.05-.16,.08-.04,.02-.08,.04-.11,.05-.08,.04-.15,.07-.23,.11-.05,.02-.1,.04-.15,.07-.05,.02-.11,.05-.16,.07-.04,.02-.09,.04-.13,.06-.05,.02-.1,.04-.15,.07-.05,.02-.09,.04-.14,.06-.05,.02-.09,.04-.14,.06-.05,.02-.09,.04-.14,.06s-.09,.04-.14,.06c-.05,.02-.1,.04-.14,.06l-.14,.06s-.1,.04-.14,.06c-.05,.02-.09,.04-.14,.05-.05,.02-.1,.04-.15,.06-.05,.02-.09,.03-.13,.05-.05,.02-.1,.04-.15,.06-.04,.02-.09,.03-.13,.05-.05,.02-.11,.04-.16,.06-.04,.01-.08,.03-.12,.04-.12,.04-.23,.08-.35,.12l-.09,.03c-.06,.02-.11,.04-.17,.06-.04,.01-.08,.03-.12,.04-.05,.02-.11,.04-.17,.05-.04,.01-.08,.03-.13,.04-.06,.02-.11,.04-.17,.05-.04,.01-.08,.03-.12,.04-.06,.02-.11,.04-.17,.05-.04,.01-.08,.02-.12,.04-.06,.02-.12,.03-.17,.05l-.12,.03c-.06,.02-.12,.04-.18,.05-.04,.01-.08,.02-.11,.03-.06,.02-.12,.03-.18,.05l-.11,.03c-.06,.02-.13,.04-.19,.05-.03,0-.05,.01-.08,.02-.24,.06-.49,.13-.73,.19-.02,0-.05,.01-.07,.02-.07,.02-.14,.03-.21,.05l-.1,.02c-.07,.02-.13,.03-.2,.05-.03,0-.07,.02-.1,.02-.07,.02-.13,.03-.2,.04l-.1,.02c-.07,.01-.13,.03-.2,.04l-.11,.02c-.07,.01-.13,.03-.2,.04l-.1,.02c-.07,.01-.14,.03-.21,.04l-.08,.02c-.07,.01-.15,.03-.23,.04h-.06c-.36,.08-.73,.14-1.09,.2h-.06c-.08,.02-.16,.03-.24,.05h-.08c-.07,.02-.15,.03-.23,.05h-.09c-.07,.02-.15,.03-.22,.04h-.09c-.07,.02-.15,.03-.22,.04h-.09c-.07,.02-.15,.03-.22,.04h-.08c-.08,.02-.16,.03-.24,.04h-.04c-.33,.04-.67,.08-1.01,.11h0c-.06,0-.11,.01-.17,.02h-.01l-.95,.08h-.02c-.07,0-.15,.01-.22,.02-.05,0-.1,0-.14,0h-.15c-.09,.02-.18,.02-.27,.03h-.04c-.07,0-.15,.01-.22,.01Zm2.87,3.11l-1.9-.12h-.16l-1.36-.1h0c-.19-.02-.82-.11-.79-.05v13.62c.75,3.42,1.97,6.67,4.36,11.09-1.61,1.03-3.07,2.5-4.36,4.52v1.37l.05,.05c1.47-2.34,3.2-4.3,5.52-6.01-1.63-1.79-2.61-4.04-3.21-6.48,.93,2.54,2.28,4.82,4.01,6.89-2.51,1.65-4.59,3.94-6.36,6.68v1.29c2-3.11,4.54-5.77,7.87-7.8-4.6-5.08-7.02-14.11-7.07-24.15l1.28,.04h0v.11h0v.06h0v.06h0v.07h0v.1h0v.16l-.02,.03c.46,11.63,3.81,18.07,7.34,24.19-4.15,2.92-7.23,6.14-9.37,9.63v1.86c2.73-4.59,6.39-8.36,10.87-11.41-4.84-6.25-7.21-14.44-7.68-24.1v-.1h0v-.1h0v-.05h0v-.05h0v-.05h0v-.05h0v-.06h0v-.05h0v-.06h0v-.05h0v-.02l1.06,.19c.49,9.84,3.23,17.98,7.94,24.64-5.23,3.38-9.41,7.66-12.02,13.27h-.19v4.53h.02c4.28-8.36,9.87-13.89,16.64-16.9-1.04-1.2-2.08-2.39-3.12-3.59,9.2,6.89,17.03,7.67,23.06,.47,5.1-8.99,2.67-16.98-7.7-21.3,2.28-1.74,4.56-3.47,6.84-5.21-2.23-.84-4.45-1.68-6.68-2.52,1.09-.68,2.19-1.35,3.29-2.03,8.74,3.51,16.96,2.34,24.82-2.25,14.38-10.21,16.58-29.02,5.99-39.46-12.52-13.2-36.34-9.08-48.7,11.8,3.45-10.76,8.44-19.58,13.6-28.2-12.79-10.17-21.52-24.24-25.7-42.67-.55-1.44-.88-4.01-2.36-4.33v6.36l.19-.02c3.9,16.02,10.45,30.66,24.37,41.49-11.93,19.21-15.94,37.98-20.14,56.77-.08,1.02-.14,2.03-.18,3.01l-.78-.03c.28-4.04,.77-8.16,1.55-12.41v-.02c.05-.27,.1-.54,.16-.81v-.06c.06-.26,.11-.52,.16-.79l.02-.08c.05-.26,.1-.52,.16-.77l.02-.1c.05-.26,.11-.51,.16-.77l.02-.1c.06-.26,.11-.52,.17-.78l.02-.09c.06-.26,.12-.52,.18-.78l.02-.08c.06-.27,.12-.53,.19-.8v-.06c.56-2.3,1.19-4.63,1.91-7,0-.03,.02-.06,.03-.09,.08-.25,.15-.49,.23-.74,.02-.06,.04-.13,.06-.2,.07-.23,.14-.46,.22-.68,.03-.08,.05-.17,.08-.26,.07-.22,.14-.43,.21-.65,.03-.1,.06-.2,.1-.29,.07-.21,.14-.42,.21-.63,.04-.11,.07-.21,.11-.32,.07-.21,.14-.41,.21-.62l.11-.33c.07-.2,.14-.4,.21-.61,.04-.12,.08-.23,.12-.35,.07-.2,.14-.4,.21-.6,.04-.12,.09-.24,.13-.37,.07-.2,.14-.39,.22-.59l.14-.37c.07-.2,.15-.39,.22-.59,.05-.13,.1-.25,.14-.38,.08-.2,.15-.39,.23-.59,.05-.13,.1-.25,.15-.38,.08-.2,.15-.39,.23-.59,.05-.13,.1-.26,.15-.38,.08-.2,.16-.4,.24-.6,.05-.12,.1-.24,.15-.36,.08-.21,.17-.41,.25-.62,.05-.12,.1-.23,.14-.35,.09-.21,.18-.42,.26-.64,.05-.11,.09-.22,.14-.33,.31-.74,.63-1.48,.96-2.22,.06-.14,.12-.28,.18-.42,.08-.18,.17-.37,.25-.55,.07-.15,.14-.31,.21-.46,.08-.18,.16-.36,.25-.54,.07-.16,.15-.32,.22-.48,.08-.17,.16-.35,.24-.52,.08-.17,.16-.34,.24-.51,.08-.17,.16-.34,.24-.51,.08-.17,.16-.35,.25-.52,.08-.17,.16-.34,.25-.51,.08-.18,.17-.35,.26-.53,.08-.17,.17-.34,.25-.51,.09-.18,.17-.36,.26-.53,.08-.17,.17-.34,.25-.51,.09-.18,.18-.36,.27-.54,.09-.17,.17-.34,.26-.51,.09-.18,.19-.36,.28-.54,.09-.17,.17-.34,.26-.51,.09-.18,.19-.37,.29-.55,.09-.17,.18-.34,.26-.51,.1-.19,.2-.37,.3-.56,.09-.17,.18-.34,.27-.51,.1-.19,.21-.38,.31-.57,.09-.17,.18-.33,.27-.5,.11-.2,.21-.4,.32-.59,.09-.16,.18-.32,.27-.48,.11-.21,.23-.41,.34-.62,.09-.15,.17-.31,.26-.46,.12-.22,.24-.43,.36-.65,.08-.15,.17-.3,.25-.45,.13-.24,.27-.48,.41-.72,.07-.13,.14-.25,.21-.38,.21-.37,.42-.73,.64-1.1-10.69-9.09-18.2-22.59-23.22-38.18v3.79c7.57,19.87,14.67,29.11,21.62,34.8-.24,.42-.48,.83-.71,1.24-.08,.13-.15,.27-.23,.4-.16,.28-.31,.56-.47,.83-.09,.16-.17,.31-.26,.47-.14,.25-.28,.5-.41,.75-.09,.17-.18,.33-.27,.5-.13,.24-.26,.47-.38,.71-.09,.17-.18,.35-.27,.52-.12,.23-.24,.46-.36,.69-.09,.18-.18,.35-.27,.52-.12,.22-.23,.45-.35,.67-.09,.18-.18,.35-.27,.52-.11,.22-.22,.44-.34,.66-.09,.17-.17,.35-.26,.52-.11,.22-.22,.44-.33,.66-.08,.17-.17,.34-.25,.51-.11,.22-.21,.44-.32,.66-.08,.17-.16,.33-.24,.5-.11,.22-.21,.45-.32,.67-.08,.16-.15,.32-.23,.48-.11,.23-.21,.46-.32,.68-.07,.15-.14,.3-.21,.45-.11,.24-.22,.48-.33,.72-.06,.14-.12,.27-.19,.41-.13,.28-.25,.56-.37,.83-.04,.09-.08,.19-.13,.28-.16,.37-.33,.74-.49,1.11-.02,.05-.04,.11-.07,.16-.14,.31-.27,.63-.4,.94-.05,.12-.1,.24-.15,.36-.1,.24-.21,.49-.31,.73-.06,.14-.11,.27-.17,.41-.09,.22-.18,.45-.27,.67-.06,.14-.12,.29-.17,.43-.09,.21-.17,.42-.25,.64-.06,.15-.12,.3-.17,.44-.08,.21-.16,.41-.24,.62-.06,.15-.12,.3-.17,.45-.08,.2-.15,.4-.23,.6-.06,.15-.11,.3-.17,.45-.07,.2-.15,.4-.22,.59-.05,.15-.11,.3-.16,.44-.07,.2-.14,.39-.21,.59-.05,.15-.11,.29-.16,.44-.07,.2-.14,.39-.21,.59-.05,.14-.1,.29-.15,.43-.07,.2-.14,.4-.2,.6-.05,.14-.09,.27-.14,.41-.07,.21-.14,.41-.21,.62-.04,.13-.08,.25-.12,.38-.07,.22-.14,.44-.21,.66-.04,.11-.07,.22-.11,.33-.08,.27-.17,.54-.25,.8-.02,.06-.04,.11-.05,.17-.1,.33-.2,.65-.3,.97-.02,.08-.05,.15-.07,.23-.07,.24-.15,.49-.22,.73l-.1,.34c-.06,.2-.12,.4-.17,.61-.04,.13-.07,.25-.11,.38-.05,.19-.11,.37-.16,.56-.04,.13-.07,.27-.11,.4-.05,.18-.1,.35-.14,.53-.04,.14-.07,.27-.11,.41-.04,.17-.09,.34-.13,.51-.04,.14-.07,.28-.11,.42-.04,.17-.08,.33-.13,.5-.03,.14-.07,.28-.1,.42-.04,.16-.08,.32-.12,.48-.03,.14-.07,.28-.1,.42-.04,.16-.08,.32-.11,.48-.03,.14-.07,.28-.1,.42-.04,.16-.07,.31-.11,.47-.03,.14-.06,.28-.09,.42-.04,.15-.07,.31-.1,.46-.03,.14-.06,.28-.09,.41-.03,.15-.06,.3-.1,.45-.03,.14-.06,.27-.09,.41-.03,.15-.06,.3-.09,.45-.03,.14-.06,.27-.08,.41-.03,.14-.05,.27-.08,.41-.06,.33-.13,.65-.19,.97-.02,.09-.04,.18-.05,.26-.03,.16-.06,.32-.09,.48-.02,.11-.04,.23-.06,.34-.03,.16-.06,.32-.08,.48-.02,.11-.04,.22-.06,.33-.03,.16-.05,.31-.08,.47-.02,.11-.04,.23-.06,.34-.03,.16-.05,.31-.08,.47-.02,.11-.04,.21-.05,.32-.03,.16-.05,.32-.08,.48-.02,.1-.03,.2-.05,.31-.02,.16-.05,.32-.07,.48-.01,.1-.03,.19-.04,.29-.02,.16-.05,.33-.07,.49-.01,.09-.03,.19-.04,.28-.02,.16-.05,.32-.07,.48-.01,.09-.02,.18-.04,.27-.02,.17-.04,.33-.07,.5-.01,.08-.02,.15-.03,.23-.02,.17-.05,.35-.07,.52l-.02,.19c-.02,.19-.05,.38-.07,.56v.1c-.24,1.87-.43,3.67-.59,5.38l-2.07-.08c2.21-18.87,4.63-37.78,16.72-58.12-7.11-5.95-12.98-14.67-17.21-27.02v2.66c3.59,9.71,8.36,18.32,15.71,24.53-7.53,11.87-10,25.08-13.69,37.96,2.53-12.98,6.06-25.72,12.18-37.79-6.53-5.09-10.61-13.66-14.21-22.91v2.15c2.04,5.67,4.57,10.46,7.49,14.48-2-1.77-4.62-2.84-7.49-2.86v.88c5.82,.03,10.52,4.78,10.52,10.64s-4.71,10.61-10.52,10.64v.88c4.12-.02,7.73-2.23,9.73-5.53-6.56,16.49-9.21,29.92-9.73,41.68v8.92c0,.16,.01,.33,.02,.49l2.43-.26,.93-.1,.55-.06,.27-.03v.08c6.31-.79,12.03-2.7,16.85-6.35,3.73,4.67,6.75,7.05,9.35,8.06-3.34,2.63-6.68,5.26-10.01,7.9-5.04-3.49-10.48-5.19-16.17-5.79Zm9.19,12.25c2.65,2.51,5.8,4.65,11.18,5.14,4.19,.2,7.03-1.59,8.47-5.39,1.6,2.38-.33,10.12-7.87,9.54-6.42-.64-9.79-4.28-11.78-9.29Z"/></clipPath><linearGradient id="linear-gradient-2" x1="-5558.31" y1="2593.31" x2="-5558.15" y2="2593.31" gradientTransform="translate(1602558.66 4511371.67) rotate(90) scale(811.64 617.89)" xlink:href="#linear-gradient"/><clipPath id="clippath-2"><path class="cls-3" d="M269.35,212.49c-.25-.06-.53-.09-.84-.09-2.49,0-5.06,1.58-7.74,4.75-3.79,4.6-5.69,8.36-5.69,11.28,0,1.3,.43,1.96,1.3,1.96,1.37,0,3.14-1.43,5.31-4.29,3.04-3.85,5.59-8.39,7.64-13.61m13.7,9.79c0,.31-.19,.75-.56,1.31-2.73,4.41-5.31,7.24-7.74,8.48-1.12,.56-2.24,.84-3.36,.84-3.79,0-5.69-2.67-5.69-8.02,0-.87,.06-1.8,.19-2.8-4.16,7.39-7.86,11.09-11.09,11.09-1.93,0-2.89-1.06-2.89-3.17,0-3.23,1.55-7.13,4.66-11.7,3.11-4.57,6.12-7.35,9.04-8.34,1.06-.44,2.08-.65,3.08-.65,2.24,0,3.85,.78,4.85,2.33,.19,.31,.28,.53,.28,.65,0,.06-.22,.16-.65,.28-.44,.12-.75,.34-.93,.65-1.49,2.42-2.24,6.06-2.24,10.91,0,4.47,.96,6.71,2.89,6.71,1.37,0,3.31-1.51,5.83-4.52,2.52-3.01,3.87-4.52,4.06-4.52s.28,.16,.28,.47Zm-26.19-.56c0,.25-.19,.59-.56,1.02-2.17,3.17-5.19,6.06-9.04,8.67-2.24,1.43-4.6,2.14-7.08,2.14-4.6,0-6.9-2.45-6.9-7.36,0-3.04,1.69-6.4,5.08-10.07,3.39-3.67,6.57-5.5,9.55-5.5,1.99,0,2.98,.78,2.98,2.33,0,.62-.45,1.69-1.35,3.22-.9,1.52-1.63,2.28-2.19,2.28-.25,0-.37-.16-.37-.47,0-.25,.11-.65,.33-1.21,.22-.56,.33-.99,.33-1.31,0-1.3-.81-1.96-2.42-1.96-2.24,0-4.26,1.46-6.06,4.38-1.68,2.67-2.52,5.19-2.52,7.55,0,3.85,1.68,5.78,5.03,5.78,4.23,0,8.64-2.89,13.24-8.67,.62-.75,1.15-1.12,1.58-1.12,.25,0,.37,.09,.37,.28Zm-20.69-.09c0,.5-.19,1.03-.56,1.58-4.85,7.71-9.66,11.56-14.45,11.56-3.48,0-5.22-2.02-5.22-6.06s1.3-7.92,3.91-12.21c-.37,.12-.78,.19-1.21,.19-1,0-1.96-.31-2.89-.93-1.12-.68-1.68-1.46-1.68-2.33-.68,1.55-1.96,3.76-3.82,6.62-2.3,3.6-3.82,5.41-4.57,5.41-.25,0-.37-.12-.37-.37s.15-.59,.47-1.02c2.42-3.29,4.88-7.55,7.36-12.77-.12-.56-.19-1.24-.19-2.05,0-1.43,.28-3.08,.84-4.94,.62-2.36,1.46-3.54,2.52-3.54,.68,0,1.27,.56,1.77,1.68,.44,.87,.65,1.71,.65,2.52,0,1.55-1.27,3.82-3.82,6.8,.56,1.93,1.65,2.89,3.26,2.89,1.12,0,2.21-.61,3.26-1.82,1.06-1.21,1.8-1.82,2.24-1.82,.56,0,1.06,.23,1.49,.7,.44,.47,.65,1.01,.65,1.63,0-.06-1.09,2.02-3.26,6.24-2.17,4.23-3.26,7.49-3.26,9.79,0,2.18,1.03,3.26,3.08,3.26,1.74,0,3.73-.99,5.96-2.98,1.43-1.31,3.11-3.17,5.03-5.59,1.55-1.99,2.36-2.98,2.42-2.98,.25,0,.37,.19,.37,.56Zm-42.04,4.85c-2.05-1.37-3.61-2.95-4.66-4.75-1.86,3.91-2.8,6.74-2.8,8.48,0,1.24,.47,1.86,1.4,1.86,.87,0,2.02-.75,3.45-2.24,1.24-1.18,2.11-2.3,2.61-3.36Zm3.07-10.91c0-1.37-.22-2.76-.65-4.19-.62-1.99-1.43-2.98-2.42-2.98-1.43,0-2.55,.87-3.36,2.61-.62,1.37-.9,2.86-.84,4.47,.99-1.18,1.99-1.77,2.98-1.77,.93,0,1.62,.31,2.05,.93v.47c.06,.19,.09,.34,.09,.47,0,.19-.31,.28-.93,.28-1.12,0-2.3,1.18-3.54,3.54,.81,2.36,2.24,4.29,4.29,5.78,1.55-3.91,2.33-7.11,2.33-9.6Zm11,7.08c0,.12-.06,.25-.19,.37-.87,1.49-2.19,2.77-3.96,3.82-1.77,1.06-3.5,1.58-5.17,1.58-1.24,0-2.39-.31-3.45-.93-2.86,4.54-5.81,6.8-8.86,6.8-2.17,0-3.26-1.27-3.26-3.82,0-3.54,1.55-7.71,4.66-12.49-.12-.68-.19-1.37-.19-2.05,0-2.24,.75-4.41,2.24-6.52,1.49-2.11,3.32-3.17,5.5-3.17,1.43,0,2.58,.84,3.45,2.52,.68,1.43,1.03,2.92,1.03,4.47,0,3.36-1.3,7.61-3.92,12.77,.93,.56,1.99,.84,3.17,.84,2.05,0,3.98-.81,5.78-2.42,1.8-1.62,2.64-2.42,2.52-2.42,.43,0,.65,.22,.65,.65Zm-16.5-40.27c0-1.18-.4-1.77-1.21-1.77-1.8,0-4.01,1.74-6.62,5.22-2.98,4.04-6.37,9.72-10.16,17.06-4.16,8.02-6.65,14.01-7.46,17.99,3.42-2.98,8.02-8.45,13.8-16.4,5.96-8.33,9.57-14.35,10.81-18.08,.56-1.74,.84-3.08,.84-4.01Zm4.01-.37c0,4.23-4.01,11.4-12.02,21.53-6.34,7.89-12.24,14.39-17.71,19.48,0,6.77,1.71,10.16,5.13,10.16s8.26-3.51,14.54-10.53c.25-.31,.5-.47,.75-.47,.31,0,.47,.22,.47,.65,0,.25-.09,.5-.28,.75-2.17,2.86-4.66,5.34-7.46,7.46-3.54,2.73-6.68,4.1-9.41,4.1-4.66,0-6.99-3.82-6.99-11.46,0-5.22,2.58-12.24,7.74-21.07,4.23-7.21,8.73-13.45,13.51-18.73,3.42-3.73,6.28-5.59,8.58-5.59,.75,0,1.46,.42,2.14,1.26,.68,.84,1.03,1.66,1.03,2.47Zm-26.84,.37c0-1.18-.4-1.77-1.21-1.77-1.8,0-4.01,1.74-6.62,5.22-2.98,4.04-6.37,9.72-10.16,17.06-4.16,8.02-6.65,14.01-7.46,17.99,3.42-2.98,8.02-8.45,13.79-16.4,5.96-8.33,9.57-14.35,10.81-18.08,.56-1.74,.84-3.08,.84-4.01Zm4.01-.37c0,4.23-4.01,11.4-12.02,21.53-6.34,7.89-12.24,14.39-17.71,19.48,0,6.77,1.71,10.16,5.13,10.16s8.26-3.51,14.54-10.53c.25-.31,.5-.47,.75-.47,.31,0,.47,.22,.47,.65,0,.25-.09,.5-.28,.75-2.17,2.86-4.66,5.34-7.46,7.46-3.54,2.73-6.68,4.1-9.41,4.1-4.66,0-6.99-3.82-6.99-11.46,0-5.22,2.58-12.24,7.74-21.07,4.23-7.21,8.73-13.45,13.52-18.73,3.42-3.73,6.28-5.59,8.57-5.59,.75,0,1.46,.42,2.14,1.26,.68,.84,1.03,1.66,1.03,2.47Zm-45.39,30.48c-.25-.06-.53-.09-.84-.09-2.49,0-5.06,1.58-7.74,4.75-3.79,4.6-5.69,8.36-5.69,11.28,0,1.3,.43,1.96,1.3,1.96,1.37,0,3.14-1.43,5.31-4.29,3.04-3.85,5.59-8.39,7.64-13.61Zm13.7,9.79c0,.31-.19,.75-.56,1.31-2.73,4.41-5.31,7.24-7.74,8.48-1.12,.56-2.24,.84-3.36,.84-3.79,0-5.69-2.67-5.69-8.02,0-.87,.06-1.8,.19-2.8-4.16,7.39-7.86,11.09-11.09,11.09-1.93,0-2.89-1.06-2.89-3.17,0-3.23,1.55-7.13,4.66-11.7,3.11-4.57,6.12-7.35,9.04-8.34,1.06-.44,2.08-.65,3.08-.65,2.24,0,3.85,.78,4.85,2.33,.19,.31,.28,.53,.28,.65,0,.06-.22,.16-.65,.28-.44,.12-.75,.34-.93,.65-1.49,2.42-2.24,6.06-2.24,10.91,0,4.47,.96,6.71,2.89,6.71,1.37,0,3.31-1.51,5.83-4.52s3.87-4.52,4.05-4.52,.28,.16,.28,.47Zm-33.82-23.58c0,2.05-.62,4.57-1.86,7.55-1.93,4.72-3.88,9.44-5.87,14.17-2.49,6.52-3.73,11.25-3.73,14.17,0,2.24,.84,3.36,2.52,3.36,.93,0,2.13-.53,3.59-1.58,1.46-1.06,2.32-1.58,2.56-1.58s.37,.16,.37,.47c0,1.24-.85,2.33-2.56,3.26-1.71,.93-3.21,1.4-4.52,1.4-3.54,0-5.31-2.08-5.31-6.25,0-2.73,.75-6.37,2.24-10.91,1.18-3.35,2.89-7.58,5.13-12.68,.87-1.68,1.99-4.23,3.36-7.64,.56-1.68,.84-2.92,.84-3.73,0-.68-.22-1.02-.65-1.02-3.17,0-8.82,4.44-16.96,13.33-5.9,6.46-10.81,12.49-14.73,18.08-1.24,1.8-2.27,3.36-3.08,4.66-.31,.68-.81,1.43-1.49,2.24-.25,.06-.5,.09-.75,.09-1.86,0-2.79-.75-2.79-2.24,0-.31,.11-.62,.33-.93,.22-.31,1.38-2.67,3.49-7.08,6.28-13.05,9.41-22.43,9.41-28.15,0-2.61-.81-3.92-2.42-3.92-2.61,0-6.96,3.32-13.05,9.97-6.9,7.58-13.36,16.37-19.39,26.38-.68,1.18-1.37,2.33-2.05,3.45-.99,1.55-1.8,2.58-2.42,3.08-1.43,0-2.14-.68-2.14-2.05,0-.44,.12-.81,.37-1.12,3.42-4.16,7.11-10.75,11.09-19.76,4.35-9.69,6.52-16.84,6.52-21.44,0-6.21-3.42-9.32-10.25-9.32-3.6,0-7.95,.9-13.05,2.7-3.42,1.24-6.91,2.83-10.49,4.75-3.57,1.93-6.94,4.1-10.11,6.52-4.72,3.67-7.08,6.68-7.08,9.04,0,3.48,3.39,5.22,10.16,5.22,1.37,0,3.39-.2,6.06-.61,2.67-.4,4.66-.61,5.96-.61,.5,0,.75,.12,.75,.37s-.16,.47-.47,.65c-2.11,1.49-5.62,2.24-10.53,2.24-3.54,0-6.59-.5-9.13-1.49-3.48-1.37-5.22-3.57-5.22-6.62,0-3.23,2.33-6.71,6.99-10.44,3.17-2.55,6.93-4.88,11.28-6.99,3.67-1.74,7.43-3.2,11.28-4.38,5.47-1.62,10.35-2.42,14.63-2.42,9.07,0,13.61,3.45,13.61,10.35,0,5.59-2.24,12.71-6.71,21.34,3.54-4.23,7.08-8.48,10.63-12.77,5.34-5.78,9.54-8.67,12.58-8.67,3.73,0,5.59,2.8,5.59,8.39,0,4.85-1.89,11.87-5.69,21.06,4.1-4.6,8.61-9.26,13.52-13.98,6.96-6.59,11.87-10.35,14.73-11.28,.81-.25,1.49-.37,2.05-.37,1.93,0,2.89,1.24,2.89,3.73Z"/></clipPath></defs><g id="Layer_1-2"><g><path class="cls-4" d="M142.71,4.54c8.04-5.53,14.55-2.17,20.3,5.54,4.05,5.96,7.74,10.49,10.64,11.74,3.02,.84,5.27-2.23,3.87-4.84-.56-.88-1.38-1.35-2.5-1.34,1.08-.74,3.28-.86,4.14,1.19,1.49,3.49-.83,6.53-4.12,6.16-4.08-.3-11.5-10.19-12.79-12.22-5.51-7.47-11.63-11.18-19.24-5.8-.1-.14-.2-.29-.3-.43m-.44-.66c6.92-5.98,14.16-3.35,21.59,4.8,3.76,4.71,6.93,10.89,9.78,11.81,1.83,.53,4.3-2.06,1.24-4.15,1.38-.07,2.91,1.28,2.1,3.58-1.28,2.36-4.03,1.69-6.73-1.48-2.35-3.04-4.71-6.08-7.06-9.12-6.62-8.46-13.47-10.68-20.66-5.01-.09-.14-.17-.29-.26-.43Zm37.38,10.22c.24,.14,.76,.5,1.26,1.21,.5,.71,.98,1.76,1.05,2.96,.07,1.2-.27,2.55-.75,3.4-.47,.85-1.08,1.2-1.69,1.44-.62,.24-1.24,.38-1.74,.43-.49,.05-.85,0-1.03-.01q-.18-.02,.02-.07c.2-.05,.58-.15,1.02-.38,.43-.23,.91-.58,1.35-1.07,.44-.5,.85-1.14,1.15-1.83,.3-.69,.49-1.43,.54-2.21,.05-.78-.05-1.61-.29-2.26-.24-.64-.62-1.11-.84-1.38-.22-.27-.27-.36-.04-.22Zm.37,5.35c.09-.27,.28-.99,.24-1.8-.04-.82-.31-1.74-.65-2.47-.34-.73-.75-1.26-1.25-1.59-.5-.33-1.07-.46-1.69-.45-.62,0-1.27,.16-1.87,.5-.6,.35-1.16,.89-1.44,1.42-.29,.53-.31,1.05-.29,1.39,.02,.34,.09,.52,.12,.6q.03,.09,.07-.08c.04-.17,.11-.51,.36-.91,.24-.41,.65-.88,1.28-1.16,.63-.28,1.47-.37,2.25-.2,.78,.17,1.5,.61,1.97,1.19,.48,.58,.71,1.31,.81,1.92,.1,.61,.06,1.1,.03,1.42-.03,.33-.04,.49,.04,.21Zm.36,3.87c-4.43,3.88-9.99,.79-14.34-5.94,.68,5.36-1.53,7.28-4.49,8.3,2.74-1.94,5.21-6.96,2.24-11.79,6.56,8.59,12.26,12.49,16.58,9.42Zm-17.01-9.19c.74,8.04-3.84,11.52-8.83,10.02,3.67,2.47,7.15,3.39,9.67-3.39,.54-2.27,.47-4.49-.84-6.63Zm-3.58,8.69c-1.42,.59-3.11,.16-4.96-1.53-2.82-1.08-3.56-3.44-2.24-7.06-2.2,3.5-1.71,7.67,1.24,9.07,3.13,1.12,4.93,.75,5.96-.48Zm-2.77-8.49c-4.96,2.35-1.78,7.86,1.84,8.04,4.24-.83,4.94-8.47,2.89-11.26C157.91,4.66,150.31,0,143.38,5.32c.17,.21,.35,.41,.53,.62,7.52-4.08,14.9,1,16.13,6.78,.85,3.94-.24,5.7-2.08,5.32-1.17-.29-1.73-1.21-.92-3.69Zm-12.75-7.77c7.12-4.04,14.33,1.56,15.41,7.44,.3,1.51-.28,2.82-.97,3.12-.96,.42-2.19-.84-.66-3.22-5.36-4.96-10.55,4.58-5.92,9.21h-2.1c-.48-5.07-.98-10.14-5.77-16.56Zm11.12,31.83c2.09-2.23,3.15-4.8,3.14-7.72-.88,2.59-2.02,4.83-3.91,6.06,.26,.55,.52,1.11,.77,1.66Zm-5.15-9.54c1.5-.35,2.51-.51,3.94,1.05,1.29,1.55,.44,3.57-.31,5.77-1.21-2.27-2.42-4.55-3.63-6.82Zm-.53-1.56c.07-.8,.14-1.61,.21-2.41,3.25,.56,4.12,2.36,4.56,4.39-.93-.83-2.38-1.53-4.77-1.98Zm4.55,9.12l-.23-.43-.09-.16,.32,.59Zm2.68-22.66c-3.05,1.36-3.59,3.68-2.5,6.63-1.5-.72-2.37-2.89-1.5-5.31,.66-1.77,2.53-2.18,4-1.32Zm-.97,25.24c2.93-.17,5.07,.7,6.63,2.31,2.42,2.54,2.49,5.09,1.91,7.64-.18-.16-.37-.32-.55-.48,.32-4.86-2.74-7.38-7.64-8.61-.12-.29-.24-.57-.36-.86Zm2.2,2.05c1.68,.99,2.32,2.18,2.05,3.56,.71,.77,1.42,1.54,2.12,2.31,.46-3.09-1.2-4.88-4.18-5.87Zm4.68,6.16c.31-.76,.19-1.79,.05-2.84,.53,1.09,.8,2.33,.75,3.74-.27-.3-.53-.6-.8-.9Zm-2.75-8.42c1.84-.14,4.22,.59,6.59,1.29,1.73,.45,3.38,.43,4.99,.12-1.75,1.97-5.73,3.24-7.52,1.81-1.01-1.68-2.47-2.56-4.06-3.22Zm-3.53-.57c1.79-1.35,3.33-2.36,7.85-2.51,3.6-.16,7.26,2.69,7.94,3.75-2.21,.44-4.76,.24-7.61-.52-3.13-1-5.48-.52-8.18-.72Zm9.21-5.87c1.05,.5,.75,2.62-1,2.4-.38-.06-.82-.15-1.03-.47-.71,.38-1.42,.76-2.12,1.15,1.42-.39,2.93-.46,4.53-.21,.57,.19,1.15,.38,1.72,.57,1.5-1.06,2.02-2.51,.41-4.84-1.28-1.33-3.42-1.13-4.39,1.05-.36,.75-.03,1.9,.53,2.12,1.24,.23,1.77-.28,1.36-1.77Zm-2.6,.95l-4.51,3.05,4.63-2.46-.12-.6Zm.07-1.05l-.12,.52-3.58,2.34,3.7-2.86Zm.6-1.55l-.5,.81-4.29,3.48,4.8-4.29Zm1.96-1.34c6.18-3.43,12.06-4.34,17.61-2.48,4.16,1.71,7.66,4.7,10.36,9.21-.17,.05-.35,.1-.52,.14-2.36-3.49-5.35-6.58-10.07-8.54-6.86-2.17-11.9-1.24-15.7,1.81-.56-.05-1.11-.1-1.67-.14Zm2.67,.62c8.73-5.41,18.28-1.13,23.67,6.72,.2-.23,.19,.06,.39-.17-2.34-4.33-6.46-7.23-10.27-8.41-5.72-2.01-10.43-1.26-14.36,1.62,.19,.08,.38,.16,.57,.24Zm.43,.62c3.89-2.78,8.33-2.96,13.17-1.29,3.57,1.24,6.73,3.88,9.59,7.54-.87,.19-1.91,.19-3.1,0-2.2-2.6-4.42-4.45-6.68-5.39-4.88-2.04-9-2.11-12.48-.45-.17-.14-.33-.27-.5-.41Zm18.65,6.23c-3.09-3.92-6.95-5.96-11.5-6.25,2.33,2.32,6.24,5.43,11.5,6.25Zm-13.89-6.11c3.96,3.93,8.12,8.36,17.32,9.07,5.21,1.84,9.81,.05,12.03-5.58-.56,4.8-4,7.64-12.26,7.16-6.4-.81-11.92-5-17.17-10.2,.03-.15,.06-.29,.09-.44Zm19.3,9.14c5.58-1.25,9.26-5.2,7.61-9.02-1.3-1.61-3.13-1.7-5.32-.83,2.11-3.09,7.31-2.32,7.42,2.6-.43,5.23-5.4,7.36-9.71,7.25Zm2.89-9.11c2.47-1.08,3.99-.45,4.48,2.03,.13,2.92-3.58,6.15-9.11,6.32-6.32,.41-11.73-3.56-16.96-8.45,.3-.02,.6-.05,.91-.07,1.59,2.09,7.97,7.57,16.15,7.13,4.85-.83,7.15-4.35,4.53-6.97Zm-36.01,13.54c-.8-.99-1.61-1.98-2.41-2.97,1.44,.46,2.5,1.56,2.41,2.97Zm6.78-22.99c-.06,.31-.14,.66-.28,1.02-.37,.96-1.12,2.03-1.98,2.75-.86,.72-1.83,1.11-2.77,1.36-.94,.25-1.85,.38-2.6,.36-.75-.02-1.36-.2-1.66-.29q-.3-.09,0,.32c.31,.41,.93,1.22,1.34,2.24,.41,1.02,.6,2.24,.48,3.37-.11,1.03-.47,1.98-.94,2.87,.24-.27,.5-.55,.78-.84,1.46-1.53,3.41-3.31,4.88-4.44,1.48-1.13,2.49-1.6,3.38-2.03,.89-.43,1.67-.81,2.06-1q.39-.19-.21-1.27c-.6-1.07-1.81-3.22-2.41-4.3l-.07-.12Zm8.22,4.25c-1.34-.15-2.73-.61-4-1.52-.42-.3-.83-.66-1.21-1.03,.61,.77,1.21,1.51,1.62,2.03q.92,1.16,1.66,.96c.43-.11,1.12-.29,1.94-.45Zm-3.26,.64l-.61,.1-2.05-3.22,2.66,3.13Zm-1.05,.16l-.37,.14-1.44-2.62,1.81,2.48Zm10.95,22.36c4.07-1.66,3-8.63-2.15-8.8-5.38,.61-6.76,5.41-6.68,8.83,.8-4.72,2.7-7.52,6.68-6.63,2.09,.69,3.01,4.28,2.15,6.61Zm-.49-.93c.47-4.87-3.17-6.83-5.81-3.72-3.65,4.87-1.5,10.31,5.01,12.26,9.04-.22,12.62-5.33,12.12-14.08-.86-.08-1.72-.16-2.58-.24,.55,6.21-4.47,11.63-8.3,11.07-3.28-.64-4.98-2.15-4.25-5.01,.73-1.46,2.66-1.68,3.81-.29Zm-.52-8.3c-2.98-1.57-5.76,.09-8.35,4.63-1.94,7.31-.3,12.18,6.54,13.5-.32,1.42-.51,2.76,0,3.67,4.83-1.38,8.29-3.98,10.83-7.4-5.3,5.19-9.94,3.72-14.41,.62-7.44-8.65,.78-16.11,5.39-15.03Zm27.96,12.43c-2.37-2.41-4.79-2.67-7.25-.67,.49-2.24,1.48-3.5,3.25-3.2,2.3,.77,3.37,2.2,4.01,3.87Zm-4.82-4.34c3.25-2.25,9.04,.85,7.16,6.73,.67,.02,1.34,.03,2,.05-.58,4-2.97,6.19-6.35,7.4,2.11-1.95,3.96-4.11,2.86-8.49-.9-3.82-2.61-6.06-5.68-5.68Zm-1.57,4.34c2.04-1.48,5.51-.93,6.44,2.05,1.8,5.9-4.45,10.11-9.21,5.01-2.09-2.12-3.8-8.53-4.29-15.13,.65,1.17,.34,1.15,.98,2.32,.08,7.32,3.49,11.58,6.18,11.8,3.79,.02,3.82-5.65-.09-6.06Zm6.61,12.62c1.08-.77,2.22-1.8,2.85-2.83,1.87-.45,3.27-.24,4.47,.72-.57,1.25-2.14,2.23-3.79,2.97-1.21-.61-2.38-.82-3.53-.86Zm-.92,8.99l2.41-.67-1.74,2-.67-1.34ZM141.54,4.38v-.1c.05,.05,.03,.08,0,.1Zm7.74,22.61c-.08-.15-.15-.29-.22-.43-1.29-2.58-1.45-3.23-2.52-6.22-.2-.56-.44-1.21-.69-1.91-.74-2.35-1.39-4.78-1.97-7.3-.55-1.42-.87-3.96-2.31-4.32-.08-.28-.08-.39-.07-.6,0-.39,.02-1.1,.03-1.64,6.46,7.27,8.11,14.85,7.71,22.33,0-.02,.02,.02,.04,.08Zm-5.8-19.31c0,.3-.02,.6-.02,.91,3.25,4.51,4.85,9.83,4.99,15.87,.29-6.34-1.62-11.83-4.96-16.77Zm.41,2.52c.09,.48,.17,.95,.26,1.43,1.54,3.38,2.5,7.04,3.34,10.74,.02-4.38-1.2-8.43-3.6-12.17Zm-1.66-7.13c.65-.52,1.94-1.43,3.27-2.05,1.33-.61,2.7-.93,4.16-1.01,1.46-.07,3.02,.11,4.68,.71,1.65,.61,3.4,1.64,5.25,3.1,1.84,1.46,3.79,3.36,5.35,5.2,1.57,1.85,2.76,3.64,3.79,5.21,1.03,1.57,1.91,2.9,2.68,3.78,.77,.87,1.44,1.29,2.09,1.42,.65,.14,1.29,0,1.65-.33,.36-.33,.44-.83,.28-1.19-.16-.35-.56-.54-.94-.55-.38,0-.75,.17-.96,.35-.21,.18-.28,.37-.34,.41-.06,.04-.13-.07-.31-.35-.18-.28-.48-.72-.46-1.41,.02-.68,.37-1.61,.89-2.3,.52-.69,1.2-1.15,2.15-1.36,.95-.21,2.16-.16,3.16,.11,1,.27,1.8,.76,2.49,1.54,.69,.78,1.28,1.85,1.55,3.07s.22,2.61-.29,3.9c-.52,1.29-1.5,2.48-2.7,3.24-.47,.29-.96,.52-1.49,.68,1.22,.03,2.49,.2,3.74,.49,1.72,.41,3.39,1.06,4.88,1.95,1.49,.89,2.8,2.02,3.99,3.25,1.18,1.23,2.23,2.57,2.84,3.39,.61,.82,.78,1.12,.86,1.27,.09,.15,.1,.15,.34-.02s.72-.5,1.05-.95c.33-.45,.52-1,.52-1.5,0-.5-.2-.93-.55-1.28-.35-.34-.84-.59-1.09-.71q-.25-.12-.16-.43c.09-.31,.26-.92,.61-1.47,.34-.55,.85-1.03,1.57-1.37,.72-.33,1.66-.52,2.58-.43,.92,.08,1.83,.43,2.7,1.28,.87,.84,1.69,2.18,1.95,3.5,.25,1.32-.07,2.63-.54,3.85-.47,1.23-1.08,2.37-2.1,3.29-1.02,.92-2.46,1.62-3.38,1.99-.92,.37-1.34,.41-1.54,.43-.2,.02-.2,.02-.1,1.3,.09,1.28,.27,3.84,.66,5.85,.4,2,1.02,3.45,1.54,4.51,.52,1.06,.93,1.74,1.4,2.27,.46,.53,.98,.91,1.55,1.09,.57,.17,1.18,.14,1.64-.04,.47-.19,.78-.53,.95-.92,.17-.39,.18-.81,.11-1.25-.08-.43-.24-.87-.54-1.19-.3-.32-.73-.53-1.18-.63-.45-.1-.93-.09-1.18-.08-.25,.01-.26,.03-.33-.23-.06-.26-.18-.8-.1-1.57,.08-.77,.35-1.76,.89-2.58,.54-.82,1.35-1.48,2.26-1.86,.91-.38,1.91-.49,2.88-.39,.97,.1,1.9,.41,2.7,.99,.8,.58,1.48,1.42,1.89,2.07,.41,.65,.55,1.11,.6,1.7,.04,.59-.01,1.3-.07,1.77-.06,.47-.12,.68,.08,.79,.2,.11,.67,.11,1.04,.17,.37,.07,.63,.2,.76,.51,.13,.31,.13,.8,.03,1.63-.1,.84-.3,2.03-.62,2.95-.32,.91-.76,1.55-.97,1.87q-.22,.32,.26,.28c.48-.04,1.44-.11,2.26,.11,.82,.21,1.48,.72,1.82,.97q.33,.25,.06,.65c-.28,.4-.83,1.19-1.44,1.78-.61,.58-1.27,.96-1.6,1.14-.33,.19-.34,.19,.33,.58,.67,.39,2.01,1.18,3.05,2.52,1.04,1.34,1.77,3.22,2.09,4.71,.32,1.49,.24,2.58-.09,3.89-.33,1.31-.9,2.84-1.63,4.08-.72,1.25-1.6,2.21-2.38,2.84-.78,.64-1.48,.95-2.19,1.08-.56,.11-1.14,.1-1.54,.09-.01-.27-.03-.55-.05-.82,5.54-.22,7.24-6.57,7.24-10.06-.58-6.5-5.31-8.9-12.01-9.36,3.41-1.71,5.56-4.29,6.42-7.77-3.28,5.4-7.52,7.06-13.22,3.1,1.41,2.65,4.32,4.52,8.4,5.77,7.19,1.38,10.53,5.14,8.69,12.12-1.3,3.23-3.3,4.63-5.64,5.12-.03-.2-.05-.41-.09-.61,1.92-.27,3.55-1.76,4.9-4.45-1.92,2.45-3.73,2.96-5.44,1.87-.09-.35-.2-.7-.31-1.05,5.39,2.48,9.89-5.84,2.48-10.76-2.76-1.78-10.91-1.08-14.7-9.78-1.74-3.05-2.19-4.74-2.78-7.85-.33-2.37-.42-5.88-1.28-8.52-.19,.03-.38,.06-.57,.1-.14,10.37-4.85,15.83-11.74,18.95,4.71-.14,9.17-2.17,12.6-12.12,.17,5.81,.45,11.58,6.16,15.84,3.5,2.25,8.21,1.82,11.84,4.2,3.5,2.29,3.21,5.88,.76,6.51-.96,.28-2.19-.45-2.19-2.31-1.33,.65-1.93,1.37-2.09,2.15-.43-.82-.92-1.61-1.46-2.37h.01c.68-.54,1.24-.84,1.98-.93,.74-.09,1.67,.03,2.13,.09,.46,.06,.46,.07,.39,.2-.07,.13-.2,.39-.24,.77-.03,.38,.04,.89,.33,1.23,.29,.34,.8,.52,1.21,.38,.41-.14,.72-.59,.9-1.11,.18-.52,.23-1.11,.04-1.69-.18-.58-.59-1.15-1.29-1.72-1.84-1.49-4.18-2.17-6.75-2.6-1.26-.21-2.43-.46-3.91-1.11-1.47-.65-3.4-1.97-4.75-3.6-1.34-1.63-2.22-3.31-2.75-4.94-.61-1.88-.72-3.45-.7-6.23,0-.37,.1-.41-.22,.43-.32,.83-.99,2.55-1.92,4.04-.93,1.49-2.11,2.74-3.8,3.73-1.69,.98-3.87,1.69-5.67,1.93-1.8,.24-3.21,0-3.91-.11q-.7-.12-.74-.53c-.03-.42-.1-1.25-.02-1.85,.08-.6,.29-.97,.4-1.15s.11-.18-.21-.16c-.32,.02-.95,.07-2.06-.49-1.1-.56-2.67-1.73-3.6-3.28-.93-1.55-1.21-3.47-1.32-5.22-.11-1.75-.04-3.32,.57-4.82,.61-1.49,1.75-2.9,2.67-3.9,.91-1,1.6-1.6,2.4-1.91,.8-.31,1.71-.35,2.66-.21,.95,.14,1.92,.44,2.78,1.02,.86,.58,1.59,1.45,2.01,2.21,.42,.76,.53,1.4,.58,2.21,.05,.81,.03,1.78-.19,2.68-.22,.9-.64,1.74-1.2,2.25-.56,.51-1.26,.69-1.7,.78-.45,.08-.64,.07-.73,.06q-.1,0-.07-.2c.02-.19,.07-.58-.09-.95-.17-.36-.55-.7-.98-.74-.43-.04-.92,.21-1.2,.56-.28,.35-.36,.78-.34,1.2,.02,.41,.15,.8,.5,1.22,.35,.42,.93,.86,1.63,1.16,.69,.29,1.5,.44,2.29,.4,.79-.04,1.57-.26,2.25-.67,.68-.41,1.25-.99,1.93-1.87,.68-.88,1.47-2.05,1.95-3.13,.49-1.08,.67-2.08,.7-2.88,.03-.8-.1-1.42-.16-1.72q-.06-.31-.79-.49c-.72-.18-2.17-.54-4.49-1.84-2.32-1.3-5.52-3.54-7.52-5.18-2-1.63-2.82-2.66-3.22-3.17q-.41-.51-.7-.49c-.29,.02-.87,.06-1.38,.19-.51,.13-.95,.34-1.17,.44-.23,.1-.24,.08-.13,.21,.11,.13,.35,.4,.41,1.01,.06,.61-.07,1.56-.31,2.19-.24,.64-.59,.96-.77,1.12-.18,.16-.19,.15,.33,.4,.52,.25,1.56,.76,2.41,1.35,.85,.59,1.51,1.27,1.85,1.61,.34,.34,.35,.34,.12,.61-.24,.27-.73,.81-1.42,1.36s-1.58,1.11-2.5,1.5c-.92,.4-1.88,.64-2.67,.7s-1.42-.06-1.74-.13c-.32-.07-.33-.08-.15,.45,.17,.54,.52,1.63,.54,2.66,.02,1.04-.29,2.02-.45,2.52q-.15,.49-.92,.14h-.03c-3.21-3.15-6.11-6.59-8.68-10.34,.03-.07,.06-.14,.1-.21-.03,0-.06,0-.08,0-.17-.03-.28-.19-1.28-2.06,2.4-2.72,4.51-5.47,3.07-8.57-1.38-2.6-4.99-4.87-7.38-3.71,5.33,1,7.12,7.49,3.88,11.47-1.17-2.18-3.13-5.84-4.42-8.35,.58-9.41-2.04-16.35-7.92-23.06,.02-.54,.03-.68,.68-1.21Z"/><path class="cls-4" d="M142.71,170.54c8.04,5.53,14.55,2.17,20.3-5.54,4.05-5.96,7.74-10.49,10.64-11.74,3.02-.84,5.27,2.23,3.87,4.84-.56,.88-1.38,1.35-2.5,1.34,1.08,.74,3.28,.86,4.14-1.19,1.49-3.49-.83-6.53-4.12-6.16-4.08,.3-11.5,10.19-12.79,12.22-5.51,7.47-11.63,11.18-19.24,5.8-.1,.14-.2,.29-.3,.43m-.44,.66c6.92,5.98,14.16,3.35,21.59-4.8,3.76-4.71,6.93-10.89,9.78-11.81,1.83-.53,4.3,2.06,1.24,4.15,1.38,.07,2.91-1.28,2.1-3.58-1.28-2.36-4.03-1.69-6.73,1.48-2.35,3.04-4.71,6.08-7.06,9.11-6.62,8.46-13.47,10.68-20.66,5.01-.09,.14-.17,.29-.26,.43Zm37.38-10.22c.24-.14,.76-.51,1.26-1.21,.5-.71,.98-1.76,1.05-2.96,.07-1.2-.27-2.55-.75-3.4-.47-.85-1.08-1.2-1.69-1.44-.62-.24-1.24-.38-1.74-.42-.49-.05-.85,0-1.03,.01q-.18,.02,.02,.07c.2,.05,.58,.16,1.02,.38,.43,.23,.91,.58,1.35,1.07,.44,.5,.85,1.14,1.15,1.83,.3,.69,.49,1.43,.54,2.21,.05,.78-.05,1.61-.29,2.25-.24,.64-.62,1.11-.84,1.38-.22,.27-.27,.36-.04,.22Zm.37-5.35c.09,.27,.28,.99,.24,1.8-.04,.82-.31,1.74-.65,2.47-.34,.73-.75,1.26-1.25,1.59-.5,.33-1.07,.46-1.69,.45-.62-.01-1.27-.16-1.87-.5-.6-.35-1.16-.89-1.44-1.42-.29-.53-.31-1.05-.29-1.39,.02-.34,.09-.52,.12-.6q.03-.09,.07,.08c.04,.17,.11,.51,.36,.91,.24,.41,.65,.88,1.28,1.16,.63,.28,1.47,.37,2.25,.2,.78-.17,1.5-.61,1.97-1.19,.48-.58,.71-1.31,.81-1.92,.1-.61,.06-1.1,.03-1.42-.03-.33-.04-.49,.04-.21Zm.36-3.87c-4.43-3.88-9.99-.79-14.34,5.94,.68-5.36-1.53-7.27-4.49-8.3,2.74,1.94,5.21,6.96,2.24,11.79,6.56-8.59,12.26-12.49,16.58-9.43Zm-17.01,9.19c.74-8.04-3.84-11.52-8.83-10.02,3.67-2.47,7.15-3.39,9.67,3.39,.54,2.27,.47,4.49-.84,6.63Zm-3.58-8.69c-1.42-.59-3.11-.16-4.96,1.53-2.82,1.08-3.56,3.44-2.24,7.06-2.2-3.5-1.71-7.67,1.24-9.07,3.13-1.12,4.93-.75,5.96,.48Zm-2.77,8.5c-4.96-2.35-1.78-7.86,1.84-8.04,4.24,.84,4.94,8.47,2.89,11.26-3.84,6.45-11.44,11.12-18.37,5.8,.17-.21,.35-.41,.53-.62,7.52,4.08,14.9-1,16.13-6.78,.85-3.94-.24-5.69-2.08-5.32-1.17,.29-1.73,1.21-.92,3.69Zm-12.75,7.77c7.12,4.04,14.33-1.56,15.41-7.44,.3-1.51-.28-2.82-.97-3.12-.96-.42-2.19,.84-.66,3.22-5.36,4.96-10.55-4.58-5.92-9.21h-2.1c-.48,5.07-.98,10.14-5.77,16.56Zm12.67-7.19c-3.05-1.36-3.59-3.68-2.5-6.63-1.5,.72-2.37,2.89-1.5,5.31,.66,1.77,2.53,2.18,4,1.32Zm36.03-26.1c5.58,1.25,9.26,5.2,7.61,9.02-1.3,1.61-3.13,1.7-5.32,.83,2.11,3.09,7.31,2.32,7.42-2.6-.43-5.23-5.4-7.36-9.71-7.25Zm-18.11,14.31c-1.34,.15-2.73,.61-4,1.52-.42,.3-.83,.66-1.21,1.03,.61-.77,1.21-1.51,1.62-2.03q.92-1.16,1.66-.96c.43,.11,1.12,.29,1.94,.45Zm-3.26-.64l-.61-.1-2.05,3.22,2.66-3.13Zm-1.05-.16l-.37-.14-1.44,2.62,1.81-2.48Zm37.91-25.55c-2.37,2.41-4.79,2.67-7.25,.67,.49,2.24,1.48,3.5,3.25,3.2,2.3-.77,3.37-2.2,4.01-3.87Zm-4.82,4.34c3.25,2.25,9.04-.85,7.16-6.73,.67-.02,1.34-.03,2-.05-.58-4-2.97-6.19-6.35-7.4,2.11,1.95,3.96,4.11,2.86,8.49-.9,3.82-2.61,6.06-5.68,5.68Zm-1.57-4.34c2.04,1.48,5.51,.93,6.44-2.05,1.8-5.9-4.45-10.11-9.21-5.01-2.09,2.12-3.8,8.53-4.29,15.13,.65-1.17,.34-1.15,.98-2.32,.08-7.32,3.49-11.58,6.18-11.8,3.79-.02,3.82,5.65-.09,6.06Zm6.61-12.62c1.08,.77,2.22,1.8,2.85,2.83,1.87,.45,3.27,.24,4.47-.72-.57-1.25-2.14-2.23-3.79-2.97-1.21,.61-2.38,.82-3.53,.86Zm1.54-15.48c1.79-1.31,3.69-.87,5.7,1.69-1.44-2.86-3.2-4.36-5.27-4.49-.14,.93-.29,1.86-.43,2.79Zm-2.46,6.49l2.41,.67-1.74-2-.67,1.34Zm-66.23,69.11v.1s.03-.08,0-.1Zm2.35-5.82c.09-.48,.17-.95,.26-1.43,1.28-2.81,2.16-5.81,2.9-8.87-.27,.32-.54,.65-.8,.98-1.11,3.07-2.85,7.73-3.76,10.16q-.99,2.66-.99,3.13c0,.39,.02,1.1,.03,1.64,5.3-5.96,7.36-12.14,7.71-18.28-.27,.26-.53,.53-.79,.81-.23,5.34-2.05,10.07-4.97,14.38,0-.3-.02-.6-.02-.91,2.78-3.86,4.36-8.32,4.84-13.31-.29,.3-.57,.61-.84,.93-.22,3.85-1.42,7.43-3.57,10.77Zm11.52-22c0-.05-.02-.11-.03-.16-.11-.08-.21-.15-.32-.23l.34,.39Zm-4.4,7.72c1.32-.46,2.37-1.29,3.12-2.32-1.08,.7-2.12,1.47-3.12,2.32Zm-8.79,21.42c.65,.53,1.94,1.43,3.27,2.04,1.33,.61,2.7,.93,4.16,1.01,1.46,.07,3.02-.11,4.68-.71s3.4-1.64,5.25-3.1c1.84-1.46,3.79-3.36,5.35-5.2,1.57-1.85,2.76-3.64,3.79-5.21,1.03-1.57,1.91-2.9,2.68-3.78,.77-.87,1.44-1.29,2.09-1.42,.65-.14,1.29,0,1.65,.33,.36,.33,.44,.84,.28,1.19-.16,.35-.56,.54-.94,.55-.38,0-.75-.17-.96-.35-.21-.18-.28-.37-.34-.41-.06-.04-.13,.07-.31,.35-.18,.28-.48,.72-.46,1.41,.02,.68,.37,1.61,.89,2.3s1.2,1.15,2.15,1.36c.95,.21,2.16,.16,3.16-.11,1-.27,1.8-.76,2.49-1.54,.69-.78,1.28-1.85,1.55-3.07,.27-1.22,.22-2.61-.29-3.9-.52-1.29-1.5-2.48-2.7-3.24-.47-.29-.96-.52-1.49-.69,1.22-.03,2.49-.2,3.74-.49,1.72-.41,3.39-1.06,4.88-1.95,1.49-.89,2.8-2.02,3.99-3.25,1.18-1.23,2.23-2.57,2.84-3.39,.61-.82,.78-1.12,.86-1.27,.09-.15,.1-.15,.34,.02s.72,.5,1.05,.95c.33,.45,.52,1,.52,1.5,0,.5-.2,.93-.55,1.28-.35,.34-.84,.59-1.09,.71q-.25,.12-.16,.43c.09,.31,.26,.92,.61,1.47,.34,.55,.85,1.03,1.57,1.37,.72,.33,1.66,.52,2.58,.43,.92-.08,1.83-.43,2.7-1.28,.87-.84,1.69-2.18,1.95-3.5,.25-1.32-.07-2.63-.54-3.85-.47-1.23-1.08-2.37-2.1-3.29-1.02-.92-2.46-1.62-3.38-1.99-.92-.37-1.34-.41-1.54-.43s-.2-.02-.1-1.3c.09-1.28,.27-3.84,.66-5.85,.4-2,1.02-3.45,1.54-4.51,.52-1.06,.93-1.74,1.4-2.27,.46-.53,.98-.91,1.55-1.09,.57-.17,1.18-.14,1.64,.04,.47,.19,.78,.53,.95,.91,.17,.39,.18,.82,.11,1.25-.08,.43-.24,.87-.54,1.19-.3,.32-.73,.53-1.18,.63-.45,.1-.93,.09-1.18,.08-.25-.01-.26-.03-.33,.23-.06,.26-.18,.8-.1,1.57,.08,.77,.35,1.76,.89,2.58,.54,.82,1.35,1.48,2.26,1.86,.91,.38,1.91,.49,2.88,.39,.97-.1,1.9-.41,2.7-.99,.8-.58,1.48-1.42,1.89-2.07,.41-.65,.55-1.11,.6-1.7,.04-.59-.01-1.3-.07-1.77-.06-.47-.12-.68,.08-.79,.2-.11,.67-.11,1.04-.17,.37-.07,.63-.2,.76-.51,.13-.31,.13-.8,.03-1.63-.1-.84-.3-2.03-.62-2.95-.32-.91-.76-1.55-.97-1.87q-.22-.32,.26-.28c.48,.04,1.44,.11,2.26-.11,.82-.21,1.48-.72,1.82-.97q.33-.25,.06-.65c-.28-.4-.83-1.19-1.44-1.78-.61-.58-1.27-.96-1.6-1.15-.33-.19-.34-.19,.33-.58,.67-.39,2.01-1.18,3.05-2.52,1.04-1.34,1.77-3.22,2.09-4.71,.32-1.49,.24-2.58-.09-3.89-.33-1.31-.9-2.84-1.63-4.08-.72-1.24-1.6-2.21-2.38-2.84-.78-.64-1.48-.95-2.19-1.08-.67-.13-1.35-.1-1.74-.08-.04,.27-.07,.54-.12,.8,5.75,.02,7.51,6.52,7.51,10.07-.58,6.5-5.31,8.9-12.01,9.36,3.41,1.71,5.56,4.29,6.42,7.78-3.28-5.4-7.52-7.06-13.22-3.1,1.41-2.65,4.32-4.52,8.4-5.77,7.19-1.38,10.53-5.14,8.69-12.12-1.34-3.31-3.4-4.71-5.82-5.15l-.08-.44c-.67,3.52-2.07,7.01-4.19,10.22,.18,.18,.36,.34,.54,.48,.68,.53,1.24,.83,1.98,.92,.74,.09,1.67-.03,2.13-.09,.46-.06,.46-.07,.39-.2-.07-.13-.2-.39-.24-.77-.03-.38,.04-.89,.33-1.23,.29-.34,.8-.52,1.21-.38,.41,.14,.72,.59,.9,1.11,.18,.52,.23,1.11,.04,1.69-.18,.58-.59,1.15-1.29,1.72-1.84,1.49-4.18,2.17-6.75,2.6-1.26,.21-2.43,.46-3.91,1.11-1.47,.65-3.4,1.97-4.75,3.6-1.34,1.63-2.22,3.31-2.75,4.94-.61,1.88-.72,3.45-.7,6.23,0,.37,.1,.41-.22-.43-.32-.83-.99-2.55-1.92-4.04-.93-1.49-2.11-2.74-3.8-3.73-.72-.42-1.54-.79-2.38-1.1-.92,.05-1.84,.06-2.77,0,4.29,.44,8.31,2.9,11.46,12.05,.17-5.81,.45-11.58,6.16-15.84,3.5-2.25,8.21-1.82,11.84-4.2,3.5-2.29,3.21-5.88,.76-6.51-.96-.28-2.19,.45-2.19,2.31-3.19-1.55-2.23-3.57-.81-5.63,5.5-2.85,10.25,5.64,2.72,10.64-2.76,1.78-10.91,1.08-14.7,9.78-1.74,3.05-2.19,4.74-2.78,7.85-.33,2.37-.42,5.88-1.28,8.51-.19-.03-.38-.06-.57-.1-.14-10.37-4.85-15.83-11.74-18.95,.07,0,.14,0,.21,0-1.25-.11-2.5-.32-3.77-.62-.44,.08-.44,.13-.47,.49-.03,.42-.1,1.25-.02,1.85,.08,.6,.29,.97,.4,1.15q.11,.18-.21,.16c-.22-.02-.6-.04-1.18,.13l-4.16,3.17c-.11,.15-.21,.31-.31,.47-.27,.45-.49,.94-.66,1.44,.2,.09,.39,.18,.58,.28,.96-2.5,3.12-4.18,6.71-4.88-.32-1.42-.51-2.76,0-3.67,4.83,1.38,8.29,3.98,10.83,7.4-5.3-5.19-9.94-3.72-14.41-.62-.73,.85-1.31,1.69-1.76,2.51,.23,.13,.46,.27,.68,.41,.96-2.07,3.08-3.8,6.18-4.73,9.04,.22,12.62,5.33,12.12,14.08-.86,.08-1.72,.16-2.58,.24,.55-6.21-4.47-11.63-8.3-11.07-2.8,.54-4.45,1.72-4.41,3.84,.76,.75,1.4,1.55,1.92,2.39,.71,.06,1.48-.23,2.06-.93,.16,1.66-.16,2.98-.75,3.88,.09,.34,.17,.68,.24,1.03,1.25-1.36,1.68-3.99,1-5.84,3.69,1.5,3.15,7.38-.83,8.59-.02,.45-.07,.9-.14,1.35,.44-.16,.87-.37,1.28-.65,.86-.58,1.59-1.45,2.01-2.21,.42-.76,.53-1.4,.58-2.21,.05-.81,.03-1.78-.19-2.68-.22-.9-.64-1.74-1.2-2.25-.56-.51-1.26-.69-1.7-.78-.45-.08-.64-.07-.73-.06q-.1,0-.07,.2c.02,.19,.07,.58-.09,.95-.17,.36-.55,.7-.98,.74-.43,.04-.92-.21-1.2-.56-.28-.35-.36-.78-.34-1.2,.02-.41,.15-.8,.5-1.22,.35-.42,.93-.86,1.63-1.16,.69-.29,1.5-.44,2.29-.4,.79,.04,1.57,.26,2.25,.67,.68,.41,1.25,.99,1.93,1.87,.68,.88,1.47,2.05,1.95,3.13,.49,1.08,.67,2.08,.7,2.88,.03,.8-.1,1.42-.16,1.72q-.06,.31-.79,.48c-.72,.18-2.17,.54-4.49,1.84-1.02,.57-2.21,1.32-3.39,2.12-.05,.23-.11,.46-.18,.69,3.32-2.38,6.82-4.06,10.63-4.55,8.26-.48,11.7,2.35,12.26,7.16-2.22-5.64-6.82-7.42-12.03-5.58-4.86,.37-8.31,1.78-11.06,3.6-.12,.37-.25,.75-.4,1.13,3.64-2.62,7.47-4.31,11.7-4.04,5.53,.17,9.24,3.41,9.11,6.32-.5,2.48-2.02,3.11-4.48,2.03,2.61-2.62,.31-6.14-4.53-6.97-4.96-.27-9.26,1.64-12.22,3.65-.21,.46-.44,.92-.68,1.38,2.3-1.81,5.37-3.57,9.14-4.15-2.94,3.73-6.57,5.75-10.84,6.2-.28,.26-.55,.51-.83,.74,1.86-.16,3.86-.67,6-1.57,2.26-.95,4.48-2.79,6.68-5.39,1.19-.19,2.23-.19,3.1,0-2.87,3.66-6.03,6.3-9.59,7.54-2.92,1.01-5.69,1.34-8.28,.84-.28,.15-.57,.3-.86,.43,7.37,1.93,14.73-2.13,19.21-8.65,.2,.23,.19-.06,.39,.17-2.34,4.33-6.46,7.23-10.27,8.41-3.89,1.37-7.32,1.46-10.35,.47-.27,.09-.54,.17-.82,.24,3.25,1.24,7.2,1.26,12.07-.28,4.72-1.97,7.71-5.05,10.07-8.54l.52,.14c-2.7,4.51-6.19,7.5-10.36,9.21-4.16,1.39-8.5,1.23-13.01-.38-.44,.08-.88,.13-1.32,.16l.25,.12q.39,.19-.21,1.27c-.6,1.07-1.81,3.22-2.41,4.3l-.07,.12c-.06-.31-.14-.66-.28-1.02-.37-.96-1.12-2.03-1.98-2.75-.86-.72-1.83-1.11-2.77-1.36-.94-.25-1.85-.38-2.6-.36-.75,.02-1.36,.2-1.66,.29q-.3,.09,0-.32c.31-.41,.93-1.22,1.34-2.24,.12-.3,.22-.61,.3-.94-.4-.23-.8-.47-1.2-.73,.06,.42,.07,.85,.02,1.28l.37,.42c-.17,.07-.33,.15-.5,.23-.08,.28-.18,.57-.31,.85-1.29,2.43-4.52,4.57-6.9,3.9-.33,.29-.66,.6-.99,.91-.35,7.34-2.99,13.17-7.95,18.84,.02,.54,.03,.68,.68,1.21Z"/><path class="cls-4" d="M140.34,4.54c-8.04-5.53-14.55-2.17-20.31,5.54-4.04,5.96-7.74,10.49-10.64,11.74-3.03,.84-5.27-2.23-3.87-4.84,.56-.88,1.38-1.35,2.51-1.34-1.08-.74-3.28-.86-4.14,1.19-1.5,3.49,.83,6.53,4.12,6.16,4.08-.3,11.5-10.19,12.79-12.22,5.51-7.47,11.63-11.18,19.24-5.8l.3-.43m.44-.66c-6.93-5.98-14.16-3.35-21.59,4.8-3.76,4.71-6.93,10.89-9.78,11.81-1.83,.53-4.3-2.06-1.24-4.15-1.38-.07-2.91,1.28-2.1,3.58,1.28,2.36,4.03,1.69,6.73-1.48,2.35-3.04,4.71-6.08,7.06-9.12,6.62-8.46,13.47-10.68,20.66-5.01,.09-.14,.18-.29,.26-.43Zm-37.38,10.22c-.24,.14-.76,.5-1.26,1.21-.5,.71-.98,1.76-1.05,2.96-.07,1.2,.28,2.55,.75,3.4,.47,.85,1.08,1.2,1.69,1.44,.62,.24,1.25,.38,1.74,.43,.49,.05,.85,0,1.03-.01q.18-.02-.02-.07c-.19-.05-.58-.15-1.02-.38-.43-.23-.91-.58-1.35-1.07-.44-.5-.85-1.14-1.15-1.83-.3-.69-.49-1.43-.54-2.21-.05-.78,.05-1.61,.29-2.26,.24-.64,.62-1.11,.84-1.38,.22-.27,.27-.36,.04-.22Zm-.37,5.35c-.09-.27-.28-.99-.24-1.8,.04-.82,.3-1.74,.64-2.47,.34-.73,.75-1.26,1.25-1.59,.49-.33,1.07-.46,1.69-.45,.62,0,1.27,.16,1.87,.5,.6,.35,1.16,.89,1.44,1.42,.29,.53,.31,1.05,.29,1.39-.02,.34-.09,.52-.12,.6q-.03,.09-.07-.08c-.04-.17-.11-.51-.36-.91-.24-.41-.65-.88-1.28-1.16-.63-.28-1.47-.37-2.25-.2-.78,.17-1.5,.61-1.97,1.19-.48,.58-.72,1.31-.82,1.92-.1,.61-.06,1.1-.03,1.42,.03,.33,.04,.49-.04,.21Zm-.36,3.87c4.43,3.88,9.99,.79,14.34-5.94-.68,5.36,1.53,7.28,4.49,8.3-2.74-1.94-5.21-6.96-2.24-11.79-6.56,8.59-12.26,12.49-16.58,9.42Zm17.01-9.19c-.74,8.04,3.84,11.52,8.83,10.02-3.67,2.47-7.15,3.39-9.67-3.39-.54-2.27-.47-4.49,.84-6.63Zm3.58,8.69c1.42,.59,3.11,.16,4.96-1.53,2.82-1.08,3.55-3.44,2.24-7.06,2.2,3.5,1.71,7.67-1.24,9.07-3.13,1.12-4.93,.75-5.96-.48Zm2.77-8.49c4.96,2.35,1.78,7.86-1.84,8.04-4.24-.83-4.94-8.47-2.89-11.26C125.15,4.66,132.75,0,139.68,5.32c-.17,.21-.35,.41-.52,.62-7.52-4.08-14.9,1-16.13,6.78-.85,3.94,.24,5.7,2.08,5.32,1.17-.29,1.73-1.21,.92-3.69Zm12.75-7.77c-7.12-4.04-14.33,1.56-15.41,7.44-.3,1.51,.28,2.82,.97,3.12,.96,.42,2.19-.84,.66-3.22,5.36-4.96,10.55,4.58,5.92,9.21h2.1c.48-5.07,.98-10.14,5.77-16.56Zm-11.12,31.83c-2.09-2.23-3.15-4.8-3.14-7.72,.88,2.59,2.02,4.83,3.91,6.06l-.77,1.66Zm5.15-9.54c-1.5-.35-2.51-.51-3.94,1.05-1.3,1.55-.44,3.57,.31,5.77,1.21-2.27,2.42-4.55,3.63-6.82Zm.53-1.56c-.07-.8-.14-1.61-.21-2.41-3.25,.56-4.12,2.36-4.56,4.39,.93-.83,2.38-1.53,4.77-1.98Zm-4.55,9.12l.23-.43,.09-.16-.32,.59Zm-2.68-22.66c3.05,1.36,3.59,3.68,2.51,6.63,1.5-.72,2.37-2.89,1.5-5.31-.66-1.77-2.53-2.18-4-1.32Zm.97,25.24c-2.93-.17-5.07,.7-6.63,2.31-2.41,2.54-2.49,5.09-1.91,7.64,.18-.16,.37-.32,.55-.48-.32-4.86,2.74-7.38,7.64-8.61,.12-.29,.24-.57,.36-.86Zm-2.2,2.05c-1.68,.99-2.32,2.18-2.05,3.56-.71,.77-1.42,1.54-2.12,2.31-.46-3.09,1.2-4.88,4.17-5.87Zm-4.68,6.16c-.31-.76-.19-1.79-.05-2.84-.53,1.09-.8,2.33-.75,3.74,.27-.3,.53-.6,.8-.9Zm2.75-8.42c-1.84-.14-4.22,.59-6.59,1.29-1.73,.45-3.38,.43-4.99,.12,1.75,1.97,5.73,3.24,7.52,1.81,1.01-1.68,2.47-2.56,4.06-3.22Zm3.53-.57c-1.79-1.35-3.33-2.36-7.85-2.51-3.6-.16-7.26,2.69-7.94,3.75,2.21,.44,4.76,.24,7.61-.52,3.13-1,5.48-.52,8.18-.72Zm-9.21-5.87c-1.05,.5-.75,2.62,1,2.4,.38-.06,.82-.15,1.03-.47,.71,.38,1.42,.76,2.12,1.15-1.42-.39-2.93-.46-4.53-.21-.57,.19-1.14,.38-1.72,.57-1.5-1.06-2.02-2.51-.41-4.84,1.28-1.33,3.42-1.13,4.39,1.05,.36,.75,.03,1.9-.53,2.12-1.24,.23-1.77-.28-1.36-1.77Zm2.6,.95l4.51,3.05-4.63-2.46,.12-.6Zm-.07-1.05l.12,.52,3.58,2.34-3.7-2.86Zm-.6-1.55l.5,.81,4.3,3.48-4.8-4.29Zm-1.96-1.34c-6.18-3.43-12.06-4.34-17.61-2.48-4.16,1.71-7.66,4.7-10.36,9.21,.18,.05,.35,.1,.53,.14,2.36-3.49,5.35-6.58,10.07-8.54,6.86-2.17,11.9-1.24,15.7,1.81,.56-.05,1.11-.1,1.67-.14Zm-2.67,.62c-8.73-5.41-18.28-1.13-23.67,6.72-.2-.23-.19,.06-.39-.17,2.34-4.33,6.46-7.23,10.27-8.41,5.72-2.01,10.43-1.26,14.36,1.62-.19,.08-.38,.16-.57,.24Zm-.43,.62c-3.89-2.78-8.33-2.96-13.17-1.29-3.57,1.24-6.73,3.88-9.59,7.54,.87,.19,1.91,.19,3.1,0,2.2-2.6,4.42-4.45,6.68-5.39,4.88-2.04,9-2.11,12.48-.45,.17-.14,.33-.27,.5-.41Zm-18.65,6.23c3.09-3.92,6.95-5.96,11.5-6.25-2.33,2.32-6.24,5.43-11.5,6.25Zm13.89-6.11c-3.96,3.93-8.12,8.36-17.32,9.07-5.21,1.84-9.81,.05-12.03-5.58,.56,4.8,4,7.64,12.27,7.16,6.4-.81,11.92-5,17.17-10.2-.03-.15-.06-.29-.09-.44Zm-19.3,9.14c-5.58-1.25-9.26-5.2-7.61-9.02,1.3-1.61,3.13-1.7,5.32-.83-2.11-3.09-7.31-2.32-7.42,2.6,.43,5.23,5.4,7.36,9.71,7.25Zm-2.89-9.11c-2.47-1.08-3.99-.45-4.49,2.03-.13,2.92,3.58,6.15,9.11,6.32,6.32,.41,11.73-3.56,16.96-8.45-.3-.02-.6-.05-.91-.07-1.59,2.09-7.96,7.57-16.15,7.13-4.85-.83-7.15-4.35-4.53-6.97Zm36.01,13.54c.8-.99,1.61-1.98,2.41-2.97-1.44,.46-2.49,1.56-2.41,2.97Zm-6.78-22.99c.05,.31,.14,.66,.28,1.02,.37,.96,1.12,2.03,1.98,2.75,.86,.72,1.83,1.11,2.77,1.36,.94,.25,1.84,.38,2.6,.36,.76-.02,1.36-.2,1.66-.29q.3-.09,0,.32c-.31,.41-.93,1.22-1.34,2.24-.4,1.02-.6,2.24-.48,3.37,.11,1.03,.47,1.98,.94,2.87-.24-.27-.5-.55-.77-.84-1.46-1.53-3.41-3.31-4.88-4.44-1.48-1.13-2.49-1.6-3.38-2.03-.89-.43-1.67-.81-2.06-1q-.39-.19,.21-1.27c.6-1.07,1.81-3.22,2.41-4.3l.07-.12Zm-8.22,4.25c1.34-.15,2.73-.61,4-1.52,.42-.3,.83-.66,1.21-1.03-.61,.77-1.21,1.51-1.62,2.03q-.92,1.16-1.66,.96c-.43-.11-1.12-.29-1.94-.45Zm3.26,.64l.61,.1,2.05-3.22-2.66,3.13Zm1.05,.16l.37,.14,1.44-2.62-1.81,2.48Zm-10.95,22.36c-4.07-1.66-3-8.63,2.15-8.8,5.38,.61,6.76,5.41,6.68,8.83-.8-4.72-2.7-7.52-6.68-6.63-2.09,.69-3.01,4.28-2.15,6.61Zm.48-.93c-.47-4.87,3.17-6.83,5.81-3.72,3.65,4.87,1.5,10.31-5.01,12.26-9.04-.22-12.62-5.33-12.12-14.08,.86-.08,1.72-.16,2.58-.24-.55,6.21,4.47,11.63,8.3,11.07,3.28-.64,4.98-2.15,4.25-5.01-.73-1.46-2.66-1.68-3.81-.29Zm.52-8.3c2.98-1.57,5.75,.09,8.35,4.63,1.94,7.31,.3,12.18-6.54,13.5,.32,1.42,.51,2.76,0,3.67-4.83-1.38-8.29-3.98-10.83-7.4,5.3,5.19,9.94,3.72,14.41,.62,7.44-8.65-.78-16.11-5.39-15.03Zm-27.96,12.43c2.37-2.41,4.79-2.67,7.25-.67-.49-2.24-1.48-3.5-3.25-3.2-2.3,.77-3.36,2.2-4.01,3.87Zm4.82-4.34c-3.25-2.25-9.04,.85-7.16,6.73-.67,.02-1.34,.03-2,.05,.58,4,2.97,6.19,6.35,7.4-2.11-1.95-3.96-4.11-2.86-8.49,.9-3.82,2.61-6.06,5.68-5.68Zm1.57,4.34c-2.04-1.48-5.51-.93-6.44,2.05-1.8,5.9,4.45,10.11,9.21,5.01,2.08-2.12,3.8-8.53,4.29-15.13-.65,1.17-.34,1.15-.98,2.32-.08,7.32-3.49,11.58-6.18,11.8-3.79,.02-3.81-5.65,.1-6.06Zm-6.61,12.62c-1.08-.77-2.22-1.8-2.85-2.83-1.87-.45-3.27-.24-4.47,.72,.57,1.25,2.14,2.23,3.79,2.97,1.21-.61,2.38-.82,3.53-.86Zm.92,8.99l-2.41-.67,1.74,2,.67-1.34ZM141.52,4.38v-.1c-.05,.05-.03,.08,0,.1Zm-7.74,22.61c.07-.15,.15-.29,.22-.43,1.29-2.58,1.45-3.23,2.52-6.22,.2-.56,.44-1.21,.69-1.91,.74-2.35,1.4-4.79,1.97-7.3,.55-1.42,.87-3.96,2.31-4.32,.08-.28,.08-.39,.07-.6,0-.39-.02-1.1-.03-1.64-6.46,7.27-8.11,14.85-7.71,22.33,0-.02-.02,.02-.04,.08Zm5.8-19.31c0,.3,.02,.6,.02,.91-3.25,4.51-4.85,9.83-4.99,15.87-.29-6.34,1.62-11.83,4.96-16.77Zm-.41,2.52c-.09,.48-.17,.95-.26,1.43-1.54,3.38-2.5,7.04-3.34,10.74-.02-4.38,1.21-8.43,3.6-12.17Zm1.66-7.13c-.65-.52-1.94-1.43-3.27-2.05s-2.7-.93-4.16-1.01c-1.46-.07-3.02,.11-4.68,.71-1.65,.61-3.4,1.64-5.25,3.1-1.84,1.46-3.79,3.36-5.35,5.2-1.57,1.85-2.76,3.64-3.79,5.21-1.03,1.57-1.91,2.9-2.68,3.78-.77,.87-1.44,1.29-2.09,1.42-.65,.14-1.29,0-1.65-.33-.36-.33-.44-.83-.28-1.19s.56-.54,.94-.55c.38,0,.75,.17,.96,.35,.21,.18,.28,.37,.34,.41,.06,.04,.13-.07,.31-.35,.18-.28,.49-.72,.46-1.41-.02-.68-.37-1.61-.89-2.3-.52-.69-1.2-1.15-2.15-1.36-.95-.21-2.16-.16-3.16,.11-1,.27-1.8,.76-2.49,1.54-.69,.78-1.28,1.85-1.55,3.07-.27,1.22-.22,2.61,.29,3.9,.52,1.29,1.5,2.48,2.7,3.24,.47,.29,.96,.52,1.49,.68-1.22,.03-2.49,.2-3.74,.49-1.72,.41-3.39,1.06-4.88,1.95-1.49,.89-2.8,2.02-3.99,3.25-1.18,1.23-2.23,2.57-2.84,3.39-.61,.82-.78,1.12-.86,1.27-.09,.15-.1,.15-.34-.02-.24-.17-.72-.5-1.05-.95s-.53-1-.52-1.5c0-.5,.2-.93,.55-1.28,.34-.34,.84-.59,1.09-.71q.25-.12,.16-.43c-.09-.31-.26-.92-.61-1.47-.34-.55-.85-1.03-1.57-1.37-.72-.33-1.66-.52-2.58-.43-.92,.08-1.83,.43-2.7,1.28-.87,.84-1.69,2.18-1.95,3.5-.25,1.32,.07,2.63,.54,3.85,.47,1.23,1.08,2.37,2.1,3.29,1.02,.92,2.46,1.62,3.38,1.99,.92,.37,1.34,.41,1.54,.43,.2,.02,.2,.02,.1,1.3-.09,1.28-.27,3.84-.67,5.85-.4,2-1.02,3.45-1.53,4.51-.52,1.06-.93,1.74-1.4,2.27-.46,.53-.98,.91-1.55,1.09-.56,.17-1.18,.14-1.64-.04-.46-.19-.78-.53-.95-.92-.17-.39-.18-.81-.11-1.25,.07-.43,.24-.87,.54-1.19,.3-.32,.73-.53,1.18-.63,.45-.1,.93-.09,1.18-.08,.25,.01,.26,.03,.33-.23,.06-.26,.17-.8,.1-1.57-.08-.77-.35-1.76-.89-2.58-.54-.82-1.35-1.48-2.26-1.86-.91-.38-1.91-.49-2.88-.39-.97,.1-1.9,.41-2.7,.99-.8,.58-1.48,1.42-1.89,2.07-.41,.65-.55,1.11-.6,1.7-.04,.59,.01,1.3,.07,1.77,.06,.47,.12,.68-.08,.79-.2,.11-.67,.11-1.04,.17-.37,.07-.63,.2-.76,.51-.13,.31-.13,.8-.03,1.63,.1,.84,.3,2.03,.62,2.95,.32,.91,.75,1.55,.97,1.87q.22,.32-.26,.28c-.48-.04-1.44-.11-2.26,.11-.82,.21-1.48,.72-1.82,.97q-.33,.25-.05,.65c.28,.4,.84,1.19,1.44,1.78,.61,.58,1.27,.96,1.6,1.14s.34,.19-.33,.58c-.67,.39-2.01,1.18-3.05,2.52-1.04,1.34-1.77,3.22-2.09,4.71-.32,1.49-.24,2.58,.09,3.89,.33,1.31,.9,2.84,1.63,4.08,.72,1.25,1.6,2.21,2.38,2.84,.78,.64,1.48,.95,2.19,1.08,.56,.11,1.14,.1,1.54,.09,.01-.27,.03-.55,.05-.82-5.54-.22-7.24-6.57-7.24-10.06,.58-6.5,5.31-8.9,12-9.36-3.41-1.71-5.56-4.29-6.42-7.77,3.28,5.4,7.52,7.06,13.22,3.1-1.41,2.65-4.32,4.52-8.4,5.77-7.19,1.38-10.53,5.14-8.69,12.12,1.3,3.23,3.3,4.63,5.64,5.12,.03-.2,.05-.41,.08-.61-1.91-.27-3.55-1.76-4.9-4.45,1.92,2.45,3.73,2.96,5.44,1.87,.1-.35,.2-.7,.31-1.05-5.39,2.48-9.89-5.84-2.47-10.76,2.76-1.78,10.91-1.08,14.7-9.78,1.74-3.05,2.19-4.74,2.78-7.85,.33-2.37,.42-5.88,1.28-8.52,.19,.03,.38,.06,.57,.1,.14,10.37,4.85,15.83,11.74,18.95-4.71-.14-9.17-2.17-12.6-12.12-.17,5.81-.45,11.58-6.16,15.84-3.5,2.25-8.21,1.82-11.83,4.2-3.5,2.29-3.21,5.88-.76,6.51,.96,.28,2.19-.45,2.19-2.31,1.33,.65,1.93,1.37,2.09,2.15,.43-.82,.92-1.61,1.46-2.37h-.01c-.68-.54-1.24-.84-1.98-.93-.74-.09-1.67,.03-2.13,.09-.46,.06-.46,.07-.39,.2,.07,.13,.2,.39,.23,.77,.03,.38-.04,.89-.33,1.23-.29,.34-.8,.52-1.21,.38-.41-.14-.72-.59-.9-1.11s-.23-1.11-.04-1.69c.18-.58,.59-1.15,1.29-1.72,1.84-1.49,4.17-2.17,6.75-2.6,1.26-.21,2.43-.46,3.9-1.11,1.47-.65,3.4-1.97,4.75-3.6,1.34-1.63,2.22-3.31,2.75-4.94,.62-1.88,.72-3.45,.7-6.23,0-.37-.1-.41,.22,.43,.32,.83,.99,2.55,1.92,4.04,.93,1.49,2.11,2.74,3.8,3.73,1.69,.98,3.87,1.69,5.67,1.93,1.8,.24,3.2,0,3.91-.11q.7-.12,.74-.53c.03-.42,.09-1.25,.02-1.85-.08-.6-.29-.97-.4-1.15q-.11-.18,.21-.16c.32,.02,.96,.07,2.06-.49,1.1-.56,2.67-1.73,3.59-3.28,.93-1.55,1.21-3.47,1.32-5.22,.11-1.75,.04-3.32-.57-4.82-.61-1.49-1.75-2.9-2.67-3.9-.92-1-1.6-1.6-2.4-1.91-.8-.31-1.71-.35-2.66-.21-.95,.14-1.92,.44-2.78,1.02-.85,.58-1.59,1.45-2.01,2.21-.42,.76-.53,1.4-.58,2.21-.05,.81-.03,1.78,.19,2.68,.22,.9,.64,1.74,1.2,2.25,.56,.51,1.26,.69,1.71,.78,.45,.08,.64,.07,.73,.06s.1,0,.07-.2c-.02-.19-.07-.58,.09-.95,.17-.36,.55-.7,.98-.74,.43-.04,.92,.21,1.2,.56,.28,.35,.36,.78,.34,1.2-.02,.41-.15,.8-.5,1.22-.35,.42-.94,.86-1.63,1.16-.69,.29-1.5,.44-2.29,.4-.79-.04-1.57-.26-2.25-.67-.68-.41-1.25-.99-1.93-1.87-.68-.88-1.47-2.05-1.95-3.13-.49-1.08-.67-2.08-.7-2.88-.03-.8,.1-1.42,.16-1.72q.06-.31,.79-.49c.72-.18,2.17-.54,4.49-1.84,2.32-1.3,5.52-3.54,7.52-5.18,2-1.63,2.82-2.66,3.22-3.17q.41-.51,.7-.49c.29,.02,.87,.06,1.38,.19,.51,.13,.95,.34,1.17,.44,.23,.1,.24,.08,.13,.21-.11,.13-.35,.4-.41,1.01-.06,.61,.07,1.56,.31,2.19s.59,.96,.77,1.12c.18,.16,.19,.15-.33,.4-.52,.25-1.56,.76-2.41,1.35-.85,.59-1.51,1.27-1.85,1.61-.34,.34-.35,.34-.12,.61,.24,.27,.73,.81,1.42,1.36,.69,.55,1.58,1.11,2.5,1.5,.92,.4,1.88,.64,2.67,.7,.79,.06,1.42-.06,1.74-.13,.32-.07,.33-.08,.16,.45-.17,.54-.52,1.63-.54,2.66-.02,1.04,.29,2.02,.44,2.52q.16,.49,.92,.14h.03c3.21-3.15,6.11-6.59,8.68-10.34-.03-.07-.06-.14-.1-.21,.03,0,.06,0,.08,0,.17-.03,.28-.19,1.28-2.06-2.39-2.72-4.51-5.47-3.07-8.57,1.38-2.6,4.99-4.87,7.38-3.71-5.34,1-7.12,7.49-3.88,11.47,1.17-2.18,3.14-5.84,4.42-8.35-.58-9.41,2.03-16.35,7.92-23.06-.02-.54-.03-.68-.68-1.21Z"/><path class="cls-4" d="M140.34,170.54c-8.04,5.53-14.55,2.17-20.31-5.54-4.04-5.96-7.74-10.49-10.64-11.74-3.03-.84-5.27,2.23-3.87,4.84,.56,.88,1.38,1.35,2.51,1.34-1.08,.74-3.28,.86-4.14-1.19-1.5-3.49,.83-6.53,4.12-6.16,4.08,.3,11.5,10.19,12.79,12.22,5.51,7.47,11.63,11.18,19.24,5.8l.3,.43m.44,.66c-6.93,5.98-14.16,3.35-21.59-4.8-3.76-4.71-6.93-10.89-9.78-11.81-1.83-.53-4.3,2.06-1.24,4.15-1.38,.07-2.91-1.28-2.1-3.58,1.28-2.36,4.03-1.69,6.73,1.48,2.35,3.04,4.71,6.08,7.06,9.11,6.62,8.46,13.47,10.68,20.66,5.01l.26,.43Zm-37.38-10.22c-.24-.14-.76-.51-1.26-1.21-.5-.71-.98-1.76-1.05-2.96-.07-1.2,.28-2.55,.75-3.4,.47-.85,1.08-1.2,1.69-1.44,.62-.24,1.25-.38,1.74-.42,.49-.05,.85,0,1.03,.01q.18,.02-.02,.07c-.19,.05-.58,.16-1.02,.38-.43,.23-.91,.58-1.35,1.07-.44,.5-.85,1.14-1.15,1.83-.3,.69-.49,1.43-.54,2.21-.05,.78,.05,1.61,.29,2.25,.24,.64,.62,1.11,.84,1.38,.22,.27,.27,.36,.04,.22Zm-.37-5.35c-.09,.27-.28,.99-.24,1.8,.04,.82,.3,1.74,.64,2.47,.34,.73,.75,1.26,1.25,1.59,.49,.33,1.07,.46,1.69,.45,.62-.01,1.27-.16,1.87-.5,.6-.35,1.16-.89,1.44-1.42,.29-.53,.31-1.05,.29-1.39-.02-.34-.09-.52-.12-.6q-.03-.09-.07,.08c-.04,.17-.11,.51-.36,.91-.24,.41-.65,.88-1.28,1.16-.63,.28-1.47,.37-2.25,.2-.78-.17-1.5-.61-1.97-1.19-.48-.58-.72-1.31-.82-1.92-.1-.61-.06-1.1-.03-1.42,.03-.33,.04-.49-.04-.21Zm-.36-3.87c4.43-3.88,9.99-.79,14.34,5.94-.68-5.36,1.53-7.27,4.49-8.3-2.74,1.94-5.21,6.96-2.24,11.79-6.56-8.59-12.26-12.49-16.58-9.43Zm17.01,9.19c-.74-8.04,3.84-11.52,8.83-10.02-3.67-2.47-7.15-3.39-9.67,3.39-.54,2.27-.47,4.49,.84,6.63Zm3.58-8.69c1.42-.59,3.11-.16,4.96,1.53,2.82,1.08,3.55,3.44,2.24,7.06,2.2-3.5,1.71-7.67-1.24-9.07-3.13-1.12-4.93-.75-5.96,.48Zm2.77,8.5c4.96-2.35,1.78-7.86-1.84-8.04-4.24,.84-4.94,8.47-2.89,11.26,3.84,6.45,11.44,11.12,18.37,5.8-.17-.21-.35-.41-.52-.62-7.52,4.08-14.9-1-16.13-6.78-.85-3.94,.24-5.69,2.08-5.32,1.17,.29,1.73,1.21,.92,3.69Zm12.75,7.77c-7.12,4.04-14.33-1.56-15.41-7.44-.3-1.51,.28-2.82,.97-3.12,.96-.42,2.19,.84,.66,3.22,5.36,4.96,10.55-4.58,5.92-9.21h2.1c.48,5.07,.98,10.14,5.77,16.56Zm-12.68-7.19c3.05-1.36,3.59-3.68,2.51-6.63,1.5,.72,2.37,2.89,1.5,5.31-.66,1.77-2.53,2.18-4,1.32Zm-36.03-26.1c-5.58,1.25-9.26,5.2-7.61,9.02,1.3,1.61,3.13,1.7,5.32,.83-2.11,3.09-7.31,2.32-7.42-2.6,.43-5.23,5.4-7.36,9.71-7.25Zm18.11,14.31c1.34,.15,2.73,.61,4,1.52,.42,.3,.83,.66,1.21,1.03-.61-.77-1.21-1.51-1.62-2.03q-.92-1.16-1.66-.96c-.43,.11-1.12,.29-1.94,.45Zm3.26-.64l.61-.1,2.05,3.22-2.66-3.13Zm1.05-.16l.37-.14,1.44,2.62-1.81-2.48Zm-37.91-25.55c2.37,2.41,4.79,2.67,7.25,.67-.49,2.24-1.48,3.5-3.25,3.2-2.3-.77-3.36-2.2-4.01-3.87Zm4.82,4.34c-3.25,2.25-9.04-.85-7.16-6.73-.67-.02-1.34-.03-2-.05,.58-4,2.97-6.19,6.35-7.4-2.11,1.95-3.96,4.11-2.86,8.49,.9,3.82,2.61,6.06,5.68,5.68Zm1.57-4.34c-2.04,1.48-5.51,.93-6.44-2.05-1.8-5.9,4.45-10.11,9.21-5.01,2.08,2.12,3.8,8.53,4.29,15.13-.65-1.17-.34-1.15-.98-2.32-.08-7.32-3.49-11.58-6.18-11.8-3.79-.02-3.81,5.65,.1,6.06Zm-6.61-12.62c-1.08,.77-2.22,1.8-2.85,2.83-1.87,.45-3.27,.24-4.47-.72,.57-1.25,2.14-2.23,3.79-2.97,1.21,.61,2.38,.82,3.53,.86Zm-1.54-15.48c-1.79-1.31-3.69-.87-5.7,1.69,1.44-2.86,3.2-4.36,5.27-4.49,.14,.93,.29,1.86,.43,2.79Zm2.46,6.49l-2.41,.67,1.74-2,.67,1.34Zm66.23,69.11v.1s-.03-.08,0-.1Zm-2.35-5.82c-.09-.48-.17-.95-.26-1.43-1.28-2.81-2.16-5.81-2.9-8.87,.27,.32,.54,.65,.8,.98,1.11,3.07,2.85,7.73,3.76,10.16q.99,2.66,.99,3.13c0,.39-.02,1.1-.03,1.64-5.3-5.96-7.36-12.14-7.71-18.28,.27,.26,.53,.53,.79,.81,.23,5.34,2.05,10.07,4.97,14.38,0-.3,.02-.6,.02-.91-2.78-3.86-4.36-8.32-4.84-13.31,.28,.3,.57,.61,.84,.93,.22,3.85,1.43,7.43,3.57,10.77Zm-11.52-22c0-.05,.02-.11,.03-.16,.11-.08,.21-.15,.32-.23l-.34,.39Zm4.4,7.72c-1.32-.46-2.37-1.29-3.12-2.32,1.08,.7,2.12,1.47,3.12,2.32Zm8.79,21.42c-.65,.53-1.94,1.43-3.27,2.04-1.33,.61-2.7,.93-4.16,1.01-1.46,.07-3.02-.11-4.68-.71s-3.4-1.64-5.25-3.1c-1.84-1.46-3.79-3.36-5.35-5.2-1.57-1.85-2.76-3.64-3.79-5.21-1.03-1.57-1.91-2.9-2.68-3.78s-1.44-1.29-2.09-1.42c-.65-.14-1.29,0-1.65,.33-.36,.33-.44,.84-.28,1.19,.16,.35,.56,.54,.94,.55,.38,0,.75-.17,.96-.35,.21-.18,.28-.37,.34-.41,.06-.04,.13,.07,.31,.35,.18,.28,.49,.72,.46,1.41-.02,.68-.37,1.61-.89,2.3-.52,.69-1.2,1.15-2.15,1.36-.95,.21-2.16,.16-3.16-.11-1-.27-1.8-.76-2.49-1.54-.69-.78-1.28-1.85-1.55-3.07-.27-1.22-.22-2.61,.29-3.9,.52-1.29,1.5-2.48,2.7-3.24,.47-.29,.96-.52,1.49-.69-1.22-.03-2.49-.2-3.74-.49-1.72-.41-3.39-1.06-4.88-1.95-1.49-.89-2.8-2.02-3.99-3.25-1.18-1.23-2.23-2.57-2.84-3.39-.61-.82-.78-1.12-.86-1.27-.09-.15-.1-.15-.34,.02-.24,.17-.72,.5-1.05,.95-.33,.45-.53,1-.52,1.5,0,.5,.2,.93,.55,1.28,.34,.34,.84,.59,1.09,.71q.25,.12,.16,.43c-.09,.31-.26,.92-.61,1.47s-.85,1.03-1.57,1.37c-.72,.33-1.66,.52-2.58,.43-.92-.08-1.83-.43-2.7-1.28-.87-.84-1.69-2.18-1.95-3.5-.25-1.32,.07-2.63,.54-3.85,.47-1.23,1.08-2.37,2.1-3.29,1.02-.92,2.46-1.62,3.38-1.99,.92-.37,1.34-.41,1.54-.43,.2-.02,.2-.02,.1-1.3-.09-1.28-.27-3.84-.67-5.85-.4-2-1.02-3.45-1.53-4.51-.52-1.06-.93-1.74-1.4-2.27-.46-.53-.98-.91-1.55-1.09-.56-.17-1.18-.14-1.64,.04-.46,.19-.78,.53-.95,.91-.17,.39-.18,.82-.11,1.25,.07,.43,.24,.87,.54,1.19,.3,.32,.73,.53,1.18,.63,.45,.1,.93,.09,1.18,.08,.25-.01,.26-.03,.33,.23,.06,.26,.17,.8,.1,1.57-.08,.77-.35,1.76-.89,2.58-.54,.82-1.35,1.48-2.26,1.86-.91,.38-1.91,.49-2.88,.39-.97-.1-1.9-.41-2.7-.99-.8-.58-1.48-1.42-1.89-2.07-.41-.65-.55-1.11-.6-1.7-.04-.59,.01-1.3,.07-1.77,.06-.47,.12-.68-.08-.79-.2-.11-.67-.11-1.04-.17-.37-.07-.63-.2-.76-.51-.13-.31-.13-.8-.03-1.63,.1-.84,.3-2.03,.62-2.95,.32-.91,.75-1.55,.97-1.87q.22-.32-.26-.28c-.48,.04-1.44,.11-2.26-.11-.82-.21-1.48-.72-1.82-.97s-.33-.25-.05-.65c.28-.4,.84-1.19,1.44-1.78,.61-.58,1.27-.96,1.6-1.15,.33-.19,.34-.19-.33-.58-.67-.39-2.01-1.18-3.05-2.52-1.04-1.34-1.77-3.22-2.09-4.71-.32-1.49-.24-2.58,.09-3.89,.33-1.31,.9-2.84,1.63-4.08,.72-1.24,1.6-2.21,2.38-2.84s1.48-.95,2.19-1.08c.67-.13,1.35-.1,1.74-.08,.04,.27,.08,.54,.12,.8-5.75,.02-7.51,6.52-7.51,10.07,.58,6.5,5.31,8.9,12,9.36-3.41,1.71-5.56,4.29-6.42,7.78,3.28-5.4,7.52-7.06,13.22-3.1-1.41-2.65-4.32-4.52-8.4-5.77-7.19-1.38-10.53-5.14-8.69-12.12,1.34-3.31,3.4-4.71,5.82-5.15l.08-.44c.67,3.52,2.07,7.01,4.19,10.22-.18,.18-.36,.34-.54,.48-.68,.53-1.24,.83-1.98,.92-.74,.09-1.67-.03-2.13-.09-.46-.06-.46-.07-.39-.2,.07-.13,.2-.39,.23-.77,.03-.38-.04-.89-.33-1.23-.29-.34-.8-.52-1.21-.38-.41,.14-.72,.59-.9,1.11s-.23,1.11-.04,1.69c.18,.58,.59,1.15,1.29,1.72,1.84,1.49,4.17,2.17,6.75,2.6,1.26,.21,2.43,.46,3.9,1.11,1.47,.65,3.4,1.97,4.75,3.6,1.34,1.63,2.22,3.31,2.75,4.94,.62,1.88,.72,3.45,.7,6.23,0,.37-.1,.41,.22-.43,.32-.83,.99-2.55,1.92-4.04,.93-1.49,2.11-2.74,3.8-3.73,.72-.42,1.54-.79,2.38-1.1,.92,.05,1.84,.06,2.77,0-4.29,.44-8.31,2.9-11.46,12.05-.17-5.81-.45-11.58-6.16-15.84-3.5-2.25-8.21-1.82-11.83-4.2-3.5-2.29-3.21-5.88-.76-6.51,.96-.28,2.19,.45,2.19,2.31,3.19-1.55,2.23-3.57,.81-5.63-5.5-2.85-10.25,5.64-2.72,10.64,2.76,1.78,10.91,1.08,14.7,9.78,1.74,3.05,2.19,4.74,2.78,7.85,.33,2.37,.42,5.88,1.28,8.51,.19-.03,.38-.06,.57-.1,.14-10.37,4.85-15.83,11.74-18.95-.07,0-.14,0-.21,0,1.25-.11,2.5-.32,3.77-.62,.44,.08,.44,.13,.47,.49,.03,.42,.09,1.25,.02,1.85-.08,.6-.29,.97-.4,1.15q-.11,.18,.21,.16c.22-.02,.6-.04,1.18,.13l4.16,3.17c.11,.15,.21,.31,.31,.47,.27,.45,.49,.94,.66,1.44-.2,.09-.39,.18-.58,.28-.96-2.5-3.12-4.18-6.71-4.88,.32-1.42,.51-2.76,0-3.67-4.83,1.38-8.29,3.98-10.83,7.4,5.3-5.19,9.94-3.72,14.41-.62,.73,.85,1.31,1.69,1.76,2.51-.23,.13-.46,.27-.68,.41-.97-2.07-3.08-3.8-6.18-4.73-9.04,.22-12.62,5.33-12.12,14.08,.86,.08,1.72,.16,2.58,.24-.55-6.21,4.47-11.63,8.3-11.07,2.8,.54,4.45,1.72,4.41,3.84-.76,.75-1.4,1.55-1.92,2.39-.71,.06-1.48-.23-2.06-.93-.16,1.66,.16,2.98,.75,3.88-.09,.34-.17,.68-.24,1.03-1.25-1.36-1.68-3.99-1-5.84-3.69,1.5-3.15,7.38,.83,8.59,.02,.45,.07,.9,.14,1.35-.44-.16-.87-.37-1.28-.65-.85-.58-1.59-1.45-2.01-2.21-.42-.76-.53-1.4-.58-2.21-.05-.81-.03-1.78,.19-2.68,.22-.9,.64-1.74,1.2-2.25,.56-.51,1.26-.69,1.71-.78s.64-.07,.73-.06q.1,0,.07,.2c-.02,.19-.07,.58,.09,.95,.17,.36,.55,.7,.98,.74,.43,.04,.92-.21,1.2-.56,.28-.35,.36-.78,.34-1.2-.02-.41-.15-.8-.5-1.22-.35-.42-.94-.86-1.63-1.16-.69-.29-1.5-.44-2.29-.4-.79,.04-1.57,.26-2.25,.67-.68,.41-1.25,.99-1.93,1.87-.68,.88-1.47,2.05-1.95,3.13-.49,1.08-.67,2.08-.7,2.88-.03,.8,.1,1.42,.16,1.72q.06,.31,.79,.48c.72,.18,2.17,.54,4.49,1.84,1.02,.57,2.21,1.32,3.39,2.12,.05,.23,.12,.46,.18,.69-3.32-2.38-6.82-4.06-10.63-4.55-8.26-.48-11.7,2.35-12.27,7.16,2.22-5.64,6.82-7.42,12.03-5.58,4.86,.37,8.31,1.78,11.06,3.6,.12,.37,.25,.75,.4,1.13-3.64-2.62-7.47-4.31-11.71-4.04-5.53,.17-9.24,3.41-9.11,6.32,.5,2.48,2.02,3.11,4.49,2.03-2.61-2.62-.31-6.14,4.53-6.97,4.96-.27,9.25,1.64,12.22,3.65,.21,.46,.44,.92,.68,1.38-2.3-1.81-5.37-3.57-9.14-4.15,2.94,3.73,6.57,5.75,10.84,6.2,.27,.26,.55,.51,.83,.74-1.86-.16-3.86-.67-6-1.57-2.26-.95-4.48-2.79-6.68-5.39-1.19-.19-2.23-.19-3.1,0,2.87,3.66,6.03,6.3,9.59,7.54,2.92,1.01,5.69,1.34,8.28,.84,.29,.15,.57,.3,.86,.43-7.37,1.93-14.73-2.13-19.21-8.65-.2,.23-.19-.06-.39,.17,2.34,4.33,6.46,7.23,10.27,8.41,3.89,1.37,7.32,1.46,10.35,.47,.27,.09,.54,.17,.82,.24-3.25,1.24-7.2,1.26-12.07-.28-4.72-1.97-7.71-5.05-10.07-8.54-.18,.05-.35,.1-.53,.14,2.7,4.51,6.2,7.5,10.36,9.21,4.16,1.39,8.5,1.23,13.01-.38,.44,.08,.88,.13,1.32,.16l-.25,.12q-.39,.19,.21,1.27c.6,1.07,1.81,3.22,2.41,4.3l.07,.12c.05-.31,.14-.66,.28-1.02,.37-.96,1.12-2.03,1.98-2.75,.86-.72,1.83-1.11,2.77-1.36,.94-.25,1.84-.38,2.6-.36,.76,.02,1.36,.2,1.66,.29q.3,.09,0-.32c-.31-.41-.93-1.22-1.34-2.24-.12-.3-.22-.61-.3-.94,.4-.23,.8-.47,1.2-.73-.06,.42-.07,.85-.02,1.28l-.37,.42c.17,.07,.33,.15,.5,.23,.07,.28,.18,.57,.31,.85,1.29,2.43,4.52,4.57,6.9,3.9,.33,.29,.66,.6,.99,.91,.35,7.34,2.99,13.17,7.96,18.84-.02,.54-.03,.68-.68,1.21Z"/><g class="cls-2"><rect class="cls-1" x="18.47" y="21.75" width="172.39" height="126.3" transform="translate(-12.92 150.75) rotate(-68.3)"/></g><g class="cls-6"><rect class="cls-8" x="115.24" y="-1.3" width="126.3" height="172.39" transform="translate(-18.75 71.99) rotate(-21.7)"/></g><g><path class="cls-3" d="M269.35,212.49c-.25-.06-.53-.09-.84-.09-2.49,0-5.06,1.58-7.74,4.75-3.79,4.6-5.69,8.36-5.69,11.28,0,1.3,.43,1.96,1.3,1.96,1.37,0,3.14-1.43,5.31-4.29,3.04-3.85,5.59-8.39,7.64-13.61m13.7,9.79c0,.31-.19,.75-.56,1.31-2.73,4.41-5.31,7.24-7.74,8.48-1.12,.56-2.24,.84-3.36,.84-3.79,0-5.69-2.67-5.69-8.02,0-.87,.06-1.8,.19-2.8-4.16,7.39-7.86,11.09-11.09,11.09-1.93,0-2.89-1.06-2.89-3.17,0-3.23,1.55-7.13,4.66-11.7,3.11-4.57,6.12-7.35,9.04-8.34,1.06-.44,2.08-.65,3.08-.65,2.24,0,3.85,.78,4.85,2.33,.19,.31,.28,.53,.28,.65,0,.06-.22,.16-.65,.28-.44,.12-.75,.34-.93,.65-1.49,2.42-2.24,6.06-2.24,10.91,0,4.47,.96,6.71,2.89,6.71,1.37,0,3.31-1.51,5.83-4.52,2.52-3.01,3.87-4.52,4.06-4.52s.28,.16,.28,.47Zm-26.19-.56c0,.25-.19,.59-.56,1.02-2.17,3.17-5.19,6.06-9.04,8.67-2.24,1.43-4.6,2.14-7.08,2.14-4.6,0-6.9-2.45-6.9-7.36,0-3.04,1.69-6.4,5.08-10.07,3.39-3.67,6.57-5.5,9.55-5.5,1.99,0,2.98,.78,2.98,2.33,0,.62-.45,1.69-1.35,3.22-.9,1.52-1.63,2.28-2.19,2.28-.25,0-.37-.16-.37-.47,0-.25,.11-.65,.33-1.21,.22-.56,.33-.99,.33-1.31,0-1.3-.81-1.96-2.42-1.96-2.24,0-4.26,1.46-6.06,4.38-1.68,2.67-2.52,5.19-2.52,7.55,0,3.85,1.68,5.78,5.03,5.78,4.23,0,8.64-2.89,13.24-8.67,.62-.75,1.15-1.12,1.58-1.12,.25,0,.37,.09,.37,.28Zm-20.69-.09c0,.5-.19,1.03-.56,1.58-4.85,7.71-9.66,11.56-14.45,11.56-3.48,0-5.22-2.02-5.22-6.06s1.3-7.92,3.91-12.21c-.37,.12-.78,.19-1.21,.19-1,0-1.96-.31-2.89-.93-1.12-.68-1.68-1.46-1.68-2.33-.68,1.55-1.96,3.76-3.82,6.62-2.3,3.6-3.82,5.41-4.57,5.41-.25,0-.37-.12-.37-.37s.15-.59,.47-1.02c2.42-3.29,4.88-7.55,7.36-12.77-.12-.56-.19-1.24-.19-2.05,0-1.43,.28-3.08,.84-4.94,.62-2.36,1.46-3.54,2.52-3.54,.68,0,1.27,.56,1.77,1.68,.44,.87,.65,1.71,.65,2.52,0,1.55-1.27,3.82-3.82,6.8,.56,1.93,1.65,2.89,3.26,2.89,1.12,0,2.21-.61,3.26-1.82,1.06-1.21,1.8-1.82,2.24-1.82,.56,0,1.06,.23,1.49,.7,.44,.47,.65,1.01,.65,1.63,0-.06-1.09,2.02-3.26,6.24-2.17,4.23-3.26,7.49-3.26,9.79,0,2.18,1.03,3.26,3.08,3.26,1.74,0,3.73-.99,5.96-2.98,1.43-1.31,3.11-3.17,5.03-5.59,1.55-1.99,2.36-2.98,2.42-2.98,.25,0,.37,.19,.37,.56Zm-42.04,4.85c-2.05-1.37-3.61-2.95-4.66-4.75-1.86,3.91-2.8,6.74-2.8,8.48,0,1.24,.47,1.86,1.4,1.86,.87,0,2.02-.75,3.45-2.24,1.24-1.18,2.11-2.3,2.61-3.36Zm3.07-10.91c0-1.37-.22-2.76-.65-4.19-.62-1.99-1.43-2.98-2.42-2.98-1.43,0-2.55,.87-3.36,2.61-.62,1.37-.9,2.86-.84,4.47,.99-1.18,1.99-1.77,2.98-1.77,.93,0,1.62,.31,2.05,.93v.47c.06,.19,.09,.34,.09,.47,0,.19-.31,.28-.93,.28-1.12,0-2.3,1.18-3.54,3.54,.81,2.36,2.24,4.29,4.29,5.78,1.55-3.91,2.33-7.11,2.33-9.6Zm11,7.08c0,.12-.06,.25-.19,.37-.87,1.49-2.19,2.77-3.96,3.82-1.77,1.06-3.5,1.58-5.17,1.58-1.24,0-2.39-.31-3.45-.93-2.86,4.54-5.81,6.8-8.86,6.8-2.17,0-3.26-1.27-3.26-3.82,0-3.54,1.55-7.71,4.66-12.49-.12-.68-.19-1.37-.19-2.05,0-2.24,.75-4.41,2.24-6.52,1.49-2.11,3.32-3.17,5.5-3.17,1.43,0,2.58,.84,3.45,2.52,.68,1.43,1.03,2.92,1.03,4.47,0,3.36-1.3,7.61-3.92,12.77,.93,.56,1.99,.84,3.17,.84,2.05,0,3.98-.81,5.78-2.42,1.8-1.62,2.64-2.42,2.52-2.42,.43,0,.65,.22,.65,.65Zm-16.5-40.27c0-1.18-.4-1.77-1.21-1.77-1.8,0-4.01,1.74-6.62,5.22-2.98,4.04-6.37,9.72-10.16,17.06-4.16,8.02-6.65,14.01-7.46,17.99,3.42-2.98,8.02-8.45,13.8-16.4,5.96-8.33,9.57-14.35,10.81-18.08,.56-1.74,.84-3.08,.84-4.01Zm4.01-.37c0,4.23-4.01,11.4-12.02,21.53-6.34,7.89-12.24,14.39-17.71,19.48,0,6.77,1.71,10.16,5.13,10.16s8.26-3.51,14.54-10.53c.25-.31,.5-.47,.75-.47,.31,0,.47,.22,.47,.65,0,.25-.09,.5-.28,.75-2.17,2.86-4.66,5.34-7.46,7.46-3.54,2.73-6.68,4.1-9.41,4.1-4.66,0-6.99-3.82-6.99-11.46,0-5.22,2.58-12.24,7.74-21.07,4.23-7.21,8.73-13.45,13.51-18.73,3.42-3.73,6.28-5.59,8.58-5.59,.75,0,1.46,.42,2.14,1.26,.68,.84,1.03,1.66,1.03,2.47Zm-26.84,.37c0-1.18-.4-1.77-1.21-1.77-1.8,0-4.01,1.74-6.62,5.22-2.98,4.04-6.37,9.72-10.16,17.06-4.16,8.02-6.65,14.01-7.46,17.99,3.42-2.98,8.02-8.45,13.79-16.4,5.96-8.33,9.57-14.35,10.81-18.08,.56-1.74,.84-3.08,.84-4.01Zm4.01-.37c0,4.23-4.01,11.4-12.02,21.53-6.34,7.89-12.24,14.39-17.71,19.48,0,6.77,1.71,10.16,5.13,10.16s8.26-3.51,14.54-10.53c.25-.31,.5-.47,.75-.47,.31,0,.47,.22,.47,.65,0,.25-.09,.5-.28,.75-2.17,2.86-4.66,5.34-7.46,7.46-3.54,2.73-6.68,4.1-9.41,4.1-4.66,0-6.99-3.82-6.99-11.46,0-5.22,2.58-12.24,7.74-21.07,4.23-7.21,8.73-13.45,13.52-18.73,3.42-3.73,6.28-5.59,8.57-5.59,.75,0,1.46,.42,2.14,1.26,.68,.84,1.03,1.66,1.03,2.47Zm-45.39,30.48c-.25-.06-.53-.09-.84-.09-2.49,0-5.06,1.58-7.74,4.75-3.79,4.6-5.69,8.36-5.69,11.28,0,1.3,.43,1.96,1.3,1.96,1.37,0,3.14-1.43,5.31-4.29,3.04-3.85,5.59-8.39,7.64-13.61Zm13.7,9.79c0,.31-.19,.75-.56,1.31-2.73,4.41-5.31,7.24-7.74,8.48-1.12,.56-2.24,.84-3.36,.84-3.79,0-5.69-2.67-5.69-8.02,0-.87,.06-1.8,.19-2.8-4.16,7.39-7.86,11.09-11.09,11.09-1.93,0-2.89-1.06-2.89-3.17,0-3.23,1.55-7.13,4.66-11.7,3.11-4.57,6.12-7.35,9.04-8.34,1.06-.44,2.08-.65,3.08-.65,2.24,0,3.85,.78,4.85,2.33,.19,.31,.28,.53,.28,.65,0,.06-.22,.16-.65,.28-.44,.12-.75,.34-.93,.65-1.49,2.42-2.24,6.06-2.24,10.91,0,4.47,.96,6.71,2.89,6.71,1.37,0,3.31-1.51,5.83-4.52s3.87-4.52,4.05-4.52,.28,.16,.28,.47Zm-33.82-23.58c0,2.05-.62,4.57-1.86,7.55-1.93,4.72-3.88,9.44-5.87,14.17-2.49,6.52-3.73,11.25-3.73,14.17,0,2.24,.84,3.36,2.52,3.36,.93,0,2.13-.53,3.59-1.58,1.46-1.06,2.32-1.58,2.56-1.58s.37,.16,.37,.47c0,1.24-.85,2.33-2.56,3.26-1.71,.93-3.21,1.4-4.52,1.4-3.54,0-5.31-2.08-5.31-6.25,0-2.73,.75-6.37,2.24-10.91,1.18-3.35,2.89-7.58,5.13-12.68,.87-1.68,1.99-4.23,3.36-7.64,.56-1.68,.84-2.92,.84-3.73,0-.68-.22-1.02-.65-1.02-3.17,0-8.82,4.44-16.96,13.33-5.9,6.46-10.81,12.49-14.73,18.08-1.24,1.8-2.27,3.36-3.08,4.66-.31,.68-.81,1.43-1.49,2.24-.25,.06-.5,.09-.75,.09-1.86,0-2.79-.75-2.79-2.24,0-.31,.11-.62,.33-.93,.22-.31,1.38-2.67,3.49-7.08,6.28-13.05,9.41-22.43,9.41-28.15,0-2.61-.81-3.92-2.42-3.92-2.61,0-6.96,3.32-13.05,9.97-6.9,7.58-13.36,16.37-19.39,26.38-.68,1.18-1.37,2.33-2.05,3.45-.99,1.55-1.8,2.58-2.42,3.08-1.43,0-2.14-.68-2.14-2.05,0-.44,.12-.81,.37-1.12,3.42-4.16,7.11-10.75,11.09-19.76,4.35-9.69,6.52-16.84,6.52-21.44,0-6.21-3.42-9.32-10.25-9.32-3.6,0-7.95,.9-13.05,2.7-3.42,1.24-6.91,2.83-10.49,4.75-3.57,1.93-6.94,4.1-10.11,6.52-4.72,3.67-7.08,6.68-7.08,9.04,0,3.48,3.39,5.22,10.16,5.22,1.37,0,3.39-.2,6.06-.61,2.67-.4,4.66-.61,5.96-.61,.5,0,.75,.12,.75,.37s-.16,.47-.47,.65c-2.11,1.49-5.62,2.24-10.53,2.24-3.54,0-6.59-.5-9.13-1.49-3.48-1.37-5.22-3.57-5.22-6.62,0-3.23,2.33-6.71,6.99-10.44,3.17-2.55,6.93-4.88,11.28-6.99,3.67-1.74,7.43-3.2,11.28-4.38,5.47-1.62,10.35-2.42,14.63-2.42,9.07,0,13.61,3.45,13.61,10.35,0,5.59-2.24,12.71-6.71,21.34,3.54-4.23,7.08-8.48,10.63-12.77,5.34-5.78,9.54-8.67,12.58-8.67,3.73,0,5.59,2.8,5.59,8.39,0,4.85-1.89,11.87-5.69,21.06,4.1-4.6,8.61-9.26,13.52-13.98,6.96-6.59,11.87-10.35,14.73-11.28,.81-.25,1.49-.37,2.05-.37,1.93,0,2.89,1.24,2.89,3.73Z"/><g class="cls-7"><rect class="cls-3" y="178.28" width="283.05" height="61.61"/></g></g></g></g></svg>